<svg width="470" height="512" viewBox="0 0 470 512" fill="none" xmlns="http://www.w3.org/2000/svg">
<path d="M235 440.064C206.2 472.277 168.909 504.427 125.624 509.653L125.581 509.461C83 527.296 0.76001 483.051 0.76001 402.773C0.76001 349.653 68.9627 232.021 141.155 80.2347C160.184 40.7893 179.875 -7.62939e-06 234.787 -7.62939e-06C290.104 -7.62939e-06 308.941 38.976 332.109 87.0187C469.219 360.363 469.219 375.445 469.219 402.773C469.24 496.725 352.888 571.947 235 440.064V440.064ZM437.24 402.773C437.24 360.917 301.155 96.32 300.024 94.1227C280.333 53.312 268.493 32 235.213 32C195.853 32 185.656 63.4027 166.627 101.077C32.76 367.936 32.76 382.549 32.76 402.773C32.76 466.645 111.331 531.947 213.795 415.744C171.256 360.789 149.667 313.579 149.667 275.413C149.667 217.003 192.589 186.453 235 186.453C277.411 186.453 320.333 217.003 320.333 275.413C320.333 313.579 298.765 360.789 256.205 415.744C354.381 527.083 437.24 470.272 437.24 402.773ZM235 218.453C208.461 218.453 181.667 236.075 181.667 275.413C181.667 304.747 200.077 344.555 235 390.784C269.923 344.555 288.333 304.747 288.333 275.413C288.333 236.075 261.539 218.453 235 218.453V218.453Z" fill="#FDFDFD"/>
</svg>
