<svg width="359" height="325" viewBox="0 0 359 325" fill="none" xmlns="http://www.w3.org/2000/svg">
<path d="M146.508 47.969L178.917 60.4847L192.741 47.969L169.625 27.0421L146.508 47.969Z" fill="#DFDDE2"/>
<path d="M88.1724 25.4419L120.581 37.9569L134.133 25.6875L111.017 4.76059L88.1724 25.4419Z" fill="#DFDDE2"/>
<path d="M161.874 134.51L224.288 78.0061L59.005 14.1779L31.2652 39.2905L161.874 134.51Z" fill="#EAB14D"/>
<path d="M147.754 124.216L161.873 134.51L224.288 78.0061L202.747 69.6875C186.075 86.1526 167.053 105.026 147.754 124.216Z" fill="#E49542"/>
<path d="M306.012 192.367L292.187 163.028L306.012 150.513L329.129 171.44L306.012 192.367Z" fill="#DFDDE2"/>
<path d="M330.896 245.178L317.072 215.838L330.624 203.57L353.741 224.496L330.896 245.178Z" fill="#DFDDE2"/>
<path d="M79.2317 285.709L117.374 251.179L132.4 306.636L117.374 320.239L79.2317 285.709Z" fill="#EAB14D"/>
<path d="M123.11 272.349L117.374 251.178L79.2317 285.708L92.338 297.573C99.2979 291.873 109.991 283.109 123.11 272.349Z" fill="#E49542"/>
<path d="M210.418 178.456L272.833 121.953L343.339 271.583L315.599 296.695L210.418 178.456Z" fill="#EAB14D"/>
<path d="M282.022 141.454L272.833 121.953L210.418 178.456L221.788 191.238C242.986 173.768 263.834 156.547 282.022 141.454Z" fill="#E49542"/>
<path d="M43.4011 253.272L81.5435 218.742L20.2849 205.139L5.25879 218.742L43.4011 253.272Z" fill="#EAB14D"/>
<path d="M30.2949 241.407L43.4012 253.272L81.5435 218.742L58.158 213.549C46.2725 225.425 36.5921 235.106 30.2949 241.407Z" fill="#E49542"/>
<path d="M326.001 29.8731C310.043 15.4259 283.814 15.7471 268.21 29.8731C245.538 50.3982 70.8513 225.089 40.4064 255.551C37.8745 258.085 37.9831 261.969 40.6525 264.385L53.8037 276.291L66.9549 288.196C69.6235 290.612 73.914 290.711 76.7131 288.419C110.362 260.858 303.328 102.716 326.001 82.1904C341.605 68.0657 341.96 44.3204 326.001 29.8731Z" fill="#F9F6F9"/>
<path d="M326.001 29.8732C323.92 27.9886 321.659 26.361 319.274 24.9766C329.464 39.3686 327.433 58.9213 313.865 71.2046C289.015 93.7013 59.5827 281.523 59.5827 281.523L66.9549 288.197C69.6235 290.613 73.914 290.712 76.7131 288.42C110.362 260.858 303.328 102.716 326.001 82.1911C341.605 68.0657 341.96 44.3204 326.001 29.8732Z" fill="#DFDDE2"/>
<path d="M334.409 70.9678C340.871 57.486 338.236 40.9491 326.001 29.8731C313.766 18.7971 295.499 16.4117 280.607 22.2617L334.409 70.9678Z" fill="#818181"/>
<path d="M322.273 59.9813L334.409 70.9678C340.871 57.486 338.236 40.9491 326.001 29.8731C323.919 27.9885 321.659 26.3616 319.274 24.9778C326.73 35.5073 327.635 48.7942 322.273 59.9813Z" fill="#595959"/>
<path d="M285.296 85.5572C286.324 86.4865 287.67 86.9518 289.015 86.9518C290.361 86.9518 291.707 86.4872 292.734 85.5572C296.354 82.2799 298.431 77.6208 298.431 72.7737C298.431 67.9267 296.354 63.2675 292.734 59.9902C285.079 53.0605 272.147 53.0605 264.492 59.9902C262.438 61.8494 262.438 64.8639 264.492 66.7225C266.546 68.5817 269.875 68.5817 271.929 66.7225C275.426 63.5563 281.797 63.5557 285.297 66.7225C286.959 68.2275 287.912 70.4327 287.912 72.7731C287.912 75.1135 286.959 77.3193 285.296 78.8243C283.243 80.6842 283.243 83.6986 285.296 85.5572Z" fill="black"/>
<path d="M359 224.496C359 223.234 358.446 222.023 357.46 221.13L334.343 200.203C333.357 199.31 332.02 198.809 330.624 198.809C329.229 198.809 327.893 199.31 326.905 200.203L318.856 207.491L312.244 193.459L332.848 174.806C333.834 173.914 334.387 172.703 334.387 171.44C334.387 170.178 333.834 168.967 332.848 168.074L309.731 147.147C307.676 145.287 304.347 145.287 302.293 147.147L293.971 154.681L280.838 126.809C305.166 106.591 323.583 91.1133 329.72 85.5585C338.294 77.7966 343.043 67.3617 343.096 56.174C343.148 44.8999 338.398 34.3647 329.72 26.5083C321.041 18.6518 309.402 14.3246 296.951 14.3988C284.592 14.4465 273.065 18.7463 264.491 26.5083C259.636 30.904 240.976 49.1782 219.043 70.8059L188.138 58.8711L196.46 51.3364C198.514 49.4772 198.514 46.4627 196.46 44.6041L173.344 23.6753C172.357 22.7822 171.02 22.2807 169.625 22.2807C168.229 22.2807 166.893 22.7822 165.906 23.6753L145.302 42.3279L129.802 36.342L137.852 29.0537C138.838 28.1612 139.392 26.95 139.392 25.6875C139.392 24.425 138.838 23.2138 137.852 22.3213L114.736 1.39442C112.682 -0.464806 109.353 -0.464806 107.299 1.39442L86.9663 19.8001L61.0679 9.79871C59.0927 9.03508 56.8033 9.43752 55.286 10.8112L27.5462 35.9244C26.491 36.8797 25.9335 38.1968 26.0135 39.5463C26.0934 40.8958 26.8037 42.1508 27.9662 42.9982L77.7165 79.2686C79.9778 80.9177 83.288 80.594 85.111 78.5469C86.9327 76.4991 86.5758 73.5024 84.3131 71.8533L78.8187 67.8473L86.2357 61.1328C88.2895 59.2735 88.2895 56.259 86.2357 54.4004C84.1813 52.5412 80.8521 52.5412 78.7984 54.4004L70.58 61.8399L39.1247 38.9077L60.2103 19.8191L211.502 78.2441C194.429 95.0997 176.162 113.196 161.274 127.961L124.256 100.973L131.679 94.2529C133.732 92.3937 133.732 89.3792 131.679 87.5206C129.624 85.6613 126.295 85.6613 124.241 87.5206L116.017 94.9657L103.47 85.8181C101.207 84.1684 97.8976 84.4921 96.0753 86.5399C94.2536 88.5876 94.6105 91.5843 96.8732 93.2335L154.172 135.007C140.997 148.08 131.682 157.338 130.36 158.653C128.404 160.597 128.56 163.608 130.707 165.378C132.854 167.149 136.18 167.008 138.136 165.064C139.342 163.866 258.857 45.0732 271.929 33.2393C274.233 31.1535 276.81 29.4282 279.56 28.0469L328.038 71.9333C326.487 74.4374 324.566 76.7581 322.283 78.8249C315.996 84.5169 296.613 100.791 271.143 121.944C271.117 121.965 271.093 121.987 271.067 122.008C205.687 176.308 100.278 262.699 73.1855 284.889C72.4668 285.48 71.3632 285.454 70.6746 284.83L61.2418 276.291L103.179 238.325C105.233 236.466 105.233 233.452 103.179 231.593C101.124 229.734 97.7952 229.734 95.7415 231.593L53.8051 269.558L44.3702 261.019C43.683 260.396 43.6543 259.398 44.3056 258.745C55.7572 247.287 86.2098 216.83 121.574 181.569C123.526 179.622 123.366 176.611 121.216 174.844C119.064 173.077 115.74 173.221 113.787 175.168C100.287 188.63 87.5062 201.386 76.2209 212.657L21.5372 200.515C19.7506 200.118 17.8666 200.595 16.5652 201.773L1.53977 215.376C0.553926 216.268 0 217.479 0 218.742C0 220.004 0.553926 221.215 1.53977 222.108L35.8074 253.129C32.1312 257.533 32.5414 263.776 36.9335 267.752L46.3664 276.291L37.9488 283.912C35.8951 285.771 35.8951 288.785 37.9488 290.644C38.976 291.573 40.3223 292.039 41.6678 292.039C43.0134 292.039 44.3596 291.574 45.3869 290.644L53.8044 283.024L63.2366 291.563C65.6437 293.742 68.8018 294.839 71.9662 294.839C74.5766 294.839 77.1906 294.089 79.3902 292.584L113.656 323.604C114.683 324.533 116.029 324.999 117.375 324.999C118.721 324.999 120.067 324.534 121.094 323.604L136.12 310.001C137.42 308.824 137.946 307.117 137.508 305.501L124.095 255.996C148.742 235.772 179.579 210.441 209.897 185.46L256.012 237.3C257.051 238.468 258.574 239.074 260.112 239.074C261.269 239.074 262.435 238.73 263.406 238.021C265.669 236.372 266.025 233.376 264.204 231.328L254.099 219.968L262.323 212.523C264.377 210.664 264.377 207.649 262.323 205.791C260.269 203.931 256.94 203.931 254.886 205.791L247.465 212.509L217.689 179.037C237.042 163.082 255.941 147.468 272.62 133.631L337.107 270.489L316.021 289.578L290.69 261.101L298.91 253.66C300.963 251.801 300.963 248.786 298.91 246.928C296.855 245.069 293.526 245.069 291.472 246.928L284.055 253.642L279.631 248.668C277.809 246.621 274.499 246.296 272.236 247.947C269.974 249.596 269.617 252.592 271.438 254.64L311.503 299.679C312.44 300.732 313.826 301.375 315.317 301.447C315.412 301.452 315.506 301.454 315.599 301.454C316.989 301.454 318.329 300.954 319.318 300.059L347.058 274.946C348.576 273.572 349.019 271.5 348.177 269.712L337.129 246.266L357.461 227.86C358.446 226.97 359 225.759 359 224.496ZM169.625 33.7744L185.304 47.969L177.711 54.8435L155.729 46.3548L169.625 33.7744ZM111.017 11.4929L126.697 25.6875L119.375 32.3157L97.3935 23.827L111.017 11.4929ZM290.53 24.5126C301.741 22.6743 313.82 25.5796 322.282 33.2399C328.962 39.2873 332.618 47.4174 332.578 56.1327C332.569 58.1367 332.358 60.1057 331.969 62.0271L290.53 24.5126ZM21.9088 210.401L68.1918 220.679C57.8474 231.014 49.1479 239.712 42.8353 246.026L12.6954 218.742L21.9088 210.401ZM126.587 305.166L117.374 313.506L87.2349 286.221C94.349 280.392 103.943 272.528 115.234 263.266L126.587 305.166ZM306.012 157.245L321.692 171.44L307.796 184.019L298.419 164.119L306.012 157.245ZM332.68 236.83L323.303 216.93L330.624 210.302L346.304 224.496L332.68 236.83Z" fill="black"/>
</svg>
