<svg width="1004" height="895" viewBox="0 0 1004 895" fill="none" xmlns="http://www.w3.org/2000/svg">
<rect width="1004" height="895" fill="#FDB94C"/>
<g clip-path="url(#clip0)">
<path fill-rule="evenodd" clip-rule="evenodd" d="M338.319 318.861V254.241V218.588V188.31C338.319 183.569 334.153 179.68 329.073 179.68H307.046H230.238H208.212C203.132 179.68 198.966 183.568 198.966 188.31V318.862H338.319V318.861ZM297.942 224.214H239.342C233.22 224.214 228.219 219.545 228.219 213.831C228.219 208.117 233.22 203.434 239.342 203.434H297.942C304.064 203.434 309.065 208.117 309.065 213.831C309.065 219.545 304.064 224.214 297.942 224.214Z" fill="#A0C8FF"/>
<path fill-rule="evenodd" clip-rule="evenodd" d="M309.066 213.831C309.066 208.117 304.065 203.434 297.943 203.434H239.342C233.22 203.434 228.219 208.117 228.219 213.831C228.219 219.545 233.22 224.214 239.342 224.214H297.942C304.064 224.214 309.066 219.545 309.066 213.831Z" fill="white"/>
<path fill-rule="evenodd" clip-rule="evenodd" d="M444.583 372.805V254.241H428.458H338.319V318.861V337.108C338.319 341.865 334.153 345.752 329.073 345.752H322.194V360.92C322.194 367.459 316.467 372.805 309.461 372.805H311.244H444.583ZM385.053 275.241L412.633 286.919L403.213 306.284L375.649 294.606L385.053 275.241ZM380.951 326.961C388.145 326.961 393.968 332.41 393.968 339.125C393.968 345.825 388.146 351.274 380.951 351.274C373.756 351.274 367.918 345.825 367.918 339.125C367.918 332.41 373.756 326.961 380.951 326.961Z" fill="#FFCD69"/>
<path fill-rule="evenodd" clip-rule="evenodd" d="M338.319 337.107V318.861H198.966V337.107C198.966 341.864 203.132 345.752 208.212 345.752H215.091H240.541H296.743H322.193H329.072C334.153 345.752 338.319 341.864 338.319 337.107Z" fill="#DFEDFF"/>
<path fill-rule="evenodd" clip-rule="evenodd" d="M322.193 360.92V345.752H296.743V360.92C296.743 367.459 302.47 372.805 309.46 372.805C316.466 372.805 322.193 367.459 322.193 360.92Z" fill="#89A7BC"/>
<path fill-rule="evenodd" clip-rule="evenodd" d="M240.542 360.92V345.752H215.092V360.92C215.092 367.459 220.819 372.805 227.824 372.805C234.814 372.805 240.542 367.459 240.542 360.92Z" fill="#89A7BC"/>
<path fill-rule="evenodd" clip-rule="evenodd" d="M470.034 359.256V267.789C470.034 260.338 463.501 254.241 455.534 254.241H444.583V372.805H455.534C463.501 372.805 470.034 366.708 470.034 359.256Z" fill="#FFE6B4"/>
<path fill-rule="evenodd" clip-rule="evenodd" d="M412.633 286.919L385.053 275.241L375.649 294.606L403.213 306.285L412.633 286.919Z" fill="#DFEDFF"/>
<path fill-rule="evenodd" clip-rule="evenodd" d="M393.968 339.125C393.968 332.41 388.146 326.961 380.951 326.961C373.756 326.961 367.918 332.41 367.918 339.125C367.918 345.825 373.756 351.274 380.951 351.274C388.146 351.274 393.968 345.825 393.968 339.125Z" fill="#D5EA7A"/>
<path d="M455.534 249.046H434.025V235.008C434.025 227.125 427.153 220.711 418.708 220.711H343.884V188.31C343.884 180.687 337.239 174.485 329.072 174.485H312.613V131.215C312.613 120.62 303.378 112 292.026 112H245.259C233.907 112 224.672 120.62 224.672 131.215V174.485H208.212C200.045 174.485 193.401 180.687 193.401 188.31V240.206C193.401 243.076 195.893 245.402 198.967 245.402C202.041 245.402 204.533 243.076 204.533 240.206V188.31C204.533 186.448 206.218 184.875 208.212 184.875H329.072C331.067 184.875 332.752 186.448 332.752 188.31V313.666H204.533V286.875C204.533 284.006 202.041 281.68 198.967 281.68C195.893 281.68 193.401 284.006 193.401 286.875V337.108C193.401 344.739 200.045 350.947 208.212 350.947H209.525V360.92C209.525 370.338 217.734 378 227.824 378C237.906 378 246.108 370.338 246.108 360.92V350.947H291.177V360.92C291.177 370.338 299.379 378 309.461 378H455.534C466.598 378 475.6 369.591 475.6 359.256V267.789C475.599 257.454 466.598 249.046 455.534 249.046ZM301.48 174.485H235.805V131.215C235.805 126.349 240.046 122.391 245.259 122.391H292.026C297.239 122.391 301.48 126.349 301.48 131.215V174.485ZM343.884 231.103H418.708C421.015 231.103 422.892 232.855 422.892 235.008V249.046H343.884V231.103ZM234.975 360.92C234.975 364.609 231.768 367.609 227.824 367.609C223.873 367.609 220.658 364.609 220.658 360.92V350.947H234.975V360.92ZM208.212 340.557C206.218 340.557 204.533 338.977 204.533 337.108V324.057H332.752V337.108C332.752 338.977 331.067 340.557 329.073 340.557H208.212ZM316.627 360.92C316.627 364.609 313.412 367.609 309.461 367.609C305.517 367.609 302.309 364.609 302.309 360.92V350.947H316.627V360.92ZM439.017 367.609H326.296C327.237 365.554 327.76 363.293 327.76 360.92V350.947H329.072C337.24 350.947 343.884 344.739 343.884 337.108V259.436H439.017V367.609H439.017ZM464.467 359.256C464.467 363.863 460.459 367.609 455.533 367.609H450.149V259.436H455.533C460.459 259.436 464.467 263.183 464.467 267.789V359.256Z" fill="black"/>
<path d="M233.789 239.797C230.715 239.797 228.222 242.123 228.222 244.993C228.222 247.862 230.715 250.188 233.789 250.188H303.512C306.586 250.188 309.078 247.862 309.078 244.993C309.078 242.123 306.586 239.797 303.512 239.797H233.789Z" fill="black"/>
<path d="M314.632 213.831C314.632 205.234 307.146 198.239 297.943 198.239H239.343C230.14 198.239 222.653 205.234 222.653 213.831C222.653 222.421 230.14 229.409 239.343 229.409H297.942C307.145 229.409 314.632 222.421 314.632 213.831ZM297.942 219.018H239.343C236.279 219.018 233.786 216.691 233.786 213.831C233.786 210.963 236.279 208.63 239.343 208.63H297.942C301.006 208.63 303.499 210.963 303.499 213.831C303.5 216.691 301.006 219.018 297.942 219.018Z" fill="black"/>
<path d="M373.348 299.337L400.913 311.015C401.659 311.331 402.441 311.481 403.211 311.481C405.328 311.481 407.351 310.348 408.282 308.432L417.702 289.066C418.312 287.811 418.363 286.382 417.844 285.091C417.325 283.801 416.278 282.756 414.933 282.187L387.353 270.509C386.008 269.94 384.476 269.892 383.094 270.378C381.712 270.863 380.593 271.84 379.983 273.096L370.579 292.461C369.311 295.075 370.55 298.152 373.348 299.337ZM387.824 282.119L405.263 289.503L400.446 299.406L383.016 292.022L387.824 282.119Z" fill="black"/>
<path d="M380.951 356.47C391.197 356.47 399.534 348.689 399.534 339.125C399.534 329.553 391.197 321.765 380.951 321.765C370.695 321.765 362.352 329.553 362.352 339.125C362.352 348.689 370.695 356.47 380.951 356.47ZM380.951 332.156C385.059 332.156 388.401 335.282 388.401 339.125C388.401 342.96 385.059 346.079 380.951 346.079C376.834 346.079 373.484 342.96 373.484 339.125C373.484 335.282 376.834 332.156 380.951 332.156Z" fill="black"/>
<path d="M198.967 268.744C202.041 268.744 204.533 266.403 204.533 263.534C204.533 260.664 202.041 258.338 198.967 258.338C195.893 258.338 193.401 260.664 193.401 263.534V263.563C193.401 266.432 195.893 268.744 198.967 268.744Z" fill="black"/>
</g>
<g clip-path="url(#clip1)">
<path d="M827.913 183.662C837.409 186.334 843.045 196.581 840.5 206.551L787.515 414.144C784.971 424.113 775.209 430.03 765.713 427.358L662.542 398.336C653.045 395.665 647.41 385.417 649.955 375.448L702.94 167.856C705.484 157.886 715.246 151.969 724.742 154.641L827.913 183.662Z" fill="#F5F9EC"/>
<path d="M748.066 211.203H691.875L649.955 375.448C647.41 385.417 653.047 395.665 662.543 398.336L765.713 427.356C775.209 430.028 784.971 424.113 787.515 414.143L820.031 286.751L748.066 211.203Z" fill="#E4E8DB"/>
<path d="M827.913 183.662C837.409 186.334 843.045 196.581 840.5 206.551L817.463 296.809L679.904 258.114L702.941 167.856C705.485 157.887 715.247 151.97 724.743 154.642L827.913 183.662Z" fill="#DCC69F"/>
<path d="M710.136 392.361L726.26 329.184L717.663 326.765L701.539 389.942L710.136 392.361Z" fill="#C8BEB2"/>
<path d="M730.87 311.143L735.477 293.093L726.88 290.675L722.273 308.725L730.87 311.143Z" fill="#C8BEB2"/>
<path d="M756.68 318.372L761.287 300.322L752.69 297.904L748.083 315.954L756.68 318.372Z" fill="#C8BEB2"/>
<path d="M782.451 325.639L787.057 307.588L778.46 305.17L773.853 323.22L782.451 325.639Z" fill="#C8BEB2"/>
<path d="M735.91 399.622L752.034 336.445L743.437 334.027L727.313 397.204L735.91 399.622Z" fill="#C8BEB2"/>
<path d="M761.735 406.889L777.859 343.712L769.262 341.294L753.137 404.471L761.735 406.889Z" fill="#C8BEB2"/>
<path d="M797.511 194.458L790.142 192.385L763.821 218.148C756.923 216.208 749.184 214.031 747.855 213.657C742.942 212.275 737.371 213.472 736.713 216.05C736.055 218.629 740.309 222.59 745.222 223.972C746.551 224.346 754.29 226.522 761.188 228.463L771.712 264.591L779.082 266.664L778.382 233.3C783.223 234.662 788.164 236.052 791.403 236.963L797.125 247.555L802.037 248.937L801.193 234.188L808.949 221.859L804.036 220.477L794.037 226.647C790.798 225.736 785.857 224.346 781.016 222.985L797.511 194.458Z" fill="#F5F9EC"/>
<path d="M679.904 258.113L817.465 296.808L820.03 286.752L748.066 211.203H691.877L679.904 258.113Z" fill="#CDB994"/>
<path d="M747.855 213.657C742.942 212.275 737.37 213.472 736.714 216.05C736.056 218.629 740.308 222.591 745.224 223.973C746.551 224.347 754.29 226.524 761.187 228.464L771.713 264.592L779.082 266.665L778.593 243.25L751.336 214.637C749.607 214.15 748.322 213.789 747.855 213.657Z" fill="#E4E8DB"/>
<path d="M733.341 157.06L671.141 400.755L662.543 398.337C653.047 395.666 647.411 385.418 649.956 375.448L702.941 167.856C705.486 157.886 715.247 151.969 724.744 154.641L733.341 157.06Z" fill="#EA672C"/>
<path d="M752.103 391.196C752.103 401.517 744.133 409.885 734.302 409.885H600.789C595.873 409.885 591.888 405.701 591.888 400.54V213.657C591.888 208.496 595.873 204.313 600.789 204.313H734.302C744.133 204.313 752.103 212.68 752.103 223.001V391.196Z" fill="#125D9D"/>
<path d="M671.996 232.346C642.501 232.346 618.591 257.447 618.591 288.411C618.591 319.374 642.501 344.475 671.996 344.475C701.49 344.475 725.401 319.374 725.401 288.411C725.401 257.447 701.491 232.346 671.996 232.346ZM711.519 267.386H692.273C690.432 257.703 687.557 249.877 684.621 243.839C696.382 247.523 706.037 256.085 711.519 267.386ZM685.347 288.411C685.347 292.582 685.049 296.413 684.641 300.091H659.353C658.942 296.413 658.644 292.581 658.644 288.411C658.644 284.238 658.937 280.407 659.344 276.73H684.649C685.054 280.407 685.347 284.238 685.347 288.411ZM660.829 267.386C663.3 255.677 667.376 247.171 670.701 241.826C671.14 241.813 671.553 241.69 671.996 241.69C672.444 241.69 672.858 241.815 673.304 241.829C676.644 247.208 680.705 255.718 683.165 267.386H660.829ZM659.371 243.839C656.446 249.864 653.568 257.699 651.726 267.386H632.472C637.955 256.085 647.61 247.526 659.371 243.839ZM629.072 276.73H650.374C650.002 280.431 649.744 284.279 649.744 288.411C649.744 292.544 650.009 296.388 650.387 300.091H629.071C628.141 296.336 627.491 292.467 627.491 288.411C627.492 284.355 628.142 280.485 629.072 276.73ZM632.472 309.435H651.748C653.608 319.139 656.487 327.033 659.358 332.978C647.604 329.291 637.953 320.732 632.472 309.435ZM670.701 334.995C667.511 329.844 663.356 321.315 660.84 309.435H683.153C680.641 321.307 676.49 329.832 673.29 334.995C672.851 335.008 672.44 335.131 671.997 335.131C671.554 335.131 671.142 335.009 670.701 334.995ZM684.639 332.978C687.514 327.027 690.391 319.14 692.247 309.435H711.52C706.039 320.731 696.391 329.289 684.639 332.978ZM714.921 300.091H693.607C693.983 296.388 694.248 292.544 694.248 288.411C694.248 284.279 693.991 280.431 693.62 276.73H714.92C715.85 280.485 716.5 284.354 716.5 288.411C716.5 292.467 715.85 296.336 714.921 300.091Z" fill="#E7BE29"/>
<path d="M624.433 381.861V368.484H629.24C630.086 368.484 630.732 368.526 631.178 368.612C631.804 368.722 632.328 368.93 632.751 369.237C633.174 369.544 633.514 369.975 633.772 370.528C634.03 371.082 634.159 371.69 634.159 372.353C634.159 373.491 633.814 374.454 633.125 375.241C632.435 376.029 631.189 376.422 629.387 376.422H626.119V381.861H624.433ZM626.119 374.844H629.413C630.502 374.844 631.276 374.631 631.734 374.205C632.192 373.779 632.421 373.18 632.421 372.407C632.421 371.848 632.286 371.369 632.016 370.97C631.747 370.572 631.391 370.308 630.951 370.18C630.667 370.102 630.143 370.062 629.378 370.062H626.119V374.844V374.844Z" fill="white"/>
<path d="M633.585 381.861L638.479 368.484H640.296L645.511 381.861H643.591L642.104 377.809H636.776L635.376 381.861H633.585ZM637.262 376.367H641.582L640.252 372.662C639.847 371.537 639.545 370.613 639.348 369.888C639.186 370.746 638.957 371.598 638.662 372.443L637.262 376.367Z" fill="white"/>
<path d="M646.285 377.564L647.875 377.418C647.95 378.087 648.126 378.636 648.401 379.065C648.676 379.493 649.104 379.84 649.683 380.105C650.263 380.369 650.914 380.502 651.639 380.502C652.282 380.502 652.85 380.402 653.343 380.201C653.835 380 654.202 379.725 654.443 379.375C654.683 379.025 654.803 378.644 654.803 378.23C654.803 377.81 654.688 377.444 654.456 377.13C654.224 376.817 653.842 376.554 653.308 376.34C652.966 376.201 652.21 375.984 651.039 375.688C649.869 375.393 649.049 375.115 648.579 374.853C647.971 374.519 647.517 374.104 647.219 373.607C646.921 373.111 646.771 372.557 646.771 371.942C646.771 371.266 646.954 370.636 647.319 370.048C647.684 369.461 648.217 369.016 648.918 368.711C649.619 368.407 650.399 368.255 651.256 368.255C652.201 368.255 653.034 368.415 653.755 368.734C654.477 369.054 655.031 369.524 655.42 370.144C655.808 370.765 656.017 371.467 656.046 372.252L654.429 372.38C654.342 371.535 654.048 370.896 653.547 370.463C653.045 370.032 652.305 369.816 651.326 369.816C650.306 369.816 649.563 370.012 649.096 370.404C648.63 370.797 648.396 371.27 648.396 371.824C648.396 372.304 648.562 372.7 648.892 373.01C649.216 373.32 650.064 373.638 651.434 373.963C652.805 374.289 653.745 374.574 654.255 374.817C654.996 375.176 655.544 375.631 655.898 376.181C656.251 376.732 656.428 377.366 656.428 378.084C656.428 378.796 656.234 379.466 655.845 380.096C655.457 380.725 654.899 381.215 654.172 381.565C653.444 381.915 652.626 382.089 651.716 382.089C650.563 382.089 649.597 381.912 648.818 381.56C648.038 381.207 647.427 380.677 646.983 379.968C646.541 379.26 646.308 378.458 646.285 377.564Z" fill="white"/>
<path d="M658.158 377.564L659.749 377.418C659.824 378.087 659.999 378.636 660.275 379.065C660.55 379.493 660.977 379.84 661.557 380.105C662.137 380.369 662.788 380.502 663.513 380.502C664.156 380.502 664.724 380.402 665.217 380.201C665.709 380 666.076 379.725 666.317 379.375C666.557 379.025 666.677 378.644 666.677 378.23C666.677 377.81 666.561 377.444 666.329 377.13C666.097 376.817 665.715 376.554 665.182 376.34C664.84 376.201 664.084 375.984 662.913 375.688C661.743 375.393 660.923 375.115 660.453 374.853C659.845 374.519 659.391 374.104 659.093 373.607C658.794 373.111 658.645 372.557 658.645 371.942C658.645 371.266 658.828 370.636 659.193 370.048C659.558 369.461 660.09 369.016 660.792 368.711C661.493 368.407 662.272 368.255 663.13 368.255C664.075 368.255 664.907 368.415 665.629 368.734C666.351 369.054 666.905 369.524 667.293 370.144C667.682 370.765 667.89 371.467 667.919 372.252L666.303 372.38C666.216 371.535 665.922 370.896 665.42 370.463C664.919 370.032 664.179 369.816 663.2 369.816C662.18 369.816 661.437 370.012 660.97 370.404C660.503 370.797 660.27 371.27 660.27 371.824C660.27 372.304 660.435 372.7 660.766 373.01C661.09 373.32 661.937 373.638 663.308 373.963C664.678 374.289 665.618 374.574 666.129 374.817C666.87 375.176 667.418 375.631 667.771 376.181C668.125 376.732 668.301 377.366 668.301 378.084C668.301 378.796 668.107 379.466 667.719 380.096C667.331 380.725 666.773 381.215 666.046 381.565C665.318 381.915 664.5 382.089 663.59 382.089C662.437 382.089 661.471 381.912 660.691 381.56C659.912 381.207 659.301 380.677 658.857 379.968C658.415 379.26 658.181 378.458 658.158 377.564Z" fill="white"/>
<path d="M670.606 381.861V368.484H675.413C676.259 368.484 676.905 368.526 677.351 368.612C677.977 368.722 678.501 368.93 678.924 369.237C679.347 369.544 679.687 369.975 679.945 370.528C680.203 371.082 680.332 371.69 680.332 372.353C680.332 373.491 679.987 374.454 679.298 375.241C678.608 376.029 677.363 376.422 675.56 376.422H672.292V381.861H670.606ZM672.292 374.844H675.586C676.675 374.844 677.449 374.631 677.907 374.205C678.365 373.779 678.594 373.18 678.594 372.407C678.594 371.848 678.459 371.369 678.189 370.97C677.92 370.572 677.564 370.308 677.124 370.18C676.84 370.102 676.316 370.062 675.551 370.062H672.292V374.844Z" fill="white"/>
<path d="M681.966 375.346C681.966 373.126 682.534 371.388 683.67 370.131C684.806 368.875 686.272 368.246 688.069 368.246C689.245 368.246 690.305 368.542 691.25 369.132C692.195 369.722 692.914 370.545 693.41 371.6C693.906 372.656 694.153 373.853 694.153 375.191C694.153 376.548 693.892 377.761 693.371 378.832C692.849 379.903 692.111 380.713 691.155 381.263C690.199 381.814 689.167 382.089 688.06 382.089C686.861 382.089 685.789 381.785 684.844 381.176C683.9 380.568 683.184 379.738 682.697 378.685C682.21 377.634 681.966 376.521 681.966 375.346ZM683.705 375.374C683.705 376.986 684.118 378.256 684.944 379.183C685.769 380.111 686.805 380.575 688.051 380.575C689.32 380.575 690.365 380.107 691.185 379.17C692.005 378.233 692.415 376.904 692.415 375.182C692.415 374.094 692.24 373.143 691.889 372.33C691.539 371.518 691.026 370.888 690.35 370.442C689.675 369.994 688.917 369.771 688.077 369.771C686.884 369.771 685.857 370.202 684.996 371.063C684.135 371.923 683.705 373.361 683.705 375.374Z" fill="white"/>
<path d="M696.352 381.861V368.484H702.002C703.138 368.484 704.001 368.604 704.592 368.844C705.183 369.085 705.655 369.509 706.009 370.117C706.362 370.726 706.539 371.398 706.539 372.134C706.539 373.083 706.246 373.883 705.661 374.534C705.076 375.185 704.172 375.598 702.949 375.775C703.395 376 703.734 376.222 703.966 376.441C704.458 376.916 704.925 377.509 705.366 378.22L707.582 381.861H705.461L703.775 379.078C703.282 378.275 702.876 377.66 702.557 377.235C702.239 376.809 701.953 376.511 701.701 376.341C701.449 376.171 701.193 376.052 700.932 375.985C700.741 375.943 700.428 375.921 699.993 375.921H698.037V381.862H696.352V381.861ZM698.038 374.388H701.663C702.433 374.388 703.036 374.304 703.471 374.136C703.905 373.969 704.236 373.702 704.462 373.333C704.687 372.966 704.8 372.566 704.8 372.133C704.8 371.501 704.581 370.98 704.144 370.573C703.706 370.166 703.015 369.961 702.071 369.961H698.037V374.388H698.038Z" fill="white"/>
<path d="M712.102 381.861V370.062H707.904V368.484H718.004V370.062H713.789V381.861H712.102Z" fill="white"/>
</g>
<path d="M213.832 588H203.236V546.848H189.667V538.029H227.401V546.848H213.832V588ZM269.545 588H259.12V565.681C259.12 560.166 257.069 557.409 252.968 557.409C250.051 557.409 247.943 558.4 246.645 560.383C245.346 562.365 244.696 565.578 244.696 570.021V588H234.271V534.816H244.696V545.651C244.696 546.494 244.617 548.477 244.457 551.599L244.218 554.675H244.765C247.089 550.938 250.78 549.069 255.839 549.069C260.328 549.069 263.734 550.277 266.059 552.692C268.383 555.108 269.545 558.571 269.545 563.083V588ZM296.103 556.486C293.892 556.486 292.16 557.193 290.907 558.605C289.654 559.995 288.936 561.978 288.754 564.553H303.383C303.337 561.978 302.665 559.995 301.366 558.605C300.067 557.193 298.313 556.486 296.103 556.486ZM297.572 588.684C291.42 588.684 286.612 586.986 283.148 583.591C279.685 580.196 277.953 575.388 277.953 569.167C277.953 562.764 279.548 557.819 282.738 554.333C285.951 550.824 290.383 549.069 296.034 549.069C301.435 549.069 305.639 550.607 308.646 553.684C311.654 556.76 313.158 561.009 313.158 566.433V571.491H288.515C288.629 574.453 289.506 576.766 291.146 578.43C292.787 580.093 295.089 580.925 298.051 580.925C300.352 580.925 302.528 580.686 304.579 580.207C306.63 579.729 308.772 578.965 311.005 577.917V585.983C309.182 586.895 307.234 587.567 305.16 588C303.087 588.456 300.557 588.684 297.572 588.684ZM371.229 588L368.29 574.636L364.325 557.751H364.086L357.113 588H345.902L335.033 549.787H345.424L349.833 566.706C350.539 569.737 351.257 573.918 351.986 579.25H352.191C352.283 577.518 352.681 574.772 353.388 571.013L353.935 568.107L358.651 549.787H370.136L374.613 568.107C374.704 568.609 374.841 569.349 375.023 570.329C375.229 571.309 375.422 572.357 375.604 573.474C375.787 574.567 375.946 575.65 376.083 576.721C376.243 577.769 376.334 578.612 376.356 579.25H376.562C376.767 577.609 377.131 575.365 377.655 572.517C378.179 569.646 378.555 567.709 378.783 566.706L383.363 549.787H393.583L382.577 588H371.229ZM408.075 568.825C408.075 572.608 408.69 575.467 409.921 577.404C411.174 579.341 413.202 580.31 416.005 580.31C418.785 580.31 420.779 579.353 421.986 577.438C423.217 575.502 423.832 572.631 423.832 568.825C423.832 565.043 423.217 562.206 421.986 560.314C420.756 558.423 418.739 557.478 415.937 557.478C413.157 557.478 411.151 558.423 409.921 560.314C408.69 562.183 408.075 565.02 408.075 568.825ZM434.496 568.825C434.496 575.046 432.855 579.911 429.574 583.42C426.293 586.929 421.724 588.684 415.868 588.684C412.2 588.684 408.964 587.886 406.161 586.291C403.358 584.673 401.205 582.36 399.701 579.353C398.197 576.345 397.445 572.836 397.445 568.825C397.445 562.582 399.075 557.728 402.333 554.265C405.591 550.801 410.172 549.069 416.073 549.069C419.742 549.069 422.978 549.867 425.78 551.462C428.583 553.057 430.736 555.347 432.24 558.332C433.744 561.317 434.496 564.815 434.496 568.825ZM464.438 549.069C465.85 549.069 467.024 549.172 467.958 549.377L467.172 559.152C466.329 558.924 465.303 558.811 464.096 558.811C460.769 558.811 458.171 559.665 456.303 561.374C454.457 563.083 453.534 565.476 453.534 568.552V588H443.109V549.787H451.005L452.543 556.213H453.056C454.241 554.071 455.836 552.351 457.841 551.052C459.869 549.73 462.068 549.069 464.438 549.069ZM485.321 588H474.896V534.816H485.321V588ZM508.393 588.684C503.904 588.684 500.372 586.94 497.797 583.454C495.245 579.968 493.969 575.137 493.969 568.962C493.969 562.696 495.268 557.819 497.865 554.333C500.486 550.824 504.086 549.069 508.666 549.069C513.474 549.069 517.143 550.938 519.672 554.675H520.014C519.49 551.826 519.228 549.286 519.228 547.053V534.816H529.687V588H521.688L519.672 583.044H519.228C516.858 586.804 513.246 588.684 508.393 588.684ZM512.05 580.378C514.716 580.378 516.664 579.603 517.895 578.054C519.148 576.504 519.831 573.872 519.945 570.158V569.03C519.945 564.929 519.307 561.989 518.031 560.212C516.778 558.435 514.727 557.546 511.879 557.546C509.555 557.546 507.743 558.537 506.444 560.52C505.168 562.479 504.53 565.339 504.53 569.099C504.53 572.858 505.18 575.684 506.479 577.575C507.777 579.444 509.634 580.378 512.05 580.378ZM590.185 588L587.245 574.636L583.28 557.751H583.041L576.068 588H564.857L553.988 549.787H564.379L568.788 566.706C569.494 569.737 570.212 573.918 570.941 579.25H571.146C571.238 577.518 571.636 574.772 572.343 571.013L572.89 568.107L577.606 549.787H589.091L593.568 568.107C593.66 568.609 593.796 569.349 593.979 570.329C594.184 571.309 594.377 572.357 594.56 573.474C594.742 574.567 594.901 575.65 595.038 576.721C595.198 577.769 595.289 578.612 595.312 579.25H595.517C595.722 577.609 596.086 575.365 596.61 572.517C597.134 569.646 597.51 567.709 597.738 566.706L602.318 549.787H612.538L601.532 588H590.185ZM642.992 588L640.976 582.805H640.702C638.948 585.015 637.136 586.553 635.268 587.419C633.422 588.262 631.007 588.684 628.021 588.684C624.353 588.684 621.459 587.635 619.34 585.539C617.243 583.443 616.195 580.458 616.195 576.584C616.195 572.528 617.608 569.543 620.434 567.629C623.282 565.692 627.566 564.621 633.285 564.416L639.916 564.211V562.536C639.916 558.662 637.934 556.726 633.969 556.726C630.915 556.726 627.326 557.648 623.202 559.494L619.75 552.453C624.148 550.152 629.024 549.001 634.379 549.001C639.506 549.001 643.437 550.118 646.171 552.351C648.905 554.584 650.272 557.979 650.272 562.536V588H642.992ZM639.916 570.295L635.883 570.432C632.852 570.523 630.596 571.07 629.115 572.072C627.634 573.075 626.894 574.602 626.894 576.652C626.894 579.592 628.58 581.062 631.952 581.062C634.368 581.062 636.293 580.367 637.729 578.977C639.187 577.587 639.916 575.741 639.916 573.439V570.295ZM696.312 588H685.888V565.681C685.888 562.924 685.398 560.861 684.418 559.494C683.438 558.104 681.877 557.409 679.735 557.409C676.819 557.409 674.711 558.389 673.412 560.349C672.113 562.285 671.464 565.51 671.464 570.021V588H661.039V549.787H669.003L670.404 554.675H670.985C672.147 552.829 673.743 551.439 675.771 550.505C677.821 549.548 680.146 549.069 682.743 549.069C687.187 549.069 690.559 550.277 692.86 552.692C695.162 555.085 696.312 558.549 696.312 563.083V588ZM723.144 580.378C724.966 580.378 727.154 579.979 729.706 579.182V586.94C727.108 588.103 723.918 588.684 720.136 588.684C715.966 588.684 712.924 587.635 711.01 585.539C709.118 583.42 708.173 580.253 708.173 576.037V557.614H703.183V553.205L708.925 549.719L711.933 541.652H718.598V549.787H729.296V557.614H718.598V576.037C718.598 577.518 719.008 578.612 719.828 579.318C720.671 580.025 721.776 580.378 723.144 580.378ZM764.125 576.652C764.125 580.572 762.758 583.557 760.023 585.607C757.312 587.658 753.244 588.684 747.821 588.684C745.041 588.684 742.672 588.49 740.712 588.103C738.752 587.738 736.918 587.191 735.209 586.462V577.849C737.146 578.76 739.322 579.523 741.737 580.139C744.175 580.754 746.317 581.062 748.163 581.062C751.946 581.062 753.837 579.968 753.837 577.78C753.837 576.96 753.586 576.299 753.085 575.798C752.584 575.274 751.718 574.693 750.487 574.055C749.257 573.394 747.616 572.631 745.565 571.765C742.626 570.534 740.461 569.395 739.071 568.347C737.704 567.299 736.701 566.102 736.063 564.758C735.448 563.391 735.141 561.716 735.141 559.733C735.141 556.338 736.451 553.718 739.071 551.872C741.715 550.004 745.451 549.069 750.282 549.069C754.885 549.069 759.363 550.072 763.715 552.077L760.57 559.597C758.656 558.776 756.868 558.104 755.204 557.58C753.541 557.056 751.843 556.794 750.111 556.794C747.035 556.794 745.497 557.626 745.497 559.289C745.497 560.223 745.987 561.032 746.967 561.716C747.969 562.399 750.146 563.413 753.495 564.758C756.48 565.965 758.668 567.093 760.058 568.142C761.448 569.19 762.473 570.397 763.134 571.765C763.795 573.132 764.125 574.761 764.125 576.652ZM806.542 580.378C808.365 580.378 810.552 579.979 813.104 579.182V586.94C810.507 588.103 807.317 588.684 803.534 588.684C799.364 588.684 796.322 587.635 794.408 585.539C792.517 583.42 791.571 580.253 791.571 576.037V557.614H786.581V553.205L792.323 549.719L795.331 541.652H801.996V549.787H812.694V557.614H801.996V576.037C801.996 577.518 802.406 578.612 803.227 579.318C804.07 580.025 805.175 580.378 806.542 580.378ZM829.169 568.825C829.169 572.608 829.784 575.467 831.015 577.404C832.268 579.341 834.296 580.31 837.099 580.31C839.879 580.31 841.872 579.353 843.08 577.438C844.311 575.502 844.926 572.631 844.926 568.825C844.926 565.043 844.311 562.206 843.08 560.314C841.85 558.423 839.833 557.478 837.03 557.478C834.25 557.478 832.245 558.423 831.015 560.314C829.784 562.183 829.169 565.02 829.169 568.825ZM855.59 568.825C855.59 575.046 853.949 579.911 850.668 583.42C847.387 586.929 842.818 588.684 836.962 588.684C833.293 588.684 830.058 587.886 827.255 586.291C824.452 584.673 822.299 582.36 820.795 579.353C819.291 576.345 818.539 572.836 818.539 568.825C818.539 562.582 820.168 557.728 823.427 554.265C826.685 550.801 831.265 549.069 837.167 549.069C840.836 549.069 844.071 549.867 846.874 551.462C849.677 553.057 851.83 555.347 853.334 558.332C854.838 561.317 855.59 564.815 855.59 568.825ZM330.009 683H319.584V660.681C319.584 657.924 319.117 655.861 318.183 654.494C317.271 653.104 315.824 652.409 313.842 652.409C311.176 652.409 309.239 653.389 308.031 655.349C306.824 657.308 306.22 660.533 306.22 665.021V683H295.795V644.787H303.759L305.16 649.675H305.741C306.767 647.92 308.248 646.553 310.185 645.573C312.121 644.571 314.343 644.069 316.85 644.069C322.569 644.069 326.443 645.938 328.471 649.675H329.394C330.419 647.897 331.923 646.519 333.905 645.539C335.91 644.559 338.166 644.069 340.673 644.069C345.002 644.069 348.272 645.186 350.482 647.419C352.715 649.629 353.832 653.184 353.832 658.083V683H343.373V660.681C343.373 657.924 342.906 655.861 341.972 654.494C341.06 653.104 339.613 652.409 337.631 652.409C335.079 652.409 333.165 653.321 331.889 655.144C330.635 656.966 330.009 659.86 330.009 663.825V683ZM380.39 651.486C378.179 651.486 376.448 652.193 375.194 653.605C373.941 654.995 373.223 656.978 373.041 659.553H387.67C387.624 656.978 386.952 654.995 385.653 653.605C384.354 652.193 382.6 651.486 380.39 651.486ZM381.859 683.684C375.707 683.684 370.899 681.986 367.436 678.591C363.972 675.196 362.24 670.388 362.24 664.167C362.24 657.764 363.835 652.819 367.025 649.333C370.238 645.824 374.67 644.069 380.321 644.069C385.722 644.069 389.926 645.607 392.934 648.684C395.941 651.76 397.445 656.009 397.445 661.433V666.491H372.802C372.916 669.453 373.793 671.766 375.434 673.43C377.074 675.093 379.376 675.925 382.338 675.925C384.639 675.925 386.815 675.686 388.866 675.207C390.917 674.729 393.059 673.965 395.292 672.917V680.983C393.469 681.895 391.521 682.567 389.447 683C387.374 683.456 384.844 683.684 381.859 683.684ZM421.747 651.486C419.537 651.486 417.805 652.193 416.552 653.605C415.299 654.995 414.581 656.978 414.398 659.553H429.027C428.982 656.978 428.31 654.995 427.011 653.605C425.712 652.193 423.957 651.486 421.747 651.486ZM423.217 683.684C417.064 683.684 412.257 681.986 408.793 678.591C405.329 675.196 403.598 670.388 403.598 664.167C403.598 657.764 405.193 652.819 408.383 649.333C411.596 645.824 416.028 644.069 421.679 644.069C427.079 644.069 431.283 645.607 434.291 648.684C437.299 651.76 438.803 656.009 438.803 661.433V666.491H414.159C414.273 669.453 415.15 671.766 416.791 673.43C418.432 675.093 420.733 675.925 423.695 675.925C425.997 675.925 428.173 675.686 430.224 675.207C432.274 674.729 434.416 673.965 436.649 672.917V680.983C434.826 681.895 432.878 682.567 430.805 683C428.731 683.456 426.202 683.684 423.217 683.684ZM463.378 675.378C465.201 675.378 467.388 674.979 469.94 674.182V681.94C467.343 683.103 464.153 683.684 460.37 683.684C456.2 683.684 453.158 682.635 451.244 680.539C449.353 678.42 448.407 675.253 448.407 671.037V652.614H443.417V648.205L449.159 644.719L452.167 636.652H458.832V644.787H469.53V652.614H458.832V671.037C458.832 672.518 459.242 673.612 460.062 674.318C460.906 675.025 462.011 675.378 463.378 675.378ZM490.414 644.787H501.83L509.042 666.286C509.657 668.155 510.079 670.365 510.307 672.917H510.512C510.762 670.57 511.252 668.36 511.981 666.286L519.057 644.787H530.233L514.066 687.888C512.585 691.875 510.466 694.86 507.709 696.843C504.975 698.825 501.773 699.816 498.104 699.816C496.304 699.816 494.538 699.623 492.807 699.235V690.964C494.06 691.26 495.427 691.408 496.908 691.408C498.754 691.408 500.36 690.839 501.728 689.699C503.118 688.583 504.2 686.885 504.975 684.606L505.59 682.727L490.414 644.787ZM544.042 663.825C544.042 667.608 544.657 670.467 545.888 672.404C547.141 674.341 549.169 675.31 551.972 675.31C554.752 675.31 556.745 674.353 557.953 672.438C559.184 670.502 559.799 667.631 559.799 663.825C559.799 660.043 559.184 657.206 557.953 655.314C556.723 653.423 554.706 652.478 551.903 652.478C549.123 652.478 547.118 653.423 545.888 655.314C544.657 657.183 544.042 660.02 544.042 663.825ZM570.463 663.825C570.463 670.046 568.822 674.911 565.541 678.42C562.26 681.929 557.691 683.684 551.835 683.684C548.166 683.684 544.931 682.886 542.128 681.291C539.325 679.673 537.172 677.36 535.668 674.353C534.164 671.345 533.412 667.836 533.412 663.825C533.412 657.582 535.041 652.728 538.3 649.265C541.558 645.801 546.138 644.069 552.04 644.069C555.709 644.069 558.944 644.867 561.747 646.462C564.55 648.057 566.703 650.347 568.207 653.332C569.711 656.317 570.463 659.815 570.463 663.825ZM606.146 683L604.745 678.112H604.198C603.082 679.89 601.498 681.268 599.447 682.248C597.396 683.205 595.061 683.684 592.44 683.684C587.951 683.684 584.568 682.487 582.289 680.095C580.01 677.679 578.871 674.216 578.871 669.704V644.787H589.296V667.106C589.296 669.864 589.786 671.937 590.766 673.327C591.745 674.694 593.306 675.378 595.448 675.378C598.365 675.378 600.473 674.41 601.771 672.473C603.07 670.513 603.72 667.277 603.72 662.766V644.787H614.145V683H606.146ZM659.364 675.378C661.187 675.378 663.375 674.979 665.927 674.182V681.94C663.329 683.103 660.139 683.684 656.356 683.684C652.187 683.684 649.145 682.635 647.23 680.539C645.339 678.42 644.394 675.253 644.394 671.037V652.614H639.403V648.205L645.146 644.719L648.153 636.652H654.818V644.787H665.517V652.614H654.818V671.037C654.818 672.518 655.229 673.612 656.049 674.318C656.892 675.025 657.997 675.378 659.364 675.378ZM681.991 663.825C681.991 667.608 682.606 670.467 683.837 672.404C685.09 674.341 687.118 675.31 689.921 675.31C692.701 675.31 694.695 674.353 695.902 672.438C697.133 670.502 697.748 667.631 697.748 663.825C697.748 660.043 697.133 657.206 695.902 655.314C694.672 653.423 692.655 652.478 689.853 652.478C687.073 652.478 685.067 653.423 683.837 655.314C682.606 657.183 681.991 660.02 681.991 663.825ZM708.412 663.825C708.412 670.046 706.771 674.911 703.49 678.42C700.209 681.929 695.64 683.684 689.784 683.684C686.116 683.684 682.88 682.886 680.077 681.291C677.274 679.673 675.121 677.36 673.617 674.353C672.113 671.345 671.361 667.836 671.361 663.825C671.361 657.582 672.991 652.728 676.249 649.265C679.507 645.801 684.088 644.069 689.989 644.069C693.658 644.069 696.894 644.867 699.696 646.462C702.499 648.057 704.652 650.347 706.156 653.332C707.66 656.317 708.412 659.815 708.412 663.825ZM725.331 663.825C725.331 667.608 725.946 670.467 727.177 672.404C728.43 674.341 730.458 675.31 733.261 675.31C736.041 675.31 738.035 674.353 739.242 672.438C740.473 670.502 741.088 667.631 741.088 663.825C741.088 660.043 740.473 657.206 739.242 655.314C738.012 653.423 735.995 652.478 733.192 652.478C730.412 652.478 728.407 653.423 727.177 655.314C725.946 657.183 725.331 660.02 725.331 663.825ZM751.752 663.825C751.752 670.046 750.111 674.911 746.83 678.42C743.549 681.929 738.98 683.684 733.124 683.684C729.455 683.684 726.22 682.886 723.417 681.291C720.614 679.673 718.461 677.36 716.957 674.353C715.453 671.345 714.701 667.836 714.701 663.825C714.701 657.582 716.33 652.728 719.589 649.265C722.847 645.801 727.427 644.069 733.329 644.069C736.998 644.069 740.233 644.867 743.036 646.462C745.839 648.057 747.992 650.347 749.496 653.332C751 656.317 751.752 659.815 751.752 663.825ZM758.896 678.112C758.896 676.198 759.408 674.751 760.434 673.771C761.459 672.792 762.951 672.302 764.911 672.302C766.802 672.302 768.261 672.803 769.286 673.806C770.334 674.808 770.858 676.244 770.858 678.112C770.858 679.912 770.334 681.337 769.286 682.385C768.238 683.41 766.78 683.923 764.911 683.923C762.997 683.923 761.516 683.422 760.468 682.419C759.42 681.394 758.896 679.958 758.896 678.112Z" fill="white"/>
<defs>
<clipPath id="clip0">
<rect width="285" height="266" fill="white" transform="translate(192 112)"/>
</clipPath>
<clipPath id="clip1">
<rect width="261" height="274" fill="white" transform="translate(586 154)"/>
</clipPath>
</defs>
</svg>
