<svg width="379" height="379" viewBox="0 0 379 379" fill="none" xmlns="http://www.w3.org/2000/svg">
<path d="M189.12 0.182445C111.659 0.182445 38.1014 -6.70822 10.0054 65.3984C-1.59996 95.1798 0.0853743 133.857 0.0853743 189.238C0.0853743 237.836 -1.47196 283.51 10.0054 313.057C38.0374 385.206 112.192 378.294 189.077 378.294C263.253 378.294 339.733 386.017 368.171 313.057C379.797 282.977 378.091 244.876 378.091 189.238C378.091 115.382 382.165 67.7024 346.347 31.9051C310.08 -4.36156 261.035 0.182445 189.035 0.182445H189.12ZM172.181 34.2518C333.76 33.9958 354.325 16.0331 342.976 265.569C338.944 353.825 271.744 344.14 189.141 344.14C38.528 344.14 34.1974 339.83 34.1974 189.153C34.1974 36.7265 46.144 34.3371 172.181 34.2091V34.2518ZM290.027 65.6331C277.504 65.6331 267.349 75.7878 267.349 88.3104C267.349 100.833 277.504 110.988 290.027 110.988C302.549 110.988 312.704 100.833 312.704 88.3104C312.704 75.7878 302.549 65.6331 290.027 65.6331V65.6331ZM189.12 92.1504C135.509 92.1504 92.0534 135.628 92.0534 189.238C92.0534 242.849 135.509 286.305 189.12 286.305C242.731 286.305 286.165 242.849 286.165 189.238C286.165 135.628 242.731 92.1504 189.12 92.1504V92.1504ZM189.12 126.22C272.427 126.22 272.533 252.257 189.12 252.257C105.835 252.257 105.707 126.22 189.12 126.22Z" fill="white"/>
</svg>
