<svg width="512" height="512" viewBox="0 0 512 512" fill="none" xmlns="http://www.w3.org/2000/svg">
<g clip-path="url(#clip0)">
<path d="M160 234.667H10.667V490.667H160V234.667Z" fill="#EAB14D"/>
<path d="M160 501.333H10.667C4.776 501.333 0 496.558 0 490.667V234.667C0 228.776 4.776 224 10.667 224H160C165.891 224 170.667 228.776 170.667 234.667V490.667C170.667 496.558 165.891 501.333 160 501.333ZM21.333 480H149.333V245.333H21.333V480Z" fill="#01579B"/>
<path d="M160 448C178.59 461.606 200.965 469.064 224 469.333H421.333C441.904 469.405 458.639 452.787 458.711 432.215C458.747 421.872 454.481 411.979 446.933 404.906C467.303 402.705 482.033 384.407 479.832 364.037C478.876 355.189 474.771 346.98 468.267 340.906C488.64 338.729 503.391 320.448 501.213 300.075C499.876 287.567 492.292 276.588 481.067 270.911C501.085 258.479 507.234 232.173 494.802 212.155C487.039 199.655 473.382 192.037 458.667 191.999H309.333C321.052 161.2 328.238 128.863 330.666 95.999C330.666 55.999 295.999 21.332 277.333 21.332C265.821 21.5 254.643 25.226 245.333 31.999V106.666L181.333 245.333L160 256V448Z" fill="#ECEFF1"/>
<path d="M421.333 480H224C198.135 479.794 173.031 471.217 152.448 455.552C150.449 453.548 149.328 450.831 149.333 448V256C149.333 251.963 151.612 248.272 155.221 246.464L173.205 237.461L234.666 104.341V32C234.659 28.758 236.127 25.688 238.655 23.659C249.881 15.409 263.402 10.868 277.332 10.667C302.015 10.667 341.332 49.728 341.332 96C339.72 125.11 333.973 153.842 324.265 181.333H458.665C488.12 181.333 511.998 205.211 511.998 234.666C512.033 247.903 507.082 260.668 498.131 270.421C516.697 289.112 516.595 319.315 497.904 337.881C494.313 341.448 490.176 344.421 485.651 346.688C488.971 353.308 490.688 360.616 490.664 368.021C490.644 386.077 480.452 402.582 464.317 410.688C467.637 417.308 469.354 424.616 469.33 432.021C469.286 458.508 447.82 479.965 421.333 480ZM170.667 443.115C186.82 452.781 205.184 458.136 224 458.667H421.333C436.056 458.655 447.988 446.723 448 432C448.001 424.672 444.947 417.676 439.573 412.693C435.282 408.657 435.075 401.906 439.111 397.615C440.84 395.776 443.166 394.61 445.674 394.325C460.191 392.791 470.716 379.778 469.181 365.261C468.511 358.921 465.572 353.037 460.906 348.693C456.615 344.657 456.408 337.906 460.444 333.615C462.173 331.776 464.499 330.61 467.007 330.325C481.525 328.795 492.053 315.786 490.523 301.269C489.577 292.289 484.112 284.413 476.031 280.384C470.796 277.682 468.742 271.249 471.444 266.013C472.333 264.289 473.676 262.841 475.327 261.824C490.326 252.477 494.908 232.741 485.561 217.742C479.767 208.444 469.62 202.757 458.665 202.667H309.333C303.442 202.664 298.669 197.886 298.672 191.995C298.673 190.699 298.909 189.414 299.371 188.203C310.612 158.61 317.559 127.561 320 96C320 61.056 289.024 32 277.333 32C269.851 32.121 262.518 34.108 256 37.781V106.666C255.998 108.212 255.664 109.74 255.019 111.146L191.019 249.813C190.003 252.005 188.273 253.788 186.112 254.869L170.667 262.592V443.115V443.115Z" fill="#01579B"/>
<path d="M160 501.333H10.667C4.776 501.333 0 496.558 0 490.667V234.667C0 228.776 4.776 224 10.667 224H160C165.891 224 170.667 228.776 170.667 234.667V490.667C170.667 496.558 165.891 501.333 160 501.333ZM21.333 480H149.333V245.333H21.333V480Z" fill="black"/>
<path d="M421.333 480H224C198.135 479.793 173.032 471.215 152.448 455.552C148.355 451.315 148.473 444.562 152.71 440.469C156.844 436.476 163.397 436.476 167.531 440.469C184.114 452.039 203.782 458.377 224 458.666H421.333C436.056 458.655 447.988 446.723 448 432C447.995 424.673 444.943 417.679 439.573 412.693C435.282 408.657 435.075 401.906 439.111 397.615C440.84 395.776 443.166 394.61 445.674 394.325C460.191 392.791 470.716 379.778 469.181 365.261C468.511 358.921 465.572 353.037 460.906 348.693C456.615 344.657 456.408 337.906 460.444 333.615C462.173 331.776 464.499 330.61 467.007 330.325C481.526 328.805 492.063 315.803 490.543 301.284C489.602 292.298 484.137 284.416 476.052 280.383C470.817 277.681 468.763 271.248 471.465 266.012C472.354 264.288 473.697 262.84 475.348 261.823C490.347 252.476 494.929 232.74 485.582 217.741C479.784 208.437 469.627 202.749 458.665 202.666H309.333C303.442 202.663 298.669 197.885 298.672 191.994C298.673 190.698 298.909 189.413 299.371 188.202C310.6 158.607 317.546 127.559 320 96C320 61.056 289.024 32 277.333 32C269.851 32.121 262.518 34.108 256 37.781V106.666C255.998 108.212 255.664 109.74 255.019 111.146L191.019 249.813C190.003 252.005 188.273 253.788 186.112 254.869L164.779 265.536C159.507 268.169 153.098 266.03 150.464 260.757C147.83 255.484 149.97 249.076 155.243 246.442L173.227 237.439L234.667 104.34V32C234.665 28.754 236.141 25.684 238.678 23.659C249.899 15.415 263.411 10.873 277.334 10.667C302.017 10.667 341.334 49.728 341.334 96C339.727 125.111 333.98 153.844 324.267 181.333H458.667C488.122 181.333 512 205.211 512 234.666C512.033 247.903 507.082 260.667 498.133 270.421C516.703 289.108 516.608 319.311 497.921 337.881C494.332 341.448 490.198 344.421 485.675 346.688C497.395 370.257 487.858 398.865 464.342 410.688C467.65 417.311 469.36 424.618 469.334 432.021C469.286 458.508 447.82 479.965 421.333 480Z" fill="black"/>
</g>
<defs>
<clipPath id="clip0">
<rect width="512" height="512" fill="white"/>
</clipPath>
</defs>
</svg>
