<svg width="1137" height="587" viewBox="0 0 1137 587" fill="none" xmlns="http://www.w3.org/2000/svg">
<path d="M71.4893 215.76V88.4404H51.1035V67.2002H109.209L153.887 183.533L199.053 67.2002H257.769V88.4404H237.261V215.76H257.769V237H193.804V215.76H214.067V88.4404L155.474 238.709H150.469L92.4854 88.4404V215.76H111.162V237H51.1035V215.76H71.4893ZM324.297 234.925L285.479 139.466H265.825V118.836H324.297V139.466H310.137L335.649 204.896L360.674 139.466H345.049V118.836H402.3V139.466H384.722L326.25 289.979H287.065V269.715H310.137L324.297 234.925Z" fill="#64B5F6"/>
<path d="M411.055 169.973V153.469H423.359V138.918L441.914 121.926V153.469H459.395V169.973H441.914V215.871C441.914 223.228 442.305 227.785 443.086 229.543C443.932 231.236 445.983 232.082 449.238 232.082C452.689 232.082 456.074 231.431 459.395 230.129V247.023C454.642 248.716 449.889 249.562 445.137 249.562C439.473 249.562 434.883 248.326 431.367 245.852C427.852 243.312 425.638 240.155 424.727 236.379C423.815 232.603 423.359 226.092 423.359 216.848V169.973H411.055ZM483.906 121.34C483.906 118.345 484.948 115.741 487.031 113.527C489.18 111.314 491.882 110.207 495.137 110.207C498.197 110.207 500.833 111.281 503.047 113.43C505.26 115.578 506.367 118.215 506.367 121.34C506.367 124.465 505.26 127.134 503.047 129.348C500.833 131.496 498.197 132.57 495.137 132.57C492.012 132.57 489.342 131.464 487.129 129.25C484.98 127.036 483.906 124.4 483.906 121.34ZM486.543 231.496V169.973H471.797V153.469H505.098V231.496H519.648V248H471.797V231.496H486.543ZM564.277 153.469V164.895C576.191 156.301 587.064 152.004 596.895 152.004C603.014 152.004 608.06 153.469 612.031 156.398C616.068 159.263 618.704 162.811 619.941 167.043C621.178 171.21 621.797 177.329 621.797 185.402V231.496H637.715V248H603.242V186.184C603.242 179.022 602.168 174.367 600.02 172.219C597.871 170.005 595.234 168.898 592.109 168.898C583.906 168.898 574.629 172.902 564.277 180.91V231.496H580.586V248H529.121V231.496H545.723V169.973H529.121V153.469H564.277ZM745.625 205.422H666.133C667.305 214.146 670.755 221.21 676.484 226.613C682.214 232.017 689.538 234.719 698.457 234.719C711.413 234.719 721.667 229.51 729.219 219.094L745.625 226.32C740.286 234.589 733.353 240.741 724.824 244.777C716.296 248.749 707.376 250.734 698.066 250.734C683.613 250.734 671.243 246.242 660.957 237.258C650.736 228.208 645.625 216.034 645.625 200.734C645.625 186.216 650.605 174.27 660.566 164.895C670.592 155.52 682.083 150.832 695.039 150.832C707.734 150.832 719.225 155.422 729.512 164.602C739.863 173.716 745.234 187.323 745.625 205.422ZM726.484 191.945C725.182 185.305 721.732 179.315 716.133 173.977C710.534 168.573 703.665 165.871 695.527 165.871C688.105 165.871 681.758 168.312 676.484 173.195C671.211 178.013 667.988 184.263 666.816 191.945H726.484ZM776.484 231.496V169.973H757.441V153.469H791.328V174.758C793.411 169.224 796.309 164.634 800.02 160.988C803.73 157.342 807.637 154.934 811.738 153.762C815.905 152.59 821.569 152.004 828.73 152.004H833.613V170.754H829.902C820.462 170.754 813.398 171.698 808.711 173.586C804.089 175.474 800.638 178.924 798.359 183.938C796.146 188.885 795.039 197.805 795.039 210.695V231.496H815.645V248H757.441V231.496H776.484ZM934.98 231.496V248H902.559V236.477C893.574 245.201 883.548 249.562 872.48 249.562C863.887 249.562 856.4 246.763 850.02 241.164C843.704 235.565 840.547 228.404 840.547 219.68C840.547 210.891 843.9 203.599 850.605 197.805C857.376 192.01 865.514 189.113 875.02 189.113C883.874 189.113 892.435 191.783 900.703 197.121V187.746C900.703 182.928 900.247 179.217 899.336 176.613C898.424 174.009 896.276 171.665 892.891 169.582C889.57 167.499 885.208 166.457 879.805 166.457C870.495 166.457 863.757 170.168 859.59 177.59L841.816 172.902C849.694 158.189 863.301 150.832 882.637 150.832C889.733 150.832 895.853 151.809 900.996 153.762C906.204 155.65 910.078 158.124 912.617 161.184C915.156 164.178 916.849 167.434 917.695 170.949C918.607 174.465 919.062 180.064 919.062 187.746V231.496H934.98ZM900.703 212.844C892.695 206.594 884.59 203.469 876.387 203.469C871.243 203.469 866.947 204.966 863.496 207.961C860.046 210.956 858.32 214.829 858.32 219.582C858.32 224.009 859.818 227.72 862.812 230.715C865.872 233.71 870.007 235.207 875.215 235.207C884.199 235.207 892.695 231.431 900.703 223.879V212.844ZM961.055 231.496V169.973H942.012V153.469H975.898V174.758C977.982 169.224 980.879 164.634 984.59 160.988C988.301 157.342 992.207 154.934 996.309 153.762C1000.48 152.59 1006.14 152.004 1013.3 152.004H1018.18V170.754H1014.47C1005.03 170.754 997.969 171.698 993.281 173.586C988.659 175.474 985.208 178.924 982.93 183.938C980.716 188.885 979.609 197.805 979.609 210.695V231.496H1000.21V248H942.012V231.496H961.055ZM1072.58 246.34L1041.52 169.973H1025.8V153.469H1072.58V169.973H1061.25L1081.66 222.316L1101.68 169.973H1089.18V153.469H1134.98V169.973H1120.92L1074.14 290.383H1042.79V274.172H1061.25L1072.58 246.34Z" fill="#64B5F6"/>
<path d="M756.137 498.812C738.371 455.081 728.503 406.371 728.503 357.945V329H714.497V357.945C714.497 406.371 704.629 455.081 686.863 498.812H714.497V469.867H728.503V498.812H756.137Z" fill="#64B5F6"/>
<path d="M762.39 513.285H680.61C670.171 536.053 657.536 557.228 643 576H688.819C688.819 557.35 703.451 542.23 721.5 542.23C739.549 542.23 754.181 557.35 754.181 576H800C785.464 557.228 772.829 536.053 762.39 513.285Z" fill="#64B5F6"/>
<path d="M264.42 330.903C262.181 329.24 259.233 328.663 256.361 329.188L84.0754 364.191C79.6917 365.084 76.5714 368.636 76.5714 372.732V511.169C68.5506 506.724 58.6729 503.994 47.8571 503.994C21.4783 503.994 0 519.693 0 538.997C0 558.301 21.4783 574 47.8571 574C74.236 574 95.7143 558.301 95.7143 538.997V432.255L248.857 401.137V476.166C240.836 471.721 230.959 468.99 220.143 468.99C193.745 468.99 172.286 484.689 172.286 503.994C172.286 523.298 193.745 538.997 220.143 538.997C246.541 538.997 268 523.298 268 503.994V337.729C268 335.068 266.698 332.566 264.42 330.903Z" fill="#64B5F6"/>
<path d="M569.163 339.865C559.914 330.578 544.871 330.733 535.814 340.21L486.239 392.083L365.257 351.881L339.861 377.382L440.703 439.729L389.677 493.12L356.955 487.726L334 510.775L382.107 527.694L398.957 576L421.911 552.951L416.539 520.093L469.71 468.857L531.8 570.115L557.197 544.613L517.16 423.132L568.819 373.352C578.257 364.258 578.412 349.153 569.163 339.865Z" fill="#64B5F6"/>
<path d="M1113.18 562.685C1071.3 527.45 1022.06 548.09 973.528 561.757L951.66 473.607C955.941 473.658 960.273 474.812 964.299 477.172C967.807 479.367 972.219 478.036 974.245 474.418C981.121 462.138 995.894 455.863 1010.63 464.006C1016.27 467.12 1022.65 461.533 1021.05 454.949C1010.45 411.609 971.066 385.431 931.605 392.767L928.131 378.76C927.084 374.541 923.069 372.035 919.161 373.167C915.254 374.297 912.935 378.635 913.982 382.855L917.457 396.861C879.717 411.884 857.91 455.969 868.805 499.097C870.489 505.761 878.807 507.073 882.142 501.1C889.322 488.243 904.689 482.674 918.488 490.625C921.956 492.613 926.209 491.302 928.202 487.744C930.589 483.479 933.817 480.106 937.516 477.723L959.297 565.517C931.296 572.316 903.157 574.989 876.385 561.735C872.709 559.914 868.361 561.658 866.676 565.629C864.99 569.6 866.605 574.296 870.282 576.116C954.211 617.667 1042.32 523.121 1104.17 575.165C1107.36 577.85 1111.97 577.233 1114.45 573.787C1116.94 570.34 1116.37 565.37 1113.18 562.685ZM1001.79 444.7C991.282 443.491 980.697 446.663 972.259 453.564C967.442 435.887 958.4 419.872 945.502 407.357C968.795 407.581 990.817 421.809 1001.79 444.7ZM880.715 479.769C879.635 454.582 891.655 430.025 912.239 416.96C906.912 434.588 906.395 453.333 910.447 471.438C899.918 470.015 889.263 473.006 880.715 479.769ZM924.777 468.122C920.608 449.89 921.8 430.908 929.174 413.448C943.636 424.579 953.467 440.332 958.308 458.408C946.368 456.213 934.098 459.766 924.777 468.122Z" fill="#64B5F6"/>
<path d="M1005.3 388.695H1013.09C1017.14 388.695 1020.42 385.153 1020.42 380.785C1020.42 376.416 1017.14 372.875 1013.09 372.875H1005.3C1001.26 372.875 997.98 376.416 997.98 380.785C997.98 385.153 1001.26 388.695 1005.3 388.695Z" fill="#64B5F6"/>
<path d="M1056.94 407.365C1070.51 407.365 1081.55 395.441 1081.55 380.785C1081.55 366.128 1070.51 354.204 1056.94 354.204C1043.37 354.204 1032.33 366.128 1032.33 380.785C1032.33 395.441 1043.37 407.365 1056.94 407.365ZM1056.94 370.024C1062.44 370.024 1066.91 374.851 1066.91 380.784C1066.91 386.717 1062.44 391.544 1056.94 391.544C1051.45 391.544 1046.98 386.717 1046.98 380.784C1046.98 374.851 1051.45 370.024 1056.94 370.024Z" fill="#64B5F6"/>
<path d="M1056.94 341.232C1060.99 341.232 1064.27 337.691 1064.27 333.322V324.91C1064.27 320.542 1060.99 317 1056.94 317C1052.9 317 1049.62 320.542 1049.62 324.91V333.322C1049.62 337.691 1052.9 341.232 1056.94 341.232Z" fill="#64B5F6"/>
<path d="M1020.69 352.817C1023.55 355.906 1028.19 355.906 1031.05 352.817C1033.91 349.727 1033.91 344.719 1031.05 341.63L1025.54 335.682C1022.68 332.592 1018.05 332.592 1015.19 335.682C1012.33 338.771 1012.33 343.779 1015.19 346.869L1020.69 352.817Z" fill="#64B5F6"/>
<path d="M1020.69 408.752L1015.19 414.7C1012.33 417.789 1012.33 422.797 1015.19 425.887C1018.05 428.976 1022.68 428.977 1025.54 425.887L1031.05 419.939C1033.91 416.85 1033.91 411.842 1031.05 408.752C1028.19 405.662 1023.55 405.662 1020.69 408.752Z" fill="#64B5F6"/>
<path d="M1049.62 428.247V436.658C1049.62 441.026 1052.9 444.568 1056.94 444.568C1060.99 444.568 1064.27 441.026 1064.27 436.658V428.247C1064.27 423.878 1060.99 420.337 1056.94 420.337C1052.9 420.337 1049.62 423.878 1049.62 428.247Z" fill="#64B5F6"/>
<path d="M1082.84 408.752C1079.98 411.841 1079.98 416.849 1082.84 419.939L1088.35 425.887C1091.2 428.976 1095.84 428.977 1098.7 425.887C1101.56 422.798 1101.56 417.789 1098.7 414.7L1093.2 408.752C1090.34 405.662 1085.7 405.662 1082.84 408.752Z" fill="#64B5F6"/>
<path d="M1093.56 380.784C1093.56 385.153 1096.84 388.694 1100.89 388.694H1108.68C1112.72 388.694 1116 385.153 1116 380.784C1116 376.416 1112.72 372.874 1108.68 372.874H1100.89C1096.84 372.874 1093.56 376.416 1093.56 380.784Z" fill="#64B5F6"/>
<path d="M1093.2 352.817L1098.7 346.869C1101.56 343.78 1101.56 338.771 1098.7 335.682C1095.84 332.592 1091.21 332.592 1088.35 335.682L1082.84 341.63C1079.98 344.719 1079.98 349.727 1082.84 352.817C1085.7 355.906 1090.34 355.906 1093.2 352.817Z" fill="#64B5F6"/>
</svg>
