<svg width="911" height="532" viewBox="0 0 911 532" fill="none" xmlns="http://www.w3.org/2000/svg">
<path d="M253.75 59.3V291H227.5V99.2L141.75 209.45L54.6 99.2V291H28.35V59.3H58.8L141.75 169.2L223.3 59.3H253.75Z" fill="#EAB14D"/>
<path d="M253.75 59.3H254.75V58.3H253.75V59.3ZM253.75 291V292H254.75V291H253.75ZM227.5 291H226.5V292H227.5V291ZM227.5 99.2H228.5V96.2855L226.711 98.586L227.5 99.2ZM141.75 209.45L140.966 210.07L141.756 211.071L142.539 210.064L141.75 209.45ZM54.6 99.2L55.3845 98.5799L53.6 96.3224V99.2H54.6ZM54.6 291V292H55.6V291H54.6ZM28.35 291H27.35V292H28.35V291ZM28.35 59.3V58.3H27.35V59.3H28.35ZM58.8 59.3L59.5982 58.6975L59.2981 58.3H58.8V59.3ZM141.75 169.2L140.952 169.802L141.757 170.869L142.553 169.796L141.75 169.2ZM223.3 59.3V58.3H222.797L222.497 58.7041L223.3 59.3ZM252.75 59.3V291H254.75V59.3H252.75ZM253.75 290H227.5V292H253.75V290ZM228.5 291V99.2H226.5V291H228.5ZM226.711 98.586L140.961 208.836L142.539 210.064L228.289 99.8139L226.711 98.586ZM142.535 208.83L55.3845 98.5799L53.8155 99.8201L140.966 210.07L142.535 208.83ZM53.6 99.2V291H55.6V99.2H53.6ZM54.6 290H28.35V292H54.6V290ZM29.35 291V59.3H27.35V291H29.35ZM28.35 60.3H58.8V58.3H28.35V60.3ZM58.0018 59.9024L140.952 169.802L142.548 168.598L59.5982 58.6975L58.0018 59.9024ZM142.553 169.796L224.103 59.8959L222.497 58.7041L140.947 168.604L142.553 169.796ZM223.3 60.3H253.75V58.3H223.3V60.3Z" fill="black"/>
<path d="M336.3 356.3H307.95L339.8 284.55L268.4 112H297.45L353.8 255.5L411.2 112H439.9L336.3 356.3Z" fill="#DFDDE2"/>
<path d="M336.3 356.3V357.3H336.962L337.221 356.69L336.3 356.3ZM307.95 356.3L307.036 355.894L306.412 357.3H307.95V356.3ZM339.8 284.55L340.714 284.956L340.888 284.564L340.724 284.168L339.8 284.55ZM268.4 112V111H266.904L267.476 112.382L268.4 112ZM297.45 112L298.381 111.634L298.132 111H297.45V112ZM353.8 255.5L352.869 255.866L353.791 258.214L354.728 255.871L353.8 255.5ZM411.2 112V111H410.523L410.272 111.629L411.2 112ZM439.9 112L440.821 112.39L441.41 111H439.9V112ZM336.3 355.3H307.95V357.3H336.3V355.3ZM308.864 356.706L340.714 284.956L338.886 284.144L307.036 355.894L308.864 356.706ZM340.724 284.168L269.324 111.618L267.476 112.382L338.876 284.932L340.724 284.168ZM268.4 113H297.45V111H268.4V113ZM296.519 112.366L352.869 255.866L354.731 255.134L298.381 111.634L296.519 112.366ZM354.728 255.871L412.128 112.371L410.272 111.629L352.872 255.129L354.728 255.871ZM411.2 113H439.9V111H411.2V113ZM438.979 111.61L335.379 355.91L337.221 356.69L440.821 112.39L438.979 111.61Z" fill="black"/>
<path d="M83.75 479V370.5H58.25V354H83.75V309.25H102.5V354H131.25V370.5H102.5V479H83.75ZM151.793 354H170.543V479H151.793V354ZM171.293 308.5V333H151.043V308.5H171.293ZM221.813 354V373.5C226.313 367.5 231.813 362.417 238.313 358.25C244.813 354.083 252.229 352 260.563 352C268.896 352 276.063 353.167 282.063 355.5C288.063 357.833 293.313 361.333 297.813 366C308.146 376.167 313.313 389.583 313.313 406.25V479H294.563V406.75C294.563 395.25 291.313 386.083 284.813 379.25C278.313 372.417 269.896 369 259.563 369C249.063 369 240.146 372.5 232.813 379.5C225.479 386.667 221.813 395.833 221.813 407V479H203.063V354H221.813ZM400.414 464C417.247 464 429.331 457 436.664 443H457.164C452.831 454.333 445.914 463.5 436.414 470.5C427.081 477.5 414.997 481 400.164 481C381.331 481 365.997 474.75 354.164 462.25C342.664 450.083 336.914 434.833 336.914 416.5C336.914 398 342.414 382.75 353.414 370.75C365.081 358.25 380.247 352 398.914 352C417.581 352 432.747 358.25 444.414 370.75C455.414 382.75 460.914 398 460.914 416.5V424H356.164C357.497 435.5 362.081 445 369.914 452.5C377.914 460.167 388.081 464 400.414 464ZM398.914 369C387.414 369 377.747 372.583 369.914 379.75C362.581 386.583 358.081 395.5 356.414 406.5H441.414C439.747 395.5 435.247 386.583 427.914 379.75C420.081 372.583 410.414 369 398.914 369ZM549.824 352V370.75H547.574C534.074 370.75 523.074 376.167 514.574 387C506.574 397.333 502.574 409.667 502.574 424V479H483.824V354H502.574V384.75C506.574 371.75 515.241 362.167 528.574 356C534.074 353.333 540.741 352 548.574 352H549.824ZM664.332 459C654.332 473.667 639.415 481 619.582 481C601.582 481 586.915 474.75 575.582 462.25C564.582 449.917 559.082 434.667 559.082 416.5C559.082 398.333 564.582 383.083 575.582 370.75C586.915 358.25 601.999 352 620.832 352C639.665 352 654.165 359.417 664.332 374.25V354H683.082V479H664.332V459ZM622.082 464C635.582 464 646.249 459.333 654.082 450C661.582 441.167 665.332 430 665.332 416.5C665.332 403 661.582 391.833 654.082 383C646.249 373.667 635.582 369 622.082 369C608.749 369 597.915 373.667 589.582 383C581.749 391.833 577.832 403 577.832 416.5C577.832 430 581.749 441.167 589.582 450C597.915 459.333 608.749 464 622.082 464ZM781.514 352V370.75H779.264C765.764 370.75 754.764 376.167 746.264 387C738.264 397.333 734.264 409.667 734.264 424V479H715.514V354H734.264V384.75C738.264 371.75 746.93 362.167 760.264 356C765.764 353.333 772.43 352 780.264 352H781.514Z" fill="#EAB14D"/>
<path d="M834.945 528.5H814.695L837.445 477.25L786.445 354H807.195L847.445 456.5L888.445 354H908.945L834.945 528.5Z" fill="#DFDDE2"/>
<path d="M83.75 479H82.75V480H83.75V479ZM83.75 370.5H84.75V369.5H83.75V370.5ZM58.25 370.5H57.25V371.5H58.25V370.5ZM58.25 354V353H57.25V354H58.25ZM83.75 354V355H84.75V354H83.75ZM83.75 309.25V308.25H82.75V309.25H83.75ZM102.5 309.25H103.5V308.25H102.5V309.25ZM102.5 354H101.5V355H102.5V354ZM131.25 354H132.25V353H131.25V354ZM131.25 370.5V371.5H132.25V370.5H131.25ZM102.5 370.5V369.5H101.5V370.5H102.5ZM102.5 479V480H103.5V479H102.5ZM84.75 479V370.5H82.75V479H84.75ZM83.75 369.5H58.25V371.5H83.75V369.5ZM59.25 370.5V354H57.25V370.5H59.25ZM58.25 355H83.75V353H58.25V355ZM84.75 354V309.25H82.75V354H84.75ZM83.75 310.25H102.5V308.25H83.75V310.25ZM101.5 309.25V354H103.5V309.25H101.5ZM102.5 355H131.25V353H102.5V355ZM130.25 354V370.5H132.25V354H130.25ZM131.25 369.5H102.5V371.5H131.25V369.5ZM101.5 370.5V479H103.5V370.5H101.5ZM102.5 478H83.75V480H102.5V478ZM151.793 354V353H150.793V354H151.793ZM170.543 354H171.543V353H170.543V354ZM170.543 479V480H171.543V479H170.543ZM151.793 479H150.793V480H151.793V479ZM171.293 308.5H172.293V307.5H171.293V308.5ZM171.293 333V334H172.293V333H171.293ZM151.043 333H150.043V334H151.043V333ZM151.043 308.5V307.5H150.043V308.5H151.043ZM151.793 355H170.543V353H151.793V355ZM169.543 354V479H171.543V354H169.543ZM170.543 478H151.793V480H170.543V478ZM152.793 479V354H150.793V479H152.793ZM170.293 308.5V333H172.293V308.5H170.293ZM171.293 332H151.043V334H171.293V332ZM152.043 333V308.5H150.043V333H152.043ZM151.043 309.5H171.293V307.5H151.043V309.5ZM221.813 354H222.813V353H221.813V354ZM221.813 373.5H220.813V376.5L222.613 374.1L221.813 373.5ZM238.313 358.25L238.852 359.092L238.852 359.092L238.313 358.25ZM282.063 355.5L281.7 356.432L281.7 356.432L282.063 355.5ZM297.813 366L297.093 366.694L297.102 366.704L297.111 366.713L297.813 366ZM313.313 479V480H314.313V479H313.313ZM294.563 479H293.563V480H294.563V479ZM232.813 379.5L232.122 378.777L232.114 378.785L232.813 379.5ZM221.813 479V480H222.813V479H221.813ZM203.063 479H202.063V480H203.063V479ZM203.063 354V353H202.063V354H203.063ZM220.813 354V373.5H222.813V354H220.813ZM222.613 374.1C227.039 368.198 232.45 363.196 238.852 359.092L237.773 357.408C231.175 361.637 225.586 366.802 221.013 372.9L222.613 374.1ZM238.852 359.092C245.178 355.037 252.405 353 260.563 353V351C252.054 351 244.447 353.13 237.773 357.408L238.852 359.092ZM260.563 353C268.807 353 275.844 354.155 281.7 356.432L282.425 354.568C276.281 352.179 268.985 351 260.563 351V353ZM281.7 356.432C287.564 358.712 292.692 362.131 297.093 366.694L298.532 365.306C293.933 360.536 288.561 356.954 282.425 354.568L281.7 356.432ZM297.111 366.713C307.224 376.663 312.313 389.808 312.313 406.25H314.313C314.313 389.359 309.067 375.67 298.514 365.287L297.111 366.713ZM312.313 406.25V479H314.313V406.25H312.313ZM313.313 478H294.563V480H313.313V478ZM295.563 479V406.75H293.563V479H295.563ZM295.563 406.75C295.563 395.053 292.251 385.619 285.537 378.561L284.088 379.939C290.374 386.548 293.563 395.447 293.563 406.75H295.563ZM285.537 378.561C278.829 371.509 270.141 368 259.563 368V370C269.651 370 277.796 373.324 284.088 379.939L285.537 378.561ZM259.563 368C248.816 368 239.649 371.592 232.122 378.777L233.503 380.223C240.643 373.408 249.309 370 259.563 370V368ZM232.114 378.785C224.57 386.157 220.813 395.591 220.813 407H222.813C222.813 396.076 226.389 387.176 233.511 380.215L232.114 378.785ZM220.813 407V479H222.813V407H220.813ZM221.813 478H203.063V480H221.813V478ZM204.063 479V354H202.063V479H204.063ZM203.063 355H221.813V353H203.063V355ZM436.664 443V442H436.059L435.778 442.536L436.664 443ZM457.164 443L458.098 443.357L458.617 442H457.164V443ZM436.414 470.5L435.821 469.695L435.814 469.7L436.414 470.5ZM354.164 462.25L353.437 462.937L353.438 462.937L354.164 462.25ZM353.414 370.75L352.683 370.068L352.677 370.074L353.414 370.75ZM444.414 370.75L445.151 370.074L445.145 370.068L444.414 370.75ZM460.914 424V425H461.914V424H460.914ZM356.164 424V423H355.041L355.171 424.115L356.164 424ZM369.914 452.5L370.606 451.778L370.606 451.778L369.914 452.5ZM369.914 379.75L369.239 379.012L369.232 379.018L369.914 379.75ZM356.414 406.5L355.425 406.35L355.251 407.5H356.414V406.5ZM441.414 406.5V407.5H442.577L442.403 406.35L441.414 406.5ZM427.914 379.75L428.596 379.018L428.589 379.012L427.914 379.75ZM400.414 465C408.971 465 416.38 463.22 422.603 459.615C428.829 456.008 433.807 450.609 437.55 443.464L435.778 442.536C432.187 449.391 427.458 454.491 421.6 457.885C415.739 461.28 408.691 463 400.414 463V465ZM436.664 444H457.164V442H436.664V444ZM456.23 442.643C451.963 453.803 445.162 462.812 435.821 469.695L437.007 471.305C446.666 464.188 453.698 454.864 458.098 443.357L456.23 442.643ZM435.814 469.7C426.696 476.539 414.84 480 400.164 480V482C415.154 482 427.466 478.461 437.014 471.3L435.814 469.7ZM400.164 480C381.577 480 366.516 473.843 354.89 461.563L353.438 462.937C365.479 475.657 381.085 482 400.164 482V480ZM354.891 461.563C343.584 449.6 337.914 434.604 337.914 416.5H335.914C335.914 435.062 341.744 450.566 353.437 462.937L354.891 461.563ZM337.914 416.5C337.914 398.214 343.344 383.216 354.151 371.426L352.677 370.074C341.485 382.284 335.914 397.786 335.914 416.5H337.914ZM354.145 371.432C365.604 359.155 380.496 353 398.914 353V351C379.999 351 364.557 357.345 352.683 370.068L354.145 371.432ZM398.914 353C417.332 353 432.224 359.155 443.683 371.432L445.145 370.068C433.271 357.345 417.83 351 398.914 351V353ZM443.677 371.426C454.485 383.216 459.914 398.214 459.914 416.5H461.914C461.914 397.786 456.344 382.284 445.151 370.074L443.677 371.426ZM459.914 416.5V424H461.914V416.5H459.914ZM460.914 423H356.164V425H460.914V423ZM355.171 424.115C356.529 435.83 361.209 445.55 369.222 453.222L370.606 451.778C362.952 444.45 358.466 435.17 357.157 423.885L355.171 424.115ZM369.222 453.222C377.43 461.088 387.855 465 400.414 465V463C388.307 463 378.398 459.245 370.606 451.778L369.222 453.222ZM398.914 368C387.187 368 377.273 371.662 369.239 379.012L370.589 380.488C378.222 373.504 387.641 370 398.914 370V368ZM369.232 379.018C361.716 386.022 357.122 395.153 355.425 406.35L357.403 406.65C359.04 395.847 363.446 387.144 370.596 380.482L369.232 379.018ZM356.414 407.5H441.414V405.5H356.414V407.5ZM442.403 406.35C440.706 395.153 436.112 386.022 428.596 379.018L427.232 380.482C434.382 387.144 438.789 395.847 440.425 406.65L442.403 406.35ZM428.589 379.012C420.555 371.662 410.641 368 398.914 368V370C410.187 370 419.606 373.504 427.239 380.488L428.589 379.012ZM549.824 352H550.824V351H549.824V352ZM549.824 370.75V371.75H550.824V370.75H549.824ZM514.574 387L513.787 386.383L513.783 386.388L514.574 387ZM502.574 479V480H503.574V479H502.574ZM483.824 479H482.824V480H483.824V479ZM483.824 354V353H482.824V354H483.824ZM502.574 354H503.574V353H502.574V354ZM502.574 384.75H501.574L503.53 385.044L502.574 384.75ZM528.574 356L528.994 356.908L529.002 356.904L529.01 356.9L528.574 356ZM548.824 352V370.75H550.824V352H548.824ZM549.824 369.75H547.574V371.75H549.824V369.75ZM547.574 369.75C533.76 369.75 522.473 375.313 513.787 386.383L515.361 387.617C523.676 377.02 534.388 371.75 547.574 371.75V369.75ZM513.783 386.388C505.635 396.914 501.574 409.468 501.574 424H503.574C503.574 409.866 507.514 397.753 515.365 387.612L513.783 386.388ZM501.574 424V479H503.574V424H501.574ZM502.574 478H483.824V480H502.574V478ZM484.824 479V354H482.824V479H484.824ZM483.824 355H502.574V353H483.824V355ZM501.574 354V384.75H503.574V354H501.574ZM503.53 385.044C507.439 372.339 515.895 362.966 528.994 356.908L528.154 355.092C514.587 361.367 505.709 371.161 501.618 384.456L503.53 385.044ZM529.01 356.9C534.342 354.315 540.851 353 548.574 353V351C540.631 351 533.807 352.352 528.138 355.1L529.01 356.9ZM548.574 353H549.824V351H548.574V353ZM664.332 459H665.332V455.758L663.506 458.437L664.332 459ZM575.582 462.25L574.836 462.916L574.841 462.922L575.582 462.25ZM575.582 370.75L574.841 370.078L574.836 370.084L575.582 370.75ZM664.332 374.25L663.507 374.815L665.332 377.478V374.25H664.332ZM664.332 354V353H663.332V354H664.332ZM683.082 354H684.082V353H683.082V354ZM683.082 479V480H684.082V479H683.082ZM664.332 479H663.332V480H664.332V479ZM654.082 450L653.32 449.353L653.316 449.357L654.082 450ZM654.082 383L653.316 383.643L653.32 383.647L654.082 383ZM589.582 383L588.836 382.334L588.834 382.337L589.582 383ZM589.582 450L588.834 450.663L588.836 450.666L589.582 450ZM663.506 458.437C653.716 472.795 639.13 480 619.582 480V482C639.701 482 654.948 474.539 665.158 459.563L663.506 458.437ZM619.582 480C601.843 480 587.453 473.854 576.323 461.578L574.841 462.922C586.378 475.646 601.321 482 619.582 482V480ZM576.328 461.584C565.508 449.453 560.082 434.447 560.082 416.5H558.082C558.082 434.886 563.656 450.38 574.836 462.916L576.328 461.584ZM560.082 416.5C560.082 398.552 565.508 383.547 576.328 371.416L574.836 370.084C563.656 382.62 558.082 398.114 558.082 416.5H560.082ZM576.323 371.422C587.443 359.156 602.244 353 620.832 353V351C601.753 351 586.387 357.344 574.841 370.078L576.323 371.422ZM620.832 353C639.354 353 653.537 360.269 663.507 374.815L665.157 373.685C654.794 358.564 639.977 351 620.832 351V353ZM665.332 374.25V354H663.332V374.25H665.332ZM664.332 355H683.082V353H664.332V355ZM682.082 354V479H684.082V354H682.082ZM683.082 478H664.332V480H683.082V478ZM665.332 479V459H663.332V479H665.332ZM622.082 465C635.842 465 646.803 460.229 654.848 450.643L653.316 449.357C645.695 458.438 635.322 463 622.082 463V465ZM654.844 450.647C662.523 441.604 666.332 430.196 666.332 416.5H664.332C664.332 429.804 660.642 440.729 653.32 449.353L654.844 450.647ZM666.332 416.5C666.332 402.804 662.523 391.396 654.844 382.353L653.32 383.647C660.642 392.271 664.332 403.196 664.332 416.5H666.332ZM654.848 382.357C646.803 372.771 635.842 368 622.082 368V370C635.322 370 645.695 374.562 653.316 383.643L654.848 382.357ZM622.082 368C608.485 368 597.373 372.773 588.836 382.334L590.328 383.666C598.458 374.56 609.012 370 622.082 370V368ZM588.834 382.337C580.815 391.379 576.832 402.793 576.832 416.5H578.832C578.832 403.207 582.682 392.288 590.33 383.663L588.834 382.337ZM576.832 416.5C576.832 430.207 580.815 441.621 588.834 450.663L590.33 449.337C582.682 440.712 578.832 429.793 578.832 416.5H576.832ZM588.836 450.666C597.373 460.227 608.485 465 622.082 465V463C609.012 463 598.458 458.44 590.328 449.334L588.836 450.666ZM781.514 352H782.514V351H781.514V352ZM781.514 370.75V371.75H782.514V370.75H781.514ZM746.264 387L745.477 386.383L745.473 386.388L746.264 387ZM734.264 479V480H735.264V479H734.264ZM715.514 479H714.514V480H715.514V479ZM715.514 354V353H714.514V354H715.514ZM734.264 354H735.264V353H734.264V354ZM734.264 384.75H733.264L735.219 385.044L734.264 384.75ZM760.264 356L760.683 356.908L760.692 356.904L760.7 356.9L760.264 356ZM780.514 352V370.75H782.514V352H780.514ZM781.514 369.75H779.264V371.75H781.514V369.75ZM779.264 369.75C765.449 369.75 754.162 375.313 745.477 386.383L747.05 387.617C755.365 377.02 766.078 371.75 779.264 371.75V369.75ZM745.473 386.388C737.324 396.914 733.264 409.468 733.264 424H735.264C735.264 409.866 739.203 397.753 747.054 387.612L745.473 386.388ZM733.264 424V479H735.264V424H733.264ZM734.264 478H715.514V480H734.264V478ZM716.514 479V354H714.514V479H716.514ZM715.514 355H734.264V353H715.514V355ZM733.264 354V384.75H735.264V354H733.264ZM735.219 385.044C739.129 372.339 747.585 362.966 760.683 356.908L759.844 355.092C746.276 361.367 737.399 371.161 733.308 384.456L735.219 385.044ZM760.7 356.9C766.031 354.315 772.54 353 780.264 353V351C772.32 351 765.496 352.352 759.827 355.1L760.7 356.9ZM780.264 353H781.514V351H780.264V353ZM834.945 528.5V529.5H835.607L835.866 528.89L834.945 528.5ZM814.695 528.5L813.781 528.094L813.157 529.5H814.695V528.5ZM837.445 477.25L838.359 477.656L838.533 477.264L838.369 476.868L837.445 477.25ZM786.445 354V353H784.949L785.521 354.382L786.445 354ZM807.195 354L808.126 353.634L807.877 353H807.195V354ZM847.445 456.5L846.515 456.866L847.437 459.214L848.374 456.871L847.445 456.5ZM888.445 354V353H887.768L887.517 353.629L888.445 354ZM908.945 354L909.866 354.39L910.456 353H908.945V354ZM834.945 527.5H814.695V529.5H834.945V527.5ZM815.609 528.906L838.359 477.656L836.531 476.844L813.781 528.094L815.609 528.906ZM838.369 476.868L787.369 353.618L785.521 354.382L836.521 477.632L838.369 476.868ZM786.445 355H807.195V353H786.445V355ZM806.265 354.366L846.515 456.866L848.376 456.134L808.126 353.634L806.265 354.366ZM848.374 456.871L889.374 354.371L887.517 353.629L846.517 456.129L848.374 456.871ZM888.445 355H908.945V353H888.445V355ZM908.025 353.61L834.025 528.11L835.866 528.89L909.866 354.39L908.025 353.61Z" fill="black"/>
<path d="M607.508 47.969L639.917 60.4847L653.741 47.969L630.625 27.0421L607.508 47.969Z" fill="#DFDDE2"/>
<path d="M549.172 25.4419L581.581 37.9569L595.133 25.6875L572.017 4.76059L549.172 25.4419Z" fill="#DFDDE2"/>
<path d="M622.874 134.51L685.288 78.0061L520.005 14.1779L492.265 39.2905L622.874 134.51Z" fill="#EAB14D"/>
<path d="M608.754 124.216L622.873 134.51L685.288 78.0061L663.747 69.6875C647.075 86.1526 628.053 105.026 608.754 124.216Z" fill="#E49542"/>
<path d="M767.012 192.367L753.187 163.028L767.012 150.513L790.129 171.44L767.012 192.367Z" fill="#DFDDE2"/>
<path d="M791.896 245.178L778.072 215.838L791.624 203.57L814.741 224.496L791.896 245.178Z" fill="#DFDDE2"/>
<path d="M540.232 285.709L578.374 251.179L593.4 306.636L578.374 320.239L540.232 285.709Z" fill="#EAB14D"/>
<path d="M584.11 272.349L578.374 251.178L540.232 285.708L553.338 297.573C560.298 291.873 570.991 283.109 584.11 272.349Z" fill="#E49542"/>
<path d="M671.418 178.456L733.833 121.953L804.339 271.583L776.599 296.695L671.418 178.456Z" fill="#EAB14D"/>
<path d="M743.022 141.454L733.833 121.953L671.418 178.456L682.788 191.238C703.986 173.768 724.834 156.547 743.022 141.454Z" fill="#E49542"/>
<path d="M504.401 253.272L542.543 218.742L481.285 205.139L466.259 218.742L504.401 253.272Z" fill="#EAB14D"/>
<path d="M491.295 241.407L504.401 253.272L542.544 218.742L519.158 213.549C507.272 225.425 497.592 235.106 491.295 241.407Z" fill="#E49542"/>
<path d="M787.001 29.8731C771.043 15.4259 744.814 15.7471 729.21 29.8731C706.538 50.3982 531.851 225.089 501.406 255.551C498.874 258.085 498.983 261.969 501.653 264.385L514.804 276.291L527.955 288.196C530.624 290.612 534.914 290.711 537.713 288.419C571.362 260.858 764.328 102.716 787.001 82.1904C802.605 68.0657 802.96 44.3204 787.001 29.8731Z" fill="#F9F6F9"/>
<path d="M787.001 29.8732C784.92 27.9885 782.659 26.361 780.274 24.9766C790.464 39.3686 788.433 58.9213 774.865 71.2046C750.015 93.7013 520.583 281.523 520.583 281.523L527.955 288.197C530.624 290.613 534.914 290.712 537.713 288.42C571.362 260.858 764.328 102.716 787.001 82.1911C802.605 68.0657 802.96 44.3204 787.001 29.8732Z" fill="#DFDDE2"/>
<path d="M795.409 70.9678C801.871 57.486 799.236 40.9491 787.001 29.8731C774.766 18.7971 756.499 16.4117 741.607 22.2617L795.409 70.9678Z" fill="#818181"/>
<path d="M783.273 59.9813L795.409 70.9678C801.871 57.486 799.236 40.9491 787.001 29.8731C784.919 27.9885 782.659 26.3616 780.274 24.9778C787.73 35.5073 788.635 48.7942 783.273 59.9813Z" fill="#595959"/>
<path d="M746.296 85.5572C747.324 86.4865 748.67 86.9518 750.015 86.9518C751.361 86.9518 752.707 86.4872 753.734 85.5572C757.354 82.2799 759.431 77.6208 759.431 72.7737C759.431 67.9267 757.354 63.2675 753.734 59.9902C746.079 53.0605 733.147 53.0605 725.492 59.9902C723.438 61.8494 723.438 64.8639 725.492 66.7225C727.546 68.5817 730.875 68.5817 732.929 66.7225C736.426 63.5563 742.797 63.5557 746.297 66.7225C747.959 68.2275 748.912 70.4327 748.912 72.7731C748.912 75.1135 747.959 77.3193 746.296 78.8243C744.243 80.6842 744.243 83.6986 746.296 85.5572Z" fill="black"/>
<path d="M820 224.496C820 223.234 819.446 222.023 818.46 221.13L795.343 200.203C794.357 199.31 793.02 198.809 791.624 198.809C790.229 198.809 788.893 199.31 787.905 200.203L779.856 207.491L773.244 193.459L793.848 174.806C794.834 173.914 795.387 172.703 795.387 171.44C795.387 170.178 794.834 168.967 793.848 168.074L770.731 147.147C768.676 145.287 765.347 145.287 763.293 147.147L754.971 154.681L741.838 126.809C766.166 106.591 784.583 91.1133 790.72 85.5585C799.294 77.7966 804.043 67.3617 804.096 56.174C804.148 44.8999 799.398 34.3647 790.72 26.5083C782.041 18.6518 770.402 14.3246 757.951 14.3988C745.592 14.4465 734.065 18.7463 725.491 26.5083C720.636 30.904 701.976 49.1782 680.043 70.8059L649.138 58.8711L657.46 51.3364C659.514 49.4772 659.514 46.4627 657.46 44.6041L634.344 23.6753C633.357 22.7822 632.02 22.2807 630.625 22.2807C629.229 22.2807 627.893 22.7822 626.906 23.6753L606.302 42.3279L590.802 36.342L598.852 29.0537C599.838 28.1612 600.392 26.95 600.392 25.6875C600.392 24.425 599.838 23.2138 598.852 22.3213L575.736 1.39442C573.682 -0.464806 570.353 -0.464806 568.299 1.39442L547.966 19.8001L522.068 9.79871C520.093 9.03508 517.803 9.43752 516.286 10.8112L488.546 35.9244C487.491 36.8797 486.934 38.1968 487.013 39.5463C487.093 40.8958 487.804 42.1508 488.966 42.9982L538.716 79.2686C540.978 80.9177 544.288 80.594 546.111 78.5469C547.933 76.4991 547.576 73.5024 545.313 71.8533L539.819 67.8473L547.236 61.1328C549.289 59.2735 549.289 56.259 547.236 54.4004C545.181 52.5412 541.852 52.5412 539.798 54.4004L531.58 61.8399L500.125 38.9077L521.21 19.8191L672.502 78.2441C655.429 95.0997 637.162 113.196 622.274 127.961L585.256 100.973L592.679 94.2529C594.732 92.3937 594.732 89.3792 592.679 87.5206C590.624 85.6613 587.295 85.6613 585.241 87.5206L577.017 94.9657L564.47 85.8181C562.207 84.1684 558.898 84.4921 557.075 86.5399C555.254 88.5876 555.611 91.5843 557.873 93.2335L615.172 135.007C601.997 148.08 592.682 157.338 591.36 158.653C589.404 160.597 589.56 163.608 591.707 165.378C593.854 167.149 597.18 167.008 599.136 165.064C600.342 163.866 719.857 45.0732 732.929 33.2393C735.233 31.1535 737.81 29.4282 740.56 28.0469L789.038 71.9333C787.487 74.4374 785.566 76.7581 783.283 78.8249C776.996 84.5169 757.613 100.791 732.143 121.944C732.117 121.965 732.093 121.987 732.067 122.008C666.687 176.308 561.278 262.699 534.186 284.889C533.467 285.48 532.363 285.454 531.675 284.83L522.242 276.291L564.179 238.325C566.233 236.466 566.233 233.452 564.179 231.593C562.124 229.734 558.795 229.734 556.742 231.593L514.805 269.558L505.37 261.019C504.683 260.396 504.654 259.398 505.306 258.745C516.757 247.287 547.21 216.83 582.574 181.569C584.526 179.622 584.366 176.611 582.216 174.844C580.064 173.077 576.74 173.221 574.787 175.168C561.287 188.63 548.506 201.386 537.221 212.657L482.537 200.515C480.751 200.118 478.867 200.595 477.565 201.773L462.54 215.376C461.554 216.268 461 217.479 461 218.742C461 220.004 461.554 221.215 462.54 222.108L496.807 253.129C493.131 257.533 493.541 263.776 497.934 267.752L507.366 276.291L498.949 283.912C496.895 285.771 496.895 288.785 498.949 290.644C499.976 291.573 501.322 292.039 502.668 292.039C504.013 292.039 505.36 291.574 506.387 290.644L514.804 283.024L524.237 291.563C526.644 293.742 529.802 294.839 532.966 294.839C535.577 294.839 538.191 294.089 540.39 292.584L574.656 323.604C575.683 324.533 577.029 324.999 578.375 324.999C579.721 324.999 581.067 324.534 582.094 323.604L597.12 310.001C598.42 308.824 598.946 307.117 598.508 305.501L585.095 255.996C609.742 235.772 640.579 210.441 670.897 185.46L717.012 237.3C718.051 238.468 719.574 239.074 721.112 239.074C722.269 239.074 723.435 238.73 724.406 238.021C726.669 236.372 727.025 233.376 725.204 231.328L715.099 219.968L723.323 212.523C725.377 210.664 725.377 207.649 723.323 205.791C721.269 203.931 717.94 203.931 715.886 205.791L708.465 212.509L678.689 179.037C698.042 163.082 716.941 147.468 733.62 133.631L798.107 270.489L777.021 289.578L751.69 261.101L759.91 253.66C761.963 251.801 761.963 248.786 759.91 246.928C757.855 245.069 754.526 245.069 752.472 246.928L745.055 253.642L740.631 248.668C738.809 246.621 735.499 246.296 733.236 247.947C730.974 249.596 730.617 252.592 732.438 254.64L772.503 299.679C773.44 300.732 774.826 301.375 776.317 301.447C776.412 301.452 776.506 301.454 776.599 301.454C777.989 301.454 779.329 300.954 780.318 300.059L808.058 274.946C809.576 273.572 810.019 271.5 809.177 269.712L798.129 246.266L818.461 227.86C819.446 226.97 820 225.759 820 224.496ZM630.625 33.7744L646.304 47.969L638.711 54.8435L616.729 46.3548L630.625 33.7744ZM572.017 11.4929L587.697 25.6875L580.375 32.3157L558.393 23.827L572.017 11.4929ZM751.53 24.5126C762.741 22.6743 774.82 25.5796 783.282 33.2399C789.962 39.2873 793.618 47.4174 793.578 56.1327C793.569 58.1367 793.358 60.1057 792.969 62.0271L751.53 24.5126ZM482.909 210.401L529.192 220.679C518.847 231.014 510.148 239.712 503.835 246.026L473.695 218.742L482.909 210.401ZM587.587 305.166L578.374 313.506L548.235 286.221C555.349 280.392 564.943 272.528 576.234 263.266L587.587 305.166ZM767.012 157.245L782.692 171.44L768.796 184.019L759.419 164.119L767.012 157.245ZM793.68 236.83L784.303 216.93L791.624 210.302L807.304 224.496L793.68 236.83Z" fill="black"/>
</svg>
