<svg width="2298" height="1080" viewBox="0 0 2298 1080" fill="none" xmlns="http://www.w3.org/2000/svg">
<path d="M253.75 607.3V839H227.5V647.2L141.75 757.45L54.6 647.2V839H28.35V607.3H58.8L141.75 717.2L223.3 607.3H253.75Z" fill="#EAB14D"/>
<path d="M253.75 607.3H254.75V606.3H253.75V607.3ZM253.75 839V840H254.75V839H253.75ZM227.5 839H226.5V840H227.5V839ZM227.5 647.2H228.5V644.285L226.711 646.586L227.5 647.2ZM141.75 757.45L140.966 758.07L141.756 759.071L142.539 758.064L141.75 757.45ZM54.6 647.2L55.3845 646.58L53.6 644.322V647.2H54.6ZM54.6 839V840H55.6V839H54.6ZM28.35 839H27.35V840H28.35V839ZM28.35 607.3V606.3H27.35V607.3H28.35ZM58.8 607.3L59.5982 606.698L59.2981 606.3H58.8V607.3ZM141.75 717.2L140.952 717.802L141.757 718.869L142.553 717.796L141.75 717.2ZM223.3 607.3V606.3H222.797L222.497 606.704L223.3 607.3ZM252.75 607.3V839H254.75V607.3H252.75ZM253.75 838H227.5V840H253.75V838ZM228.5 839V647.2H226.5V839H228.5ZM226.711 646.586L140.961 756.836L142.539 758.064L228.289 647.814L226.711 646.586ZM142.535 756.83L55.3845 646.58L53.8155 647.82L140.966 758.07L142.535 756.83ZM53.6 647.2V839H55.6V647.2H53.6ZM54.6 838H28.35V840H54.6V838ZM29.35 839V607.3H27.35V839H29.35ZM28.35 608.3H58.8V606.3H28.35V608.3ZM58.0018 607.902L140.952 717.802L142.548 716.598L59.5982 606.698L58.0018 607.902ZM142.553 717.796L224.103 607.896L222.497 606.704L140.947 716.604L142.553 717.796ZM223.3 608.3H253.75V606.3H223.3V608.3Z" fill="black"/>
<path d="M336.3 904.3H307.95L339.8 832.55L268.4 660H297.45L353.8 803.5L411.2 660H439.9L336.3 904.3Z" fill="#DFDDE2"/>
<path d="M336.3 904.3V905.3H336.962L337.221 904.69L336.3 904.3ZM307.95 904.3L307.036 903.894L306.412 905.3H307.95V904.3ZM339.8 832.55L340.714 832.956L340.888 832.564L340.724 832.168L339.8 832.55ZM268.4 660V659H266.904L267.476 660.382L268.4 660ZM297.45 660L298.381 659.634L298.132 659H297.45V660ZM353.8 803.5L352.869 803.866L353.791 806.214L354.728 803.871L353.8 803.5ZM411.2 660V659H410.523L410.272 659.629L411.2 660ZM439.9 660L440.821 660.39L441.41 659H439.9V660ZM336.3 903.3H307.95V905.3H336.3V903.3ZM308.864 904.706L340.714 832.956L338.886 832.144L307.036 903.894L308.864 904.706ZM340.724 832.168L269.324 659.618L267.476 660.382L338.876 832.932L340.724 832.168ZM268.4 661H297.45V659H268.4V661ZM296.519 660.366L352.869 803.866L354.731 803.134L298.381 659.634L296.519 660.366ZM354.728 803.871L412.128 660.371L410.272 659.629L352.872 803.129L354.728 803.871ZM411.2 661H439.9V659H411.2V661ZM438.979 659.61L335.379 903.91L337.221 904.69L440.821 660.39L438.979 659.61Z" fill="black"/>
<path d="M83.75 1027V918.5H58.25V902H83.75V857.25H102.5V902H131.25V918.5H102.5V1027H83.75ZM151.793 902H170.543V1027H151.793V902ZM171.293 856.5V881H151.043V856.5H171.293ZM221.813 902V921.5C226.313 915.5 231.813 910.417 238.313 906.25C244.813 902.083 252.229 900 260.563 900C268.896 900 276.063 901.167 282.063 903.5C288.063 905.833 293.313 909.333 297.813 914C308.146 924.167 313.313 937.583 313.313 954.25V1027H294.563V954.75C294.563 943.25 291.313 934.083 284.813 927.25C278.313 920.417 269.896 917 259.563 917C249.063 917 240.146 920.5 232.813 927.5C225.479 934.667 221.813 943.833 221.813 955V1027H203.063V902H221.813ZM400.414 1012C417.247 1012 429.331 1005 436.664 991H457.164C452.831 1002.33 445.914 1011.5 436.414 1018.5C427.081 1025.5 414.997 1029 400.164 1029C381.331 1029 365.997 1022.75 354.164 1010.25C342.664 998.083 336.914 982.833 336.914 964.5C336.914 946 342.414 930.75 353.414 918.75C365.081 906.25 380.247 900 398.914 900C417.581 900 432.747 906.25 444.414 918.75C455.414 930.75 460.914 946 460.914 964.5V972H356.164C357.497 983.5 362.081 993 369.914 1000.5C377.914 1008.17 388.081 1012 400.414 1012ZM398.914 917C387.414 917 377.747 920.583 369.914 927.75C362.581 934.583 358.081 943.5 356.414 954.5H441.414C439.747 943.5 435.247 934.583 427.914 927.75C420.081 920.583 410.414 917 398.914 917ZM549.824 900V918.75H547.574C534.074 918.75 523.074 924.167 514.574 935C506.574 945.333 502.574 957.667 502.574 972V1027H483.824V902H502.574V932.75C506.574 919.75 515.241 910.167 528.574 904C534.074 901.333 540.741 900 548.574 900H549.824ZM664.332 1007C654.332 1021.67 639.415 1029 619.582 1029C601.582 1029 586.915 1022.75 575.582 1010.25C564.582 997.917 559.082 982.667 559.082 964.5C559.082 946.333 564.582 931.083 575.582 918.75C586.915 906.25 601.999 900 620.832 900C639.665 900 654.165 907.417 664.332 922.25V902H683.082V1027H664.332V1007ZM622.082 1012C635.582 1012 646.249 1007.33 654.082 998C661.582 989.167 665.332 978 665.332 964.5C665.332 951 661.582 939.833 654.082 931C646.249 921.667 635.582 917 622.082 917C608.749 917 597.915 921.667 589.582 931C581.749 939.833 577.832 951 577.832 964.5C577.832 978 581.749 989.167 589.582 998C597.915 1007.33 608.749 1012 622.082 1012ZM781.514 900V918.75H779.264C765.764 918.75 754.764 924.167 746.264 935C738.264 945.333 734.264 957.667 734.264 972V1027H715.514V902H734.264V932.75C738.264 919.75 746.93 910.167 760.264 904C765.764 901.333 772.43 900 780.264 900H781.514Z" fill="#EAB14D"/>
<path d="M834.945 1076.5H814.695L837.445 1025.25L786.445 902H807.195L847.445 1004.5L888.445 902H908.945L834.945 1076.5Z" fill="#DFDDE2"/>
<path d="M83.75 1027H82.75V1028H83.75V1027ZM83.75 918.5H84.75V917.5H83.75V918.5ZM58.25 918.5H57.25V919.5H58.25V918.5ZM58.25 902V901H57.25V902H58.25ZM83.75 902V903H84.75V902H83.75ZM83.75 857.25V856.25H82.75V857.25H83.75ZM102.5 857.25H103.5V856.25H102.5V857.25ZM102.5 902H101.5V903H102.5V902ZM131.25 902H132.25V901H131.25V902ZM131.25 918.5V919.5H132.25V918.5H131.25ZM102.5 918.5V917.5H101.5V918.5H102.5ZM102.5 1027V1028H103.5V1027H102.5ZM84.75 1027V918.5H82.75V1027H84.75ZM83.75 917.5H58.25V919.5H83.75V917.5ZM59.25 918.5V902H57.25V918.5H59.25ZM58.25 903H83.75V901H58.25V903ZM84.75 902V857.25H82.75V902H84.75ZM83.75 858.25H102.5V856.25H83.75V858.25ZM101.5 857.25V902H103.5V857.25H101.5ZM102.5 903H131.25V901H102.5V903ZM130.25 902V918.5H132.25V902H130.25ZM131.25 917.5H102.5V919.5H131.25V917.5ZM101.5 918.5V1027H103.5V918.5H101.5ZM102.5 1026H83.75V1028H102.5V1026ZM151.793 902V901H150.793V902H151.793ZM170.543 902H171.543V901H170.543V902ZM170.543 1027V1028H171.543V1027H170.543ZM151.793 1027H150.793V1028H151.793V1027ZM171.293 856.5H172.293V855.5H171.293V856.5ZM171.293 881V882H172.293V881H171.293ZM151.043 881H150.043V882H151.043V881ZM151.043 856.5V855.5H150.043V856.5H151.043ZM151.793 903H170.543V901H151.793V903ZM169.543 902V1027H171.543V902H169.543ZM170.543 1026H151.793V1028H170.543V1026ZM152.793 1027V902H150.793V1027H152.793ZM170.293 856.5V881H172.293V856.5H170.293ZM171.293 880H151.043V882H171.293V880ZM152.043 881V856.5H150.043V881H152.043ZM151.043 857.5H171.293V855.5H151.043V857.5ZM221.812 902H222.812V901H221.812V902ZM221.812 921.5H220.812V924.5L222.613 922.1L221.812 921.5ZM238.312 906.25L238.852 907.092L238.312 906.25ZM282.062 903.5L281.7 904.432L282.062 903.5ZM297.813 914L297.093 914.694L297.102 914.704L297.111 914.713L297.813 914ZM313.312 1027V1028H314.312V1027H313.312ZM294.562 1027H293.562V1028H294.562V1027ZM232.812 927.5L232.122 926.777L232.114 926.785L232.812 927.5ZM221.812 1027V1028H222.812V1027H221.812ZM203.062 1027H202.062V1028H203.062V1027ZM203.062 902V901H202.062V902H203.062ZM220.812 902V921.5H222.812V902H220.812ZM222.613 922.1C227.039 916.198 232.45 911.196 238.852 907.092L237.773 905.408C231.175 909.637 225.586 914.802 221.012 920.9L222.613 922.1ZM238.852 907.092C245.178 903.037 252.405 901 260.562 901V899C252.054 899 244.447 901.13 237.773 905.408L238.852 907.092ZM260.562 901C268.807 901 275.844 902.155 281.7 904.432L282.425 902.568C276.281 900.179 268.985 899 260.562 899V901ZM281.7 904.432C287.564 906.712 292.692 910.131 297.093 914.694L298.532 913.306C293.933 908.536 288.561 904.954 282.425 902.568L281.7 904.432ZM297.111 914.713C307.224 924.663 312.312 937.808 312.312 954.25H314.312C314.312 937.359 309.067 923.67 298.514 913.287L297.111 914.713ZM312.312 954.25V1027H314.312V954.25H312.312ZM313.312 1026H294.562V1028H313.312V1026ZM295.562 1027V954.75H293.562V1027H295.562ZM295.562 954.75C295.562 943.053 292.251 933.619 285.537 926.561L284.088 927.939C290.374 934.548 293.562 943.447 293.562 954.75H295.562ZM285.537 926.561C278.829 919.509 270.141 916 259.562 916V918C269.651 918 277.796 921.324 284.088 927.939L285.537 926.561ZM259.562 916C248.816 916 239.649 919.592 232.122 926.777L233.503 928.223C240.643 921.408 249.309 918 259.562 918V916ZM232.114 926.785C224.57 934.157 220.812 943.591 220.812 955H222.812C222.812 944.076 226.389 935.176 233.511 928.215L232.114 926.785ZM220.812 955V1027H222.812V955H220.812ZM221.812 1026H203.062V1028H221.812V1026ZM204.062 1027V902H202.062V1027H204.062ZM203.062 903H221.812V901H203.062V903ZM436.664 991V990H436.059L435.778 990.536L436.664 991ZM457.164 991L458.098 991.357L458.617 990H457.164V991ZM436.414 1018.5L435.821 1017.69L435.814 1017.7L436.414 1018.5ZM354.164 1010.25L353.437 1010.94L353.438 1010.94L354.164 1010.25ZM353.414 918.75L352.683 918.068L352.677 918.074L353.414 918.75ZM444.414 918.75L445.151 918.074L445.145 918.068L444.414 918.75ZM460.914 972V973H461.914V972H460.914ZM356.164 972V971H355.041L355.171 972.115L356.164 972ZM369.914 1000.5L370.606 999.778L370.606 999.778L369.914 1000.5ZM369.914 927.75L369.239 927.012L369.232 927.018L369.914 927.75ZM356.414 954.5L355.425 954.35L355.251 955.5H356.414V954.5ZM441.414 954.5V955.5H442.577L442.403 954.35L441.414 954.5ZM427.914 927.75L428.596 927.018L428.589 927.012L427.914 927.75ZM400.414 1013C408.971 1013 416.38 1011.22 422.603 1007.62C428.829 1004.01 433.807 998.609 437.55 991.464L435.778 990.536C432.187 997.391 427.458 1002.49 421.6 1005.88C415.739 1009.28 408.691 1011 400.414 1011V1013ZM436.664 992H457.164V990H436.664V992ZM456.23 990.643C451.963 1001.8 445.162 1010.81 435.821 1017.69L437.007 1019.31C446.666 1012.19 453.698 1002.86 458.098 991.357L456.23 990.643ZM435.814 1017.7C426.696 1024.54 414.84 1028 400.164 1028V1030C415.154 1030 427.466 1026.46 437.014 1019.3L435.814 1017.7ZM400.164 1028C381.577 1028 366.516 1021.84 354.89 1009.56L353.438 1010.94C365.479 1023.66 381.085 1030 400.164 1030V1028ZM354.891 1009.56C343.584 997.6 337.914 982.604 337.914 964.5H335.914C335.914 983.062 341.744 998.566 353.437 1010.94L354.891 1009.56ZM337.914 964.5C337.914 946.214 343.344 931.216 354.151 919.426L352.677 918.074C341.485 930.284 335.914 945.786 335.914 964.5H337.914ZM354.145 919.432C365.604 907.155 380.496 901 398.914 901V899C379.999 899 364.557 905.345 352.683 918.068L354.145 919.432ZM398.914 901C417.332 901 432.224 907.155 443.683 919.432L445.145 918.068C433.271 905.345 417.83 899 398.914 899V901ZM443.677 919.426C454.485 931.216 459.914 946.214 459.914 964.5H461.914C461.914 945.786 456.344 930.284 445.151 918.074L443.677 919.426ZM459.914 964.5V972H461.914V964.5H459.914ZM460.914 971H356.164V973H460.914V971ZM355.171 972.115C356.529 983.83 361.209 993.55 369.223 1001.22L370.606 999.778C362.952 992.45 358.466 983.17 357.157 971.885L355.171 972.115ZM369.222 1001.22C377.43 1009.09 387.855 1013 400.414 1013V1011C388.307 1011 378.398 1007.25 370.606 999.778L369.222 1001.22ZM398.914 916C387.187 916 377.273 919.662 369.239 927.012L370.589 928.488C378.222 921.504 387.641 918 398.914 918V916ZM369.232 927.018C361.716 934.022 357.122 943.153 355.425 954.35L357.403 954.65C359.04 943.847 363.446 935.144 370.596 928.482L369.232 927.018ZM356.414 955.5H441.414V953.5H356.414V955.5ZM442.403 954.35C440.706 943.153 436.112 934.022 428.596 927.018L427.232 928.482C434.382 935.144 438.789 943.847 440.425 954.65L442.403 954.35ZM428.589 927.012C420.555 919.662 410.641 916 398.914 916V918C410.187 918 419.606 921.504 427.239 928.488L428.589 927.012ZM549.824 900H550.824V899H549.824V900ZM549.824 918.75V919.75H550.824V918.75H549.824ZM514.574 935L513.787 934.383L513.784 934.388L514.574 935ZM502.574 1027V1028H503.574V1027H502.574ZM483.824 1027H482.824V1028H483.824V1027ZM483.824 902V901H482.824V902H483.824ZM502.574 902H503.574V901H502.574V902ZM502.574 932.75H501.574L503.53 933.044L502.574 932.75ZM528.574 904L528.994 904.908L529.002 904.904L529.01 904.9L528.574 904ZM548.824 900V918.75H550.824V900H548.824ZM549.824 917.75H547.574V919.75H549.824V917.75ZM547.574 917.75C533.76 917.75 522.473 923.313 513.787 934.383L515.361 935.617C523.676 925.02 534.388 919.75 547.574 919.75V917.75ZM513.784 934.388C505.635 944.914 501.574 957.468 501.574 972H503.574C503.574 957.866 507.514 945.753 515.365 935.612L513.784 934.388ZM501.574 972V1027H503.574V972H501.574ZM502.574 1026H483.824V1028H502.574V1026ZM484.824 1027V902H482.824V1027H484.824ZM483.824 903H502.574V901H483.824V903ZM501.574 902V932.75H503.574V902H501.574ZM503.53 933.044C507.439 920.339 515.895 910.966 528.994 904.908L528.154 903.092C514.587 909.367 505.709 919.161 501.618 932.456L503.53 933.044ZM529.01 904.9C534.342 902.315 540.851 901 548.574 901V899C540.631 899 533.807 900.352 528.138 903.1L529.01 904.9ZM548.574 901H549.824V899H548.574V901ZM664.332 1007H665.332V1003.76L663.506 1006.44L664.332 1007ZM575.582 1010.25L574.836 1010.92L574.841 1010.92L575.582 1010.25ZM575.582 918.75L574.841 918.078L574.836 918.084L575.582 918.75ZM664.332 922.25L663.507 922.815L665.332 925.478V922.25H664.332ZM664.332 902V901H663.332V902H664.332ZM683.082 902H684.082V901H683.082V902ZM683.082 1027V1028H684.082V1027H683.082ZM664.332 1027H663.332V1028H664.332V1027ZM654.082 998L653.32 997.353L653.316 997.357L654.082 998ZM654.082 931L653.316 931.643L653.32 931.647L654.082 931ZM589.582 931L588.836 930.334L588.834 930.337L589.582 931ZM589.582 998L588.834 998.663L588.836 998.666L589.582 998ZM663.506 1006.44C653.716 1020.79 639.13 1028 619.582 1028V1030C639.701 1030 654.948 1022.54 665.158 1007.56L663.506 1006.44ZM619.582 1028C601.843 1028 587.453 1021.85 576.323 1009.58L574.841 1010.92C586.378 1023.65 601.321 1030 619.582 1030V1028ZM576.328 1009.58C565.508 997.453 560.082 982.447 560.082 964.5H558.082C558.082 982.886 563.656 998.38 574.836 1010.92L576.328 1009.58ZM560.082 964.5C560.082 946.552 565.508 931.547 576.328 919.416L574.836 918.084C563.656 930.62 558.082 946.114 558.082 964.5H560.082ZM576.323 919.422C587.443 907.156 602.244 901 620.832 901V899C601.753 899 586.387 905.344 574.841 918.078L576.323 919.422ZM620.832 901C639.354 901 653.537 908.269 663.507 922.815L665.157 921.685C654.794 906.564 639.977 899 620.832 899V901ZM665.332 922.25V902H663.332V922.25H665.332ZM664.332 903H683.082V901H664.332V903ZM682.082 902V1027H684.082V902H682.082ZM683.082 1026H664.332V1028H683.082V1026ZM665.332 1027V1007H663.332V1027H665.332ZM622.082 1013C635.842 1013 646.803 1008.23 654.848 998.643L653.316 997.357C645.695 1006.44 635.323 1011 622.082 1011V1013ZM654.844 998.647C662.523 989.604 666.332 978.196 666.332 964.5H664.332C664.332 977.804 660.642 988.729 653.32 997.353L654.844 998.647ZM666.332 964.5C666.332 950.804 662.523 939.396 654.844 930.353L653.32 931.647C660.642 940.271 664.332 951.196 664.332 964.5H666.332ZM654.848 930.357C646.803 920.771 635.842 916 622.082 916V918C635.323 918 645.695 922.562 653.316 931.643L654.848 930.357ZM622.082 916C608.485 916 597.373 920.773 588.836 930.334L590.328 931.666C598.458 922.56 609.012 918 622.082 918V916ZM588.834 930.337C580.815 939.379 576.832 950.793 576.832 964.5H578.832C578.832 951.207 582.682 940.288 590.33 931.663L588.834 930.337ZM576.832 964.5C576.832 978.207 580.815 989.621 588.834 998.663L590.33 997.337C582.682 988.712 578.832 977.793 578.832 964.5H576.832ZM588.836 998.666C597.373 1008.23 608.485 1013 622.082 1013V1011C609.012 1011 598.458 1006.44 590.328 997.334L588.836 998.666ZM781.514 900H782.514V899H781.514V900ZM781.514 918.75V919.75H782.514V918.75H781.514ZM746.264 935L745.477 934.383L745.473 934.388L746.264 935ZM734.264 1027V1028H735.264V1027H734.264ZM715.514 1027H714.514V1028H715.514V1027ZM715.514 902V901H714.514V902H715.514ZM734.264 902H735.264V901H734.264V902ZM734.264 932.75H733.264L735.219 933.044L734.264 932.75ZM760.264 904L760.683 904.908L760.692 904.904L760.7 904.9L760.264 904ZM780.514 900V918.75H782.514V900H780.514ZM781.514 917.75H779.264V919.75H781.514V917.75ZM779.264 917.75C765.449 917.75 754.162 923.313 745.477 934.383L747.05 935.617C755.365 925.02 766.078 919.75 779.264 919.75V917.75ZM745.473 934.388C737.324 944.914 733.264 957.468 733.264 972H735.264C735.264 957.866 739.203 945.753 747.054 935.612L745.473 934.388ZM733.264 972V1027H735.264V972H733.264ZM734.264 1026H715.514V1028H734.264V1026ZM716.514 1027V902H714.514V1027H716.514ZM715.514 903H734.264V901H715.514V903ZM733.264 902V932.75H735.264V902H733.264ZM735.219 933.044C739.129 920.339 747.585 910.966 760.683 904.908L759.844 903.092C746.276 909.367 737.399 919.161 733.308 932.456L735.219 933.044ZM760.7 904.9C766.031 902.315 772.54 901 780.264 901V899C772.32 899 765.496 900.352 759.827 903.1L760.7 904.9ZM780.264 901H781.514V899H780.264V901ZM834.945 1076.5V1077.5H835.607L835.866 1076.89L834.945 1076.5ZM814.695 1076.5L813.781 1076.09L813.157 1077.5H814.695V1076.5ZM837.445 1025.25L838.359 1025.66L838.533 1025.26L838.369 1024.87L837.445 1025.25ZM786.445 902V901H784.949L785.521 902.382L786.445 902ZM807.195 902L808.126 901.634L807.877 901H807.195V902ZM847.445 1004.5L846.515 1004.87L847.437 1007.21L848.374 1004.87L847.445 1004.5ZM888.445 902V901H887.768L887.517 901.629L888.445 902ZM908.945 902L909.866 902.39L910.456 901H908.945V902ZM834.945 1075.5H814.695V1077.5H834.945V1075.5ZM815.609 1076.91L838.359 1025.66L836.531 1024.84L813.781 1076.09L815.609 1076.91ZM838.369 1024.87L787.369 901.618L785.521 902.382L836.521 1025.63L838.369 1024.87ZM786.445 903H807.195V901H786.445V903ZM806.265 902.366L846.515 1004.87L848.376 1004.13L808.126 901.634L806.265 902.366ZM848.374 1004.87L889.374 902.371L887.517 901.629L846.517 1004.13L848.374 1004.87ZM888.445 903H908.945V901H888.445V903ZM908.025 901.61L834.025 1076.11L835.866 1076.89L909.866 902.39L908.025 901.61Z" fill="black"/>
<path d="M607.508 595.969L639.917 608.485L653.741 595.969L630.625 575.042L607.508 595.969Z" fill="#DFDDE2"/>
<path d="M549.172 573.442L581.581 585.957L595.133 573.688L572.017 552.761L549.172 573.442Z" fill="#DFDDE2"/>
<path d="M622.874 682.51L685.288 626.006L520.005 562.178L492.265 587.291L622.874 682.51Z" fill="#EAB14D"/>
<path d="M608.754 672.216L622.873 682.51L685.288 626.006L663.747 617.687C647.075 634.153 628.053 653.026 608.754 672.216Z" fill="#E49542"/>
<path d="M767.012 740.367L753.187 711.028L767.012 698.513L790.129 719.44L767.012 740.367Z" fill="#DFDDE2"/>
<path d="M791.896 793.178L778.072 763.838L791.624 751.57L814.741 772.496L791.896 793.178Z" fill="#DFDDE2"/>
<path d="M540.232 833.709L578.374 799.179L593.4 854.636L578.374 868.239L540.232 833.709Z" fill="#EAB14D"/>
<path d="M584.11 820.349L578.374 799.178L540.232 833.708L553.338 845.573C560.298 839.873 570.991 831.109 584.11 820.349Z" fill="#E49542"/>
<path d="M671.418 726.456L733.833 669.953L804.339 819.583L776.599 844.695L671.418 726.456Z" fill="#EAB14D"/>
<path d="M743.022 689.454L733.833 669.953L671.418 726.456L682.788 739.238C703.986 721.768 724.834 704.547 743.022 689.454Z" fill="#E49542"/>
<path d="M504.401 801.272L542.543 766.742L481.285 753.139L466.259 766.742L504.401 801.272Z" fill="#EAB14D"/>
<path d="M491.295 789.407L504.401 801.272L542.544 766.742L519.158 761.549C507.272 773.425 497.592 783.106 491.295 789.407Z" fill="#E49542"/>
<path d="M787.001 577.873C771.043 563.426 744.814 563.747 729.21 577.873C706.538 598.398 531.851 773.089 501.406 803.551C498.874 806.085 498.983 809.969 501.653 812.385L514.804 824.291L527.955 836.196C530.624 838.612 534.914 838.711 537.713 836.419C571.362 808.858 764.328 650.716 787.001 630.19C802.605 616.066 802.96 592.32 787.001 577.873Z" fill="#F9F6F9"/>
<path d="M787.001 577.873C784.92 575.989 782.659 574.361 780.274 572.977C790.465 587.369 788.433 606.921 774.865 619.205C750.015 641.701 520.583 829.523 520.583 829.523L527.955 836.197C530.624 838.613 534.914 838.712 537.713 836.42C571.362 808.858 764.328 650.716 787.001 630.191C802.605 616.066 802.96 592.32 787.001 577.873Z" fill="#DFDDE2"/>
<path d="M795.409 618.968C801.871 605.486 799.236 588.949 787.001 577.873C774.766 566.797 756.499 564.412 741.607 570.262L795.409 618.968Z" fill="#818181"/>
<path d="M783.273 607.981L795.409 618.968C801.871 605.486 799.236 588.949 787.001 577.873C784.919 575.989 782.659 574.362 780.274 572.978C787.73 583.507 788.635 596.794 783.273 607.981Z" fill="#595959"/>
<path d="M746.296 633.557C747.324 634.487 748.67 634.952 750.015 634.952C751.361 634.952 752.707 634.487 753.734 633.557C757.354 630.28 759.431 625.621 759.431 620.774C759.431 615.927 757.354 611.267 753.734 607.99C746.079 601.06 733.147 601.06 725.492 607.99C723.438 609.849 723.438 612.864 725.492 614.723C727.546 616.582 730.875 616.582 732.929 614.723C736.426 611.556 742.797 611.556 746.297 614.723C747.959 616.228 748.912 618.433 748.912 620.773C748.912 623.113 747.959 625.319 746.296 626.824C744.243 628.684 744.243 631.699 746.296 633.557Z" fill="black"/>
<path d="M820 772.496C820 771.234 819.446 770.023 818.46 769.13L795.343 748.203C794.357 747.31 793.02 746.809 791.624 746.809C790.229 746.809 788.893 747.31 787.905 748.203L779.856 755.491L773.244 741.459L793.848 722.806C794.834 721.914 795.387 720.703 795.387 719.44C795.387 718.178 794.834 716.967 793.848 716.074L770.731 695.147C768.676 693.287 765.347 693.287 763.293 695.147L754.971 702.681L741.838 674.809C766.166 654.591 784.583 639.113 790.72 633.559C799.294 625.797 804.043 615.362 804.096 604.174C804.148 592.9 799.398 582.365 790.72 574.508C782.041 566.652 770.402 562.325 757.951 562.399C745.592 562.446 734.065 566.746 725.491 574.508C720.636 578.904 701.976 597.178 680.043 618.806L649.138 606.871L657.46 599.336C659.514 597.477 659.514 594.463 657.46 592.604L634.344 571.675C633.357 570.782 632.02 570.281 630.625 570.281C629.229 570.281 627.893 570.782 626.906 571.675L606.302 590.328L590.802 584.342L598.852 577.054C599.838 576.161 600.392 574.95 600.392 573.687C600.392 572.425 599.838 571.214 598.852 570.321L575.736 549.394C573.682 547.535 570.353 547.535 568.299 549.394L547.966 567.8L522.068 557.799C520.093 557.035 517.803 557.438 516.286 558.811L488.546 583.924C487.491 584.88 486.934 586.197 487.013 587.546C487.093 588.896 487.804 590.151 488.966 590.998L538.716 627.269C540.978 628.918 544.288 628.594 546.111 626.547C547.933 624.499 547.576 621.502 545.313 619.853L539.819 615.847L547.236 609.133C549.289 607.274 549.289 604.259 547.236 602.4C545.181 600.541 541.852 600.541 539.798 602.4L531.58 609.84L500.125 586.908L521.21 567.819L672.502 626.244C655.429 643.1 637.162 661.196 622.274 675.961L585.256 648.973L592.679 642.253C594.732 640.394 594.732 637.379 592.679 635.521C590.624 633.661 587.295 633.661 585.241 635.521L577.017 642.966L564.47 633.818C562.207 632.168 558.898 632.492 557.075 634.54C555.254 636.588 555.611 639.584 557.873 641.233L615.172 683.007C601.997 696.08 592.682 705.338 591.36 706.653C589.404 708.597 589.56 711.608 591.707 713.378C593.854 715.149 597.18 715.008 599.136 713.064C600.342 711.866 719.857 593.073 732.929 581.239C735.233 579.153 737.81 577.428 740.56 576.047L789.038 619.933C787.487 622.437 785.566 624.758 783.283 626.825C776.996 632.517 757.613 648.791 732.143 669.944C732.117 669.965 732.093 669.987 732.067 670.008C666.687 724.308 561.278 810.699 534.186 832.889C533.467 833.48 532.363 833.454 531.675 832.83L522.242 824.291L564.179 786.325C566.233 784.466 566.233 781.452 564.179 779.593C562.124 777.734 558.795 777.734 556.742 779.593L514.805 817.558L505.37 809.019C504.683 808.396 504.654 807.398 505.306 806.745C516.757 795.287 547.21 764.83 582.574 729.569C584.526 727.622 584.366 724.611 582.216 722.844C580.064 721.077 576.74 721.221 574.787 723.168C561.287 736.63 548.506 749.386 537.221 760.657L482.537 748.515C480.751 748.118 478.867 748.595 477.565 749.773L462.54 763.376C461.554 764.268 461 765.479 461 766.742C461 768.004 461.554 769.215 462.54 770.108L496.807 801.129C493.131 805.533 493.541 811.776 497.934 815.752L507.366 824.291L498.949 831.912C496.895 833.771 496.895 836.785 498.949 838.644C499.976 839.573 501.322 840.039 502.668 840.039C504.013 840.039 505.36 839.574 506.387 838.644L514.804 831.024L524.237 839.563C526.644 841.742 529.802 842.839 532.966 842.839C535.577 842.839 538.191 842.089 540.39 840.584L574.656 871.604C575.683 872.533 577.029 872.999 578.375 872.999C579.721 872.999 581.067 872.534 582.094 871.604L597.12 858.001C598.42 856.824 598.946 855.117 598.508 853.501L585.095 803.996C609.742 783.772 640.579 758.441 670.897 733.46L717.012 785.3C718.051 786.468 719.574 787.074 721.112 787.074C722.269 787.074 723.435 786.73 724.406 786.021C726.669 784.372 727.025 781.376 725.204 779.328L715.099 767.968L723.323 760.523C725.377 758.664 725.377 755.649 723.323 753.791C721.269 751.931 717.94 751.931 715.886 753.791L708.465 760.509L678.689 727.037C698.042 711.082 716.941 695.468 733.62 681.631L798.107 818.489L777.021 837.578L751.69 809.101L759.91 801.66C761.963 799.801 761.963 796.786 759.91 794.928C757.855 793.069 754.526 793.069 752.472 794.928L745.055 801.642L740.631 796.668C738.809 794.621 735.499 794.296 733.236 795.947C730.974 797.596 730.617 800.592 732.438 802.64L772.503 847.679C773.44 848.732 774.826 849.375 776.317 849.447C776.412 849.452 776.506 849.454 776.599 849.454C777.989 849.454 779.329 848.954 780.318 848.059L808.058 822.946C809.576 821.572 810.019 819.5 809.177 817.712L798.129 794.266L818.461 775.86C819.446 774.97 820 773.759 820 772.496ZM630.625 581.774L646.304 595.969L638.711 602.844L616.729 594.355L630.625 581.774ZM572.017 559.493L587.697 573.687L580.375 580.316L558.393 571.827L572.017 559.493ZM751.53 572.513C762.741 570.674 774.82 573.58 783.282 581.24C789.962 587.287 793.618 595.417 793.578 604.133C793.569 606.137 793.358 608.106 792.969 610.027L751.53 572.513ZM482.909 758.401L529.192 768.679C518.847 779.014 510.148 787.712 503.835 794.026L473.695 766.742L482.909 758.401ZM587.587 853.166L578.374 861.506L548.235 834.221C555.349 828.392 564.943 820.528 576.234 811.266L587.587 853.166ZM767.012 705.245L782.692 719.44L768.796 732.019L759.419 712.119L767.012 705.245ZM793.68 784.83L784.303 764.93L791.624 758.302L807.304 772.496L793.68 784.83Z" fill="black"/>
<path d="M1116.2 370H1101.2V237.6H1116.2V370ZM1155.28 370V283.2H1134.88V270H1155.28V234.2H1170.28V270H1193.28V283.2H1170.28V370H1155.28ZM1209.72 270H1224.72V370H1209.72V270ZM1225.32 233.6V253.2H1209.12V233.6H1225.32ZM1265.73 270V285.6C1269.33 280.8 1273.73 276.733 1278.93 273.4C1284.13 270.067 1290.07 268.4 1296.73 268.4C1303.4 268.4 1309.13 269.333 1313.93 271.2C1318.73 273.067 1322.93 275.867 1326.53 279.6C1334.8 287.733 1338.93 298.467 1338.93 311.8V370H1323.93V312.2C1323.93 303 1321.33 295.667 1316.13 290.2C1310.93 284.733 1304.2 282 1295.93 282C1287.53 282 1280.4 284.8 1274.53 290.4C1268.67 296.133 1265.73 303.467 1265.73 312.4V370H1250.73V270H1265.73ZM1408.62 358C1422.08 358 1431.75 352.4 1437.62 341.2H1454.02C1450.55 350.267 1445.02 357.6 1437.42 363.2C1429.95 368.8 1420.28 371.6 1408.42 371.6C1393.35 371.6 1381.08 366.6 1371.62 356.6C1362.42 346.867 1357.82 334.667 1357.82 320C1357.82 305.2 1362.22 293 1371.02 283.4C1380.35 273.4 1392.48 268.4 1407.42 268.4C1422.35 268.4 1434.48 273.4 1443.82 283.4C1452.62 293 1457.02 305.2 1457.02 320V326H1373.22C1374.28 335.2 1377.95 342.8 1384.22 348.8C1390.62 354.933 1398.75 358 1408.62 358ZM1407.42 282C1398.22 282 1390.48 284.867 1384.22 290.6C1378.35 296.067 1374.75 303.2 1373.42 312H1441.42C1440.08 303.2 1436.48 296.067 1430.62 290.6C1424.35 284.867 1416.62 282 1407.42 282ZM1528.14 268.4V283.4H1526.34C1515.54 283.4 1506.74 287.733 1499.94 296.4C1493.54 304.667 1490.34 314.533 1490.34 326V370H1475.34V270H1490.34V294.6C1493.54 284.2 1500.48 276.533 1511.14 271.6C1515.54 269.467 1520.88 268.4 1527.14 268.4H1528.14ZM1619.75 354C1611.75 365.733 1599.82 371.6 1583.95 371.6C1569.55 371.6 1557.82 366.6 1548.75 356.6C1539.95 346.733 1535.55 334.533 1535.55 320C1535.55 305.467 1539.95 293.267 1548.75 283.4C1557.82 273.4 1569.88 268.4 1584.95 268.4C1600.02 268.4 1611.62 274.333 1619.75 286.2V270H1634.75V370H1619.75V354ZM1585.95 358C1596.75 358 1605.28 354.267 1611.55 346.8C1617.55 339.733 1620.55 330.8 1620.55 320C1620.55 309.2 1617.55 300.267 1611.55 293.2C1605.28 285.733 1596.75 282 1585.95 282C1575.28 282 1566.62 285.733 1559.95 293.2C1553.68 300.267 1550.55 309.2 1550.55 320C1550.55 330.8 1553.68 339.733 1559.95 346.8C1566.62 354.267 1575.28 358 1585.95 358ZM1713.5 268.4V283.4H1711.7C1700.9 283.4 1692.1 287.733 1685.3 296.4C1678.9 304.667 1675.7 314.533 1675.7 326V370H1660.7V270H1675.7V294.6C1678.9 284.2 1685.83 276.533 1696.5 271.6C1700.9 269.467 1706.23 268.4 1712.5 268.4H1713.5ZM1729.64 270H1744.64V370H1729.64V270ZM1745.24 233.6V253.2H1729.04V233.6H1745.24ZM1815.26 358C1828.72 358 1838.39 352.4 1844.26 341.2H1860.66C1857.19 350.267 1851.66 357.6 1844.06 363.2C1836.59 368.8 1826.92 371.6 1815.06 371.6C1799.99 371.6 1787.72 366.6 1778.26 356.6C1769.06 346.867 1764.46 334.667 1764.46 320C1764.46 305.2 1768.86 293 1777.66 283.4C1786.99 273.4 1799.12 268.4 1814.06 268.4C1828.99 268.4 1841.12 273.4 1850.46 283.4C1859.26 293 1863.66 305.2 1863.66 320V326H1779.86C1780.92 335.2 1784.59 342.8 1790.86 348.8C1797.26 354.933 1805.39 358 1815.26 358ZM1814.06 282C1804.86 282 1797.12 284.867 1790.86 290.6C1784.99 296.067 1781.39 303.2 1780.06 312H1848.06C1846.72 303.2 1843.12 296.067 1837.26 290.6C1830.99 284.867 1823.26 282 1814.06 282ZM1940.78 296.8C1939.45 286.4 1931.05 281.2 1915.58 281.2C1900.25 281.2 1892.58 286 1892.58 295.6C1892.58 299.6 1894.18 302.667 1897.38 304.8C1900.72 306.8 1904.85 308.467 1909.78 309.8C1914.72 311.133 1920.05 312.4 1925.78 313.6C1931.65 314.667 1937.05 316.267 1941.98 318.4C1946.92 320.4 1950.98 323.2 1954.18 326.8C1957.52 330.4 1959.18 335.333 1959.18 341.6C1959.18 351.333 1955.52 358.8 1948.18 364C1940.85 369.067 1930.92 371.6 1918.38 371.6C1905.05 371.6 1894.45 368.267 1886.58 361.6C1879.38 355.733 1875.52 348.067 1874.98 338.6H1890.58C1891.52 347.8 1896.72 354 1906.18 357.2C1909.65 358.267 1913.05 358.8 1916.38 358.8C1919.85 358.8 1923.05 358.6 1925.98 358.2C1928.92 357.8 1931.78 357.067 1934.58 356C1940.98 353.467 1944.18 349.133 1944.18 343C1944.18 338.867 1942.52 335.733 1939.18 333.6C1935.98 331.333 1931.92 329.533 1926.98 328.2C1922.05 326.733 1916.65 325.467 1910.78 324.4C1905.05 323.2 1899.72 321.6 1894.78 319.6C1889.85 317.6 1885.72 314.867 1882.38 311.4C1879.18 307.933 1877.58 303.133 1877.58 297C1877.58 287.933 1880.85 280.933 1887.38 276C1894.05 270.933 1903.85 268.4 1916.78 268.4C1929.05 268.4 1938.72 271.333 1945.78 277.2C1951.65 282.133 1955.05 288.667 1955.98 296.8H1940.78ZM2036.05 270V285.6C2039.65 280.8 2044.05 276.733 2049.25 273.4C2054.45 270.067 2060.38 268.4 2067.05 268.4C2073.71 268.4 2079.45 269.333 2084.25 271.2C2089.05 273.067 2093.25 275.867 2096.85 279.6C2105.11 287.733 2109.25 298.467 2109.25 311.8V370H2094.25V312.2C2094.25 303 2091.65 295.667 2086.45 290.2C2081.25 284.733 2074.51 282 2066.25 282C2057.85 282 2050.71 284.8 2044.85 290.4C2038.98 296.133 2036.05 303.467 2036.05 312.4V370H2021.05V270H2036.05ZM2177.73 268.4C2192.66 268.4 2204.79 273.4 2214.13 283.4C2222.93 293 2227.33 305.2 2227.33 320C2227.33 334.8 2222.93 347 2214.13 356.6C2204.79 366.6 2192.66 371.6 2177.73 371.6C2162.79 371.6 2150.66 366.6 2141.33 356.6C2132.53 347 2128.13 334.8 2128.13 320C2128.13 305.2 2132.53 293 2141.33 283.4C2150.66 273.4 2162.79 268.4 2177.73 268.4ZM2177.73 358C2188.53 358 2197.06 354.267 2203.33 346.8C2209.33 339.733 2212.33 330.8 2212.33 320C2212.33 309.2 2209.33 300.267 2203.33 293.2C2197.06 285.733 2188.53 282 2177.73 282C2166.93 282 2158.39 285.733 2152.13 293.2C2146.13 300.267 2143.13 309.2 2143.13 320C2143.13 330.8 2146.13 339.733 2152.13 346.8C2158.39 354.267 2166.93 358 2177.73 358ZM2256.26 370V283.2H2235.86V270H2256.26V234.2H2271.26V270H2294.26V283.2H2271.26V370H2256.26Z" fill="#EAB14D"/>
<path d="M1038.68 387.678C1048.44 377.915 1048.44 362.085 1038.68 352.322L879.579 193.223C869.816 183.46 853.986 183.46 844.223 193.223C834.46 202.986 834.46 218.816 844.223 228.579L985.645 370L844.223 511.421C834.46 521.184 834.46 537.014 844.223 546.777C853.986 556.54 869.816 556.54 879.579 546.777L1038.68 387.678ZM282 395H1021V345H282V395Z" fill="#EAB14D"/>
<path d="M1189.58 561C1181.58 572.733 1169.64 578.6 1153.78 578.6C1139.38 578.6 1127.64 573.6 1118.58 563.6C1109.78 553.733 1105.38 541.533 1105.38 527C1105.38 512.467 1109.78 500.267 1118.58 490.4C1127.64 480.4 1139.71 475.4 1154.78 475.4C1169.84 475.4 1181.44 481.333 1189.58 493.2V477H1204.58V577H1189.58V561ZM1155.78 565C1166.58 565 1175.11 561.267 1181.38 553.8C1187.38 546.733 1190.38 537.8 1190.38 527C1190.38 516.2 1187.38 507.267 1181.38 500.2C1175.11 492.733 1166.58 489 1155.78 489C1145.11 489 1136.44 492.733 1129.78 500.2C1123.51 507.267 1120.38 516.2 1120.38 527C1120.38 537.8 1123.51 546.733 1129.78 553.8C1136.44 561.267 1145.11 565 1155.78 565ZM1314.32 477L1275.32 577H1257.72L1218.52 477H1234.92L1266.52 561L1297.92 477H1314.32ZM1405.2 561C1397.2 572.733 1385.27 578.6 1369.4 578.6C1355 578.6 1343.27 573.6 1334.2 563.6C1325.4 553.733 1321 541.533 1321 527C1321 512.467 1325.4 500.267 1334.2 490.4C1343.27 480.4 1355.34 475.4 1370.4 475.4C1385.47 475.4 1397.07 481.333 1405.2 493.2V477H1420.2V577H1405.2V561ZM1371.4 565C1382.2 565 1390.74 561.267 1397 553.8C1403 546.733 1406 537.8 1406 527C1406 516.2 1403 507.267 1397 500.2C1390.74 492.733 1382.2 489 1371.4 489C1360.74 489 1352.07 492.733 1345.4 500.2C1339.14 507.267 1336 516.2 1336 527C1336 537.8 1339.14 546.733 1345.4 553.8C1352.07 561.267 1360.74 565 1371.4 565ZM1446.15 477H1461.15V577H1446.15V477ZM1461.75 440.6V460.2H1445.55V440.6H1461.75ZM1502.16 577H1487.16V437H1502.16V577ZM1606.18 561C1598.18 572.733 1586.25 578.6 1570.38 578.6C1555.98 578.6 1544.25 573.6 1535.18 563.6C1526.38 553.733 1521.98 541.533 1521.98 527C1521.98 512.467 1526.38 500.267 1535.18 490.4C1544.25 480.4 1556.31 475.4 1571.38 475.4C1586.45 475.4 1598.05 481.333 1606.18 493.2V477H1621.18V577H1606.18V561ZM1572.38 565C1583.18 565 1591.71 561.267 1597.98 553.8C1603.98 546.733 1606.98 537.8 1606.98 527C1606.98 516.2 1603.98 507.267 1597.98 500.2C1591.71 492.733 1583.18 489 1572.38 489C1561.71 489 1553.05 492.733 1546.38 500.2C1540.11 507.267 1536.98 516.2 1536.98 527C1536.98 537.8 1540.11 546.733 1546.38 553.8C1553.05 561.267 1561.71 565 1572.38 565ZM1662.13 493.2C1670.26 481.333 1682.19 475.4 1697.93 475.4C1712.33 475.4 1723.99 480.4 1732.93 490.4C1741.86 500.267 1746.33 512.467 1746.33 527C1746.33 541.533 1741.86 553.733 1732.93 563.6C1723.99 573.6 1711.93 578.6 1696.73 578.6C1681.66 578.6 1670.13 572.733 1662.13 561V577H1647.13V437H1662.13V493.2ZM1695.93 565C1706.59 565 1715.26 561.267 1721.93 553.8C1728.19 546.733 1731.33 537.8 1731.33 527C1731.33 516.2 1728.19 507.267 1721.93 500.2C1715.26 492.733 1706.59 489 1695.93 489C1685.13 489 1676.59 492.733 1670.33 500.2C1664.33 507.267 1661.33 516.2 1661.33 527C1661.33 537.8 1664.33 546.733 1670.33 553.8C1676.59 561.267 1685.13 565 1695.93 565ZM1780.88 577H1765.88V437H1780.88V577ZM1851.49 565C1864.96 565 1874.62 559.4 1880.49 548.2H1896.89C1893.42 557.267 1887.89 564.6 1880.29 570.2C1872.82 575.8 1863.16 578.6 1851.29 578.6C1836.22 578.6 1823.96 573.6 1814.49 563.6C1805.29 553.867 1800.69 541.667 1800.69 527C1800.69 512.2 1805.09 500 1813.89 490.4C1823.22 480.4 1835.36 475.4 1850.29 475.4C1865.22 475.4 1877.36 480.4 1886.69 490.4C1895.49 500 1899.89 512.2 1899.89 527V533H1816.09C1817.16 542.2 1820.82 549.8 1827.09 555.8C1833.49 561.933 1841.62 565 1851.49 565ZM1850.29 489C1841.09 489 1833.36 491.867 1827.09 497.6C1821.22 503.067 1817.62 510.2 1816.29 519H1884.29C1882.96 510.2 1879.36 503.067 1873.49 497.6C1867.22 491.867 1859.49 489 1850.29 489ZM1935.22 556.6V577H1915.82V556.6H1935.22Z" fill="#EAB14D"/>
</svg>
