<svg width="517" height="365" viewBox="0 0 517 365" fill="none" xmlns="http://www.w3.org/2000/svg">
<path d="M258 205C315.99 205 363 159.109 363 102.5C363 45.8908 315.99 0 258 0C200.01 0 153 45.8908 153 102.5C153 159.109 200.01 205 258 205Z" fill="#EAB14D"/>
<path d="M299.764 157.824C298.084 157.824 296.404 157.197 295.117 155.954C275.272 136.581 240.701 136.581 220.869 155.954C218.31 158.452 214.149 158.452 211.59 155.954C209.031 153.455 209.031 149.394 211.59 146.895C223.993 134.8 240.465 128.125 258 128.125C275.535 128.125 292.007 134.8 304.397 146.895C306.956 149.394 306.956 153.455 304.397 155.954C303.124 157.209 301.444 157.824 299.764 157.824Z" fill="#334780"/>
<path d="M218.625 89.6875C225.874 89.6875 231.75 83.9511 231.75 76.875C231.75 69.7989 225.874 64.0625 218.625 64.0625C211.376 64.0625 205.5 69.7989 205.5 76.875C205.5 83.9511 211.376 89.6875 218.625 89.6875Z" fill="#334780"/>
<path d="M297.375 89.6875C304.624 89.6875 310.5 83.9511 310.5 76.875C310.5 69.7989 304.624 64.0625 297.375 64.0625C290.126 64.0625 284.25 69.7989 284.25 76.875C284.25 83.9511 290.126 89.6875 297.375 89.6875Z" fill="#334780"/>
<path d="M176.273 262.311H164.848V294H160.185V262.311H148.783V258.453H176.273V262.311ZM185.355 270.782C187.357 268.325 189.962 267.096 193.168 267.096C198.751 267.096 201.566 270.245 201.615 276.544V294H197.099V276.52C197.082 274.615 196.643 273.207 195.78 272.296C194.934 271.384 193.607 270.929 191.801 270.929C190.336 270.929 189.05 271.319 187.943 272.101C186.837 272.882 185.974 273.907 185.355 275.177V294H180.839V256.5H185.355V270.782ZM219.34 294.488C215.759 294.488 212.846 293.316 210.6 290.973C208.354 288.613 207.23 285.463 207.23 281.524V280.694C207.23 278.074 207.727 275.738 208.72 273.688C209.729 271.62 211.129 270.009 212.919 268.854C214.726 267.682 216.679 267.096 218.778 267.096C222.213 267.096 224.882 268.227 226.786 270.489C228.69 272.752 229.643 275.991 229.643 280.206V282.086H211.747C211.812 284.69 212.569 286.798 214.018 288.409C215.482 290.004 217.338 290.802 219.584 290.802C221.179 290.802 222.53 290.476 223.637 289.825C224.743 289.174 225.712 288.312 226.542 287.237L229.301 289.386C227.087 292.787 223.767 294.488 219.34 294.488ZM218.778 270.807C216.955 270.807 215.425 271.474 214.188 272.809C212.951 274.127 212.187 275.982 211.894 278.375H225.126V278.033C224.996 275.738 224.377 273.964 223.271 272.711C222.164 271.441 220.666 270.807 218.778 270.807ZM247.66 271.637C246.977 271.523 246.236 271.466 245.438 271.466C242.476 271.466 240.466 272.727 239.408 275.25V294H234.892V267.584H239.286L239.359 270.636C240.84 268.276 242.94 267.096 245.658 267.096C246.537 267.096 247.204 267.21 247.66 267.438V271.637ZM262.309 294.488C258.728 294.488 255.814 293.316 253.568 290.973C251.322 288.613 250.199 285.463 250.199 281.524V280.694C250.199 278.074 250.696 275.738 251.688 273.688C252.698 271.62 254.097 270.009 255.888 268.854C257.694 267.682 259.647 267.096 261.747 267.096C265.181 267.096 267.851 268.227 269.755 270.489C271.659 272.752 272.611 275.991 272.611 280.206V282.086H254.716C254.781 284.69 255.538 286.798 256.986 288.409C258.451 290.004 260.307 290.802 262.553 290.802C264.148 290.802 265.499 290.476 266.605 289.825C267.712 289.174 268.681 288.312 269.511 287.237L272.27 289.386C270.056 292.787 266.736 294.488 262.309 294.488ZM261.747 270.807C259.924 270.807 258.394 271.474 257.157 272.809C255.92 274.127 255.155 275.982 254.862 278.375H268.095V278.033C267.965 275.738 267.346 273.964 266.239 272.711C265.132 271.441 263.635 270.807 261.747 270.807ZM306.571 294C306.311 293.479 306.099 292.551 305.937 291.217C303.837 293.398 301.33 294.488 298.417 294.488C295.813 294.488 293.673 293.756 291.996 292.291C290.336 290.81 289.506 288.938 289.506 286.676C289.506 283.925 290.548 281.793 292.631 280.279C294.73 278.749 297.676 277.984 301.469 277.984H305.863V275.909C305.863 274.33 305.391 273.077 304.447 272.149C303.503 271.205 302.112 270.733 300.272 270.733C298.661 270.733 297.31 271.14 296.22 271.954C295.129 272.768 294.584 273.753 294.584 274.908H290.043C290.043 273.59 290.507 272.32 291.435 271.1C292.379 269.863 293.648 268.886 295.243 268.17C296.854 267.454 298.62 267.096 300.541 267.096C303.585 267.096 305.969 267.861 307.694 269.391C309.42 270.904 310.315 272.996 310.38 275.665V287.823C310.38 290.248 310.689 292.177 311.308 293.609V294H306.571ZM299.076 290.558C300.492 290.558 301.835 290.191 303.104 289.459C304.374 288.727 305.294 287.774 305.863 286.603V281.183H302.323C296.789 281.183 294.022 282.802 294.022 286.041C294.022 287.457 294.494 288.564 295.438 289.361C296.382 290.159 297.595 290.558 299.076 290.558ZM330.229 271.637C329.545 271.523 328.804 271.466 328.007 271.466C325.045 271.466 323.035 272.727 321.977 275.25V294H317.46V267.584H321.854L321.928 270.636C323.409 268.276 325.508 267.096 328.227 267.096C329.105 267.096 329.773 267.21 330.229 267.438V271.637ZM344.877 294.488C341.296 294.488 338.383 293.316 336.137 290.973C333.891 288.613 332.768 285.463 332.768 281.524V280.694C332.768 278.074 333.264 275.738 334.257 273.688C335.266 271.62 336.666 270.009 338.456 268.854C340.263 267.682 342.216 267.096 344.315 267.096C347.75 267.096 350.419 268.227 352.323 270.489C354.228 272.752 355.18 275.991 355.18 280.206V282.086H337.284C337.349 284.69 338.106 286.798 339.555 288.409C341.02 290.004 342.875 290.802 345.121 290.802C346.716 290.802 348.067 290.476 349.174 289.825C350.281 289.174 351.249 288.312 352.079 287.237L354.838 289.386C352.624 292.787 349.304 294.488 344.877 294.488ZM344.315 270.807C342.493 270.807 340.963 271.474 339.726 272.809C338.489 274.127 337.724 275.982 337.431 278.375H350.663V278.033C350.533 275.738 349.914 273.964 348.808 272.711C347.701 271.441 346.203 270.807 344.315 270.807ZM8.08496 326.584L8.23145 329.904C10.2497 327.365 12.8864 326.096 16.1416 326.096C21.7243 326.096 24.54 329.245 24.5889 335.544V353H20.0723V335.52C20.056 333.615 19.6165 332.207 18.7539 331.296C17.9076 330.384 16.5811 329.929 14.7744 329.929C13.3096 329.929 12.0238 330.319 10.917 331.101C9.81022 331.882 8.94759 332.907 8.3291 334.177V353H3.8125V326.584H8.08496ZM30.2041 339.548C30.2041 336.96 30.7087 334.632 31.7178 332.565C32.7432 330.498 34.1592 328.903 35.9658 327.78C37.7887 326.657 39.8639 326.096 42.1914 326.096C45.7884 326.096 48.6937 327.341 50.9072 329.831C53.137 332.321 54.252 335.633 54.252 339.768V340.085C54.252 342.657 53.7555 344.968 52.7627 347.019C51.7861 349.053 50.3783 350.64 48.5391 351.779C46.7161 352.919 44.6165 353.488 42.2402 353.488C38.6595 353.488 35.7542 352.243 33.5244 349.753C31.3109 347.263 30.2041 343.967 30.2041 339.865V339.548ZM34.7451 340.085C34.7451 343.015 35.4206 345.367 36.7715 347.141C38.1387 348.915 39.9616 349.802 42.2402 349.802C44.5352 349.802 46.3581 348.907 47.709 347.116C49.0599 345.31 49.7354 342.787 49.7354 339.548C49.7354 336.651 49.0436 334.307 47.6602 332.517C46.293 330.71 44.4701 329.807 42.1914 329.807C39.9616 329.807 38.1631 330.694 36.7959 332.468C35.4287 334.242 34.7451 336.781 34.7451 340.085ZM85.0869 330.637C84.4033 330.523 83.6628 330.466 82.8652 330.466C79.903 330.466 77.8929 331.727 76.835 334.25V353H72.3184V326.584H76.7129L76.7861 329.636C78.2673 327.276 80.3669 326.096 83.085 326.096C83.9639 326.096 84.6312 326.21 85.0869 326.438V330.637ZM99.7354 353.488C96.1546 353.488 93.2412 352.316 90.9951 349.973C88.749 347.613 87.626 344.463 87.626 340.524V339.694C87.626 337.074 88.1224 334.738 89.1152 332.688C90.1243 330.62 91.5241 329.009 93.3145 327.854C95.1211 326.682 97.0742 326.096 99.1738 326.096C102.608 326.096 105.277 327.227 107.182 329.489C109.086 331.752 110.038 334.991 110.038 339.206V341.086H92.1426C92.2077 343.69 92.9645 345.798 94.4131 347.409C95.8779 349.004 97.7334 349.802 99.9795 349.802C101.575 349.802 102.925 349.476 104.032 348.825C105.139 348.174 106.107 347.312 106.938 346.237L109.696 348.386C107.483 351.787 104.162 353.488 99.7354 353.488ZM99.1738 329.807C97.3509 329.807 95.821 330.474 94.584 331.809C93.347 333.127 92.582 334.982 92.2891 337.375H105.521V337.033C105.391 334.738 104.773 332.964 103.666 331.711C102.559 330.441 101.062 329.807 99.1738 329.807ZM114.213 339.572C114.213 335.454 115.165 332.183 117.069 329.758C118.974 327.316 121.496 326.096 124.638 326.096C127.86 326.096 130.375 327.235 132.182 329.514L132.401 326.584H136.527V352.365C136.527 355.783 135.51 358.477 133.476 360.446C131.457 362.416 128.739 363.4 125.321 363.4C123.417 363.4 121.553 362.993 119.73 362.18C117.908 361.366 116.516 360.251 115.556 358.835L117.899 356.125C119.836 358.518 122.204 359.714 125.004 359.714C127.201 359.714 128.91 359.095 130.131 357.858C131.368 356.621 131.986 354.88 131.986 352.634V350.363C130.18 352.447 127.714 353.488 124.589 353.488C121.496 353.488 118.99 352.243 117.069 349.753C115.165 347.263 114.213 343.869 114.213 339.572ZM118.754 340.085C118.754 343.063 119.364 345.407 120.585 347.116C121.806 348.809 123.515 349.655 125.712 349.655C128.56 349.655 130.652 348.361 131.986 345.773V333.713C130.603 331.19 128.528 329.929 125.761 329.929C123.563 329.929 121.846 330.783 120.609 332.492C119.372 334.201 118.754 336.732 118.754 340.085ZM148.271 353H143.754V326.584H148.271V353ZM143.388 319.577C143.388 318.845 143.607 318.226 144.047 317.722C144.503 317.217 145.17 316.965 146.049 316.965C146.928 316.965 147.595 317.217 148.051 317.722C148.507 318.226 148.734 318.845 148.734 319.577C148.734 320.31 148.507 320.92 148.051 321.408C147.595 321.896 146.928 322.141 146.049 322.141C145.17 322.141 144.503 321.896 144.047 321.408C143.607 320.92 143.388 320.31 143.388 319.577ZM170.902 345.993C170.902 344.772 170.438 343.828 169.511 343.161C168.599 342.478 166.996 341.892 164.701 341.403C162.423 340.915 160.608 340.329 159.257 339.646C157.922 338.962 156.929 338.148 156.278 337.204C155.644 336.26 155.326 335.137 155.326 333.835C155.326 331.67 156.238 329.839 158.061 328.342C159.9 326.844 162.243 326.096 165.092 326.096C168.087 326.096 170.512 326.869 172.367 328.415C174.239 329.961 175.175 331.939 175.175 334.348H170.634C170.634 333.111 170.105 332.045 169.047 331.149C168.005 330.254 166.687 329.807 165.092 329.807C163.448 329.807 162.162 330.165 161.234 330.881C160.307 331.597 159.843 332.533 159.843 333.688C159.843 334.779 160.274 335.601 161.137 336.154C161.999 336.708 163.554 337.237 165.8 337.741C168.062 338.246 169.893 338.848 171.293 339.548C172.693 340.248 173.726 341.094 174.394 342.087C175.077 343.063 175.419 344.26 175.419 345.676C175.419 348.036 174.475 349.932 172.587 351.364C170.699 352.78 168.249 353.488 165.238 353.488C163.122 353.488 161.251 353.114 159.623 352.365C157.995 351.617 156.718 350.575 155.79 349.24C154.879 347.889 154.423 346.433 154.423 344.87H158.939C159.021 346.384 159.623 347.588 160.746 348.483C161.885 349.362 163.383 349.802 165.238 349.802C166.947 349.802 168.314 349.46 169.34 348.776C170.382 348.076 170.902 347.149 170.902 345.993ZM187.431 320.188V326.584H192.362V330.075H187.431V346.457C187.431 347.515 187.65 348.312 188.09 348.85C188.529 349.37 189.278 349.631 190.336 349.631C190.857 349.631 191.573 349.533 192.484 349.338V353C191.296 353.326 190.141 353.488 189.018 353.488C186.999 353.488 185.478 352.878 184.452 351.657C183.427 350.437 182.914 348.703 182.914 346.457V330.075H178.104V326.584H182.914V320.188H187.431ZM208.622 353.488C205.041 353.488 202.128 352.316 199.882 349.973C197.636 347.613 196.513 344.463 196.513 340.524V339.694C196.513 337.074 197.009 334.738 198.002 332.688C199.011 330.62 200.411 329.009 202.201 327.854C204.008 326.682 205.961 326.096 208.061 326.096C211.495 326.096 214.164 327.227 216.068 329.489C217.973 331.752 218.925 334.991 218.925 339.206V341.086H201.029C201.094 343.69 201.851 345.798 203.3 347.409C204.765 349.004 206.62 349.802 208.866 349.802C210.461 349.802 211.812 349.476 212.919 348.825C214.026 348.174 214.994 347.312 215.824 346.237L218.583 348.386C216.369 351.787 213.049 353.488 208.622 353.488ZM208.061 329.807C206.238 329.807 204.708 330.474 203.471 331.809C202.234 333.127 201.469 334.982 201.176 337.375H214.408V337.033C214.278 334.738 213.66 332.964 212.553 331.711C211.446 330.441 209.949 329.807 208.061 329.807ZM236.942 330.637C236.259 330.523 235.518 330.466 234.721 330.466C231.758 330.466 229.748 331.727 228.69 334.25V353H224.174V326.584H228.568L228.642 329.636C230.123 327.276 232.222 326.096 234.94 326.096C235.819 326.096 236.487 326.21 236.942 326.438V330.637ZM251.591 353.488C248.01 353.488 245.097 352.316 242.851 349.973C240.604 347.613 239.481 344.463 239.481 340.524V339.694C239.481 337.074 239.978 334.738 240.971 332.688C241.98 330.62 243.38 329.009 245.17 327.854C246.977 326.682 248.93 326.096 251.029 326.096C254.464 326.096 257.133 327.227 259.037 329.489C260.941 331.752 261.894 334.991 261.894 339.206V341.086H243.998C244.063 343.69 244.82 345.798 246.269 347.409C247.733 349.004 249.589 349.802 251.835 349.802C253.43 349.802 254.781 349.476 255.888 348.825C256.994 348.174 257.963 347.312 258.793 346.237L261.552 348.386C259.338 351.787 256.018 353.488 251.591 353.488ZM251.029 329.807C249.206 329.807 247.676 330.474 246.439 331.809C245.202 333.127 244.438 334.982 244.145 337.375H257.377V337.033C257.247 334.738 256.628 332.964 255.521 331.711C254.415 330.441 252.917 329.807 251.029 329.807ZM266.044 339.572C266.044 335.52 267.004 332.264 268.925 329.807C270.845 327.333 273.36 326.096 276.469 326.096C279.561 326.096 282.011 327.154 283.817 329.27V315.5H288.334V353H284.184L283.964 350.168C282.157 352.382 279.643 353.488 276.42 353.488C273.36 353.488 270.862 352.235 268.925 349.729C267.004 347.222 266.044 343.951 266.044 339.914V339.572ZM270.561 340.085C270.561 343.08 271.179 345.424 272.416 347.116C273.653 348.809 275.362 349.655 277.543 349.655C280.408 349.655 282.499 348.369 283.817 345.798V333.664C282.466 331.174 280.391 329.929 277.592 329.929C275.378 329.929 273.653 330.783 272.416 332.492C271.179 334.201 270.561 336.732 270.561 340.085ZM324.076 353C323.816 352.479 323.604 351.551 323.441 350.217C321.342 352.398 318.835 353.488 315.922 353.488C313.318 353.488 311.177 352.756 309.501 351.291C307.841 349.81 307.011 347.938 307.011 345.676C307.011 342.925 308.052 340.793 310.136 339.279C312.235 337.749 315.181 336.984 318.974 336.984H323.368V334.909C323.368 333.33 322.896 332.077 321.952 331.149C321.008 330.205 319.617 329.733 317.777 329.733C316.166 329.733 314.815 330.14 313.725 330.954C312.634 331.768 312.089 332.753 312.089 333.908H307.548C307.548 332.59 308.012 331.32 308.939 330.1C309.883 328.863 311.153 327.886 312.748 327.17C314.359 326.454 316.125 326.096 318.046 326.096C321.09 326.096 323.474 326.861 325.199 328.391C326.924 329.904 327.82 331.996 327.885 334.665V346.823C327.885 349.248 328.194 351.177 328.812 352.609V353H324.076ZM316.581 349.558C317.997 349.558 319.34 349.191 320.609 348.459C321.879 347.727 322.799 346.774 323.368 345.603V340.183H319.828C314.294 340.183 311.527 341.802 311.527 345.041C311.527 346.457 311.999 347.564 312.943 348.361C313.887 349.159 315.1 349.558 316.581 349.558ZM345.561 349.802C347.172 349.802 348.58 349.313 349.784 348.337C350.989 347.36 351.656 346.14 351.786 344.675H356.059C355.977 346.188 355.456 347.629 354.496 348.996C353.536 350.363 352.25 351.454 350.639 352.268C349.044 353.081 347.351 353.488 345.561 353.488C341.964 353.488 339.099 352.292 336.967 349.899C334.851 347.491 333.793 344.203 333.793 340.036V339.279C333.793 336.708 334.265 334.421 335.209 332.419C336.153 330.417 337.504 328.863 339.262 327.756C341.036 326.649 343.127 326.096 345.536 326.096C348.498 326.096 350.956 326.983 352.909 328.757C354.879 330.531 355.928 332.834 356.059 335.666H351.786C351.656 333.957 351.005 332.557 349.833 331.467C348.677 330.36 347.245 329.807 345.536 329.807C343.241 329.807 341.459 330.637 340.189 332.297C338.936 333.941 338.31 336.325 338.31 339.45V340.305C338.31 343.348 338.936 345.692 340.189 347.336C341.443 348.98 343.233 349.802 345.561 349.802ZM367.265 320.188V326.584H372.196V330.075H367.265V346.457C367.265 347.515 367.484 348.312 367.924 348.85C368.363 349.37 369.112 349.631 370.17 349.631C370.691 349.631 371.407 349.533 372.318 349.338V353C371.13 353.326 369.975 353.488 368.852 353.488C366.833 353.488 365.312 352.878 364.286 351.657C363.261 350.437 362.748 348.703 362.748 346.457V330.075H357.938V326.584H362.748V320.188H367.265ZM382.401 353H377.885V326.584H382.401V353ZM377.519 319.577C377.519 318.845 377.738 318.226 378.178 317.722C378.633 317.217 379.301 316.965 380.18 316.965C381.059 316.965 381.726 317.217 382.182 317.722C382.637 318.226 382.865 318.845 382.865 319.577C382.865 320.31 382.637 320.92 382.182 321.408C381.726 321.896 381.059 322.141 380.18 322.141C379.301 322.141 378.633 321.896 378.178 321.408C377.738 320.92 377.519 320.31 377.519 319.577ZM398.368 346.872L404.911 326.584H409.525L400.053 353H396.61L387.04 326.584H391.654L398.368 346.872ZM418.778 353H414.262V326.584H418.778V353ZM413.896 319.577C413.896 318.845 414.115 318.226 414.555 317.722C415.01 317.217 415.678 316.965 416.557 316.965C417.436 316.965 418.103 317.217 418.559 317.722C419.014 318.226 419.242 318.845 419.242 319.577C419.242 320.31 419.014 320.92 418.559 321.408C418.103 321.896 417.436 322.141 416.557 322.141C415.678 322.141 415.01 321.896 414.555 321.408C414.115 320.92 413.896 320.31 413.896 319.577ZM432.157 320.188V326.584H437.089V330.075H432.157V346.457C432.157 347.515 432.377 348.312 432.816 348.85C433.256 349.37 434.005 349.631 435.062 349.631C435.583 349.631 436.299 349.533 437.211 349.338V353C436.023 353.326 434.867 353.488 433.744 353.488C431.726 353.488 430.204 352.878 429.179 351.657C428.153 350.437 427.641 348.703 427.641 346.457V330.075H422.831V326.584H427.641V320.188H432.157ZM447.294 353H442.777V326.584H447.294V353ZM442.411 319.577C442.411 318.845 442.631 318.226 443.07 317.722C443.526 317.217 444.193 316.965 445.072 316.965C445.951 316.965 446.618 317.217 447.074 317.722C447.53 318.226 447.758 318.845 447.758 319.577C447.758 320.31 447.53 320.92 447.074 321.408C446.618 321.896 445.951 322.141 445.072 322.141C444.193 322.141 443.526 321.896 443.07 321.408C442.631 320.92 442.411 320.31 442.411 319.577ZM465.507 353.488C461.926 353.488 459.013 352.316 456.767 349.973C454.521 347.613 453.397 344.463 453.397 340.524V339.694C453.397 337.074 453.894 334.738 454.887 332.688C455.896 330.62 457.296 329.009 459.086 327.854C460.893 326.682 462.846 326.096 464.945 326.096C468.38 326.096 471.049 327.227 472.953 329.489C474.857 331.752 475.81 334.991 475.81 339.206V341.086H457.914C457.979 343.69 458.736 345.798 460.185 347.409C461.649 349.004 463.505 349.802 465.751 349.802C467.346 349.802 468.697 349.476 469.804 348.825C470.91 348.174 471.879 347.312 472.709 346.237L475.468 348.386C473.254 351.787 469.934 353.488 465.507 353.488ZM464.945 329.807C463.122 329.807 461.592 330.474 460.355 331.809C459.118 333.127 458.354 334.982 458.061 337.375H471.293V337.033C471.163 334.738 470.544 332.964 469.438 331.711C468.331 330.441 466.833 329.807 464.945 329.807ZM496.439 345.993C496.439 344.772 495.976 343.828 495.048 343.161C494.136 342.478 492.533 341.892 490.238 341.403C487.96 340.915 486.145 340.329 484.794 339.646C483.459 338.962 482.466 338.148 481.815 337.204C481.181 336.26 480.863 335.137 480.863 333.835C480.863 331.67 481.775 329.839 483.598 328.342C485.437 326.844 487.781 326.096 490.629 326.096C493.624 326.096 496.049 326.869 497.904 328.415C499.776 329.961 500.712 331.939 500.712 334.348H496.171C496.171 333.111 495.642 332.045 494.584 331.149C493.542 330.254 492.224 329.807 490.629 329.807C488.985 329.807 487.699 330.165 486.771 330.881C485.844 331.597 485.38 332.533 485.38 333.688C485.38 334.779 485.811 335.601 486.674 336.154C487.536 336.708 489.091 337.237 491.337 337.741C493.599 338.246 495.43 338.848 496.83 339.548C498.23 340.248 499.263 341.094 499.931 342.087C500.614 343.063 500.956 344.26 500.956 345.676C500.956 348.036 500.012 349.932 498.124 351.364C496.236 352.78 493.786 353.488 490.775 353.488C488.66 353.488 486.788 353.114 485.16 352.365C483.533 351.617 482.255 350.575 481.327 349.24C480.416 347.889 479.96 346.433 479.96 344.87H484.477C484.558 346.384 485.16 347.588 486.283 348.483C487.423 349.362 488.92 349.802 490.775 349.802C492.484 349.802 493.852 349.46 494.877 348.776C495.919 348.076 496.439 347.149 496.439 345.993ZM506.938 350.632C506.938 349.851 507.165 349.2 507.621 348.679C508.093 348.158 508.793 347.897 509.721 347.897C510.648 347.897 511.348 348.158 511.82 348.679C512.309 349.2 512.553 349.851 512.553 350.632C512.553 351.381 512.309 352.007 511.82 352.512C511.348 353.016 510.648 353.269 509.721 353.269C508.793 353.269 508.093 353.016 507.621 352.512C507.165 352.007 506.938 351.381 506.938 350.632Z" fill="#EAB14D"/>
</svg>
