<svg width="512" height="512" viewBox="0 0 512 512" fill="none" xmlns="http://www.w3.org/2000/svg">
<path d="M417.301 436.012L403.648 428.117C403.031 427.754 402.348 427.457 401.684 427.223L345.43 408.492C325.801 400.383 316.672 368.961 314.539 356.395C328.34 343.617 342.633 323.797 342.633 304.641C342.633 298.453 344.363 296.043 343.937 296C347.266 295.168 349.996 292.777 351.273 289.578C352.32 286.953 361.406 263.531 361.406 247.68C361.406 246.805 361.301 245.93 361.09 245.098C359.766 239.785 356.652 234.453 352.02 231.105V181.332C352.02 150.484 342.656 137.664 332.734 130.262C330.434 114.965 314.047 85.332 256 85.332C196.523 85.332 160 141.246 160 181.332V231.105C155.371 234.453 152.258 239.785 150.934 245.098C150.719 245.953 150.613 246.805 150.613 247.68C150.613 263.551 159.703 286.977 160.746 289.578C162.027 292.777 163.668 294.805 166.996 295.637C167.66 296.043 169.387 298.453 169.387 304.641C169.387 323.777 183.68 343.617 197.484 356.395C195.371 368.961 186.324 400.34 167.297 408.234L111.937 426.688L91.0078 426.879C86.6132 426.922 82.7109 429.633 81.1289 433.727C79.5742 437.824 80.6836 442.477 83.9023 445.418C130.988 488.363 192.105 512 256 512C315.348 512 373.164 491.199 418.754 453.441C421.441 451.223 422.871 447.809 422.57 444.332C422.273 440.852 420.309 437.738 417.301 436.012V436.012Z" fill="#DFDDE2"/>
<path d="M256 0C114.836 0 0 114.836 0 256C0 328.105 30.5938 397.164 83.9453 445.441C85.9297 447.23 88.3828 448 91.1992 448.191L113.793 448C114.902 448 116.012 447.809 117.078 447.445L174.742 428.203C208.172 414.398 219.309 364.223 219.309 352C219.309 348.82 217.898 345.813 215.445 343.785C203.156 333.609 190.719 316.887 190.719 304.641C190.719 290.305 184.918 282.176 179.242 278.164C176.598 270.805 172.352 257.406 171.969 248.875C177.258 248.234 181.332 243.734 181.332 238.293V181.332C181.332 155.266 206.977 106.668 256 106.668C298.836 106.668 310.102 125.164 311.508 132.457C311.148 133.801 310.996 135.168 311.125 136.363C311.785 142.145 316.098 144.852 318.422 146.305C322.113 148.609 330.668 153.961 330.668 181.332V238.293C330.668 244.18 333.461 248.277 339.348 248.277C339.52 248.449 339.777 248.895 339.988 249.344C339.5 257.922 335.402 270.828 332.758 278.164C327.082 282.176 321.281 290.305 321.281 304.641C321.281 316.887 308.844 333.609 296.555 343.785C294.102 345.813 292.691 348.82 292.691 352C292.691 364.223 303.828 414.379 337.961 428.457L393.898 447.125L406.613 454.465C408.277 455.426 410.133 455.895 411.945 455.895C414.355 455.895 416.789 455.062 418.73 453.461C478.016 404.609 512 332.629 512 256C512 114.836 397.164 0 256 0V0Z" fill="#EAB14D"/>
<path d="M398.23 448C397.121 448 395.988 447.828 394.859 447.445L337.961 428.48C303.871 414.316 292.734 364.203 292.734 352C292.734 348.82 294.145 345.793 296.617 343.766C308.543 333.93 321.195 316.863 321.195 304.598C321.195 290.238 327.082 282.09 332.777 278.102C335.445 270.762 339.586 257.879 340.098 249.367C339.863 248.895 339.605 248.426 339.414 248.234C333.523 248.234 330.668 244.137 330.668 238.23V181.332C330.668 154.09 322.09 148.629 318.422 146.305C316.098 144.832 311.766 142.078 311.148 136.297C311.019 135.105 311.168 133.762 311.551 132.395C310.102 125.098 298.836 106.668 256 106.668C210.41 106.668 181.332 150.891 181.332 181.332V238.23C181.332 243.711 177.195 248.234 171.883 248.832C172.246 257.301 176.555 270.742 179.223 278.121C184.937 282.113 190.805 290.262 190.805 304.617C190.805 316.887 203.457 333.953 215.383 343.785C217.836 345.813 219.266 348.82 219.266 352.02C219.266 364.246 208.148 414.336 174.785 428.246L117.164 447.465C111.531 449.344 105.535 446.316 103.68 440.727C101.824 435.137 104.832 429.098 110.422 427.242L167.316 408.277C186.305 400.34 195.328 368.98 197.461 356.414C182.934 342.91 169.516 322.793 169.516 304.617C169.516 298.434 167.766 296.063 167.082 295.66C163.754 294.828 162.07 292.801 160.789 289.621C159.742 286.996 150.551 263.551 150.551 247.742C150.551 246.871 150.656 245.996 150.871 245.164C152.215 239.809 155.348 234.41 160.043 231.039V181.332C160 141.246 196.523 85.332 256 85.332C314.199 85.332 330.539 115.07 332.758 130.324C342.656 137.77 352 150.633 352 181.332V230.996C356.691 234.367 359.828 239.766 361.172 245.121C361.387 245.973 361.492 246.848 361.492 247.703C361.492 263.508 352.297 286.953 351.254 289.578C349.973 292.758 347.266 295.125 343.937 295.957C344.277 296.02 342.527 298.41 342.527 304.574C342.527 322.754 329.109 342.871 314.582 356.375C316.715 368.938 325.824 400.34 345.449 408.512L401.602 427.199C407.187 429.055 410.199 435.094 408.34 440.684C406.848 445.184 402.687 448 398.23 448V448Z" fill="black"/>
<path d="M256 512C114.836 512 0 397.164 0 256C0 114.836 114.836 0 256 0C397.164 0 512 114.836 512 256C512 397.164 397.164 512 256 512ZM256 21.332C126.613 21.332 21.332 126.613 21.332 256C21.332 385.387 126.613 490.668 256 490.668C385.387 490.668 490.668 385.387 490.668 256C490.668 126.613 385.387 21.332 256 21.332V21.332Z" fill="black"/>
</svg>
