<svg width="1668" height="1076" viewBox="0 0 1668 1076" fill="none" xmlns="http://www.w3.org/2000/svg">
<path d="M107.83 418.074C85.3118 418.074 61.3798 426.999 61.3798 443.536C61.3798 460.074 85.3124 468.999 107.83 468.999C130.348 468.999 154.28 460.074 154.28 443.536C154.28 426.999 130.348 418.074 107.83 418.074Z" fill="#FFDB56"/>
<path d="M107.831 244.489C71.5988 244.489 42.1215 279.796 42.1215 323.194C42.1215 350.138 52.8226 379.109 73.9281 409.3C89.4669 431.529 104.781 445.813 105.426 446.411C106.134 447.067 106.983 447.395 107.831 447.395C108.68 447.395 109.528 447.067 110.236 446.411C110.881 445.813 126.196 431.529 141.734 409.3C162.84 379.109 173.541 350.138 173.541 323.194C173.541 279.796 144.064 244.489 107.831 244.489ZM132.472 323.194C132.472 339.493 121.44 352.707 107.831 352.707C94.2229 352.707 83.1909 339.493 83.1909 323.194C83.1909 306.894 94.2229 293.68 107.831 293.68C121.44 293.68 132.472 306.894 132.472 323.194Z" fill="#FF4A4A"/>
<path d="M283.056 286.433C276.424 283.196 267.69 281.413 258.464 281.413C249.239 281.413 240.505 283.196 233.873 286.433C226.122 290.216 221.854 295.77 221.854 302.072C221.854 308.373 226.122 313.928 233.873 317.711C240.505 320.948 249.238 322.731 258.464 322.731C267.69 322.731 276.424 320.948 283.056 317.711C290.806 313.928 295.074 308.373 295.074 302.072C295.074 295.77 290.806 290.217 283.056 286.433Z" fill="#FFDB56"/>
<path d="M107.83 457.242C88.1457 457.242 67.3815 450.423 62.4669 437.658C61.7598 439.495 61.3798 441.455 61.3798 443.537C61.3798 460.075 85.3124 468.999 107.83 468.999C130.348 468.999 154.28 460.075 154.28 443.537C154.28 441.456 153.9 439.496 153.193 437.658C148.279 450.422 127.515 457.242 107.83 457.242Z" fill="#FFBB24"/>
<path d="M283.056 305.953C276.424 309.19 267.691 310.973 258.464 310.973C249.239 310.973 240.505 309.19 233.873 305.953C228.645 303.402 225.009 300.042 223.192 296.193C222.314 298.051 221.854 300.02 221.854 302.072C221.854 308.373 226.122 313.928 233.873 317.711C240.505 320.948 249.239 322.731 258.465 322.731C267.691 322.731 276.424 320.948 283.057 317.711C290.807 313.928 295.075 308.373 295.075 302.072C295.075 300.021 294.615 298.051 293.737 296.193C291.919 300.042 288.283 303.402 283.056 305.953Z" fill="#FFBB24"/>
<path d="M258.466 148C230.117 148 207.053 175.625 207.053 209.579C207.053 230.551 215.35 253.052 231.712 276.458C243.717 293.632 255.563 304.681 256.061 305.143C256.769 305.799 257.618 306.127 258.466 306.127C259.315 306.127 260.162 305.799 260.871 305.143C261.37 304.681 273.216 293.632 285.22 276.458C301.582 253.052 309.878 230.552 309.878 209.579C309.877 175.625 286.814 148 258.466 148ZM277.404 209.579C277.404 222.107 268.925 232.263 258.466 232.263C248.006 232.263 239.527 222.107 239.527 209.579C239.527 197.052 248.006 186.896 258.466 186.896C268.925 186.896 277.404 197.052 277.404 209.579Z" fill="#FF4A4A"/>
<path d="M107.831 244.489C105.329 244.489 102.86 244.664 100.43 244.992C133.19 249.41 158.738 282.793 158.738 323.194C158.738 350.138 148.036 379.109 126.931 409.3C116.566 424.128 106.307 435.412 100.429 441.465C103.364 444.487 105.211 446.212 105.426 446.41C106.134 447.067 106.983 447.395 107.831 447.395C108.68 447.395 109.528 447.067 110.236 446.41C110.881 445.813 126.196 431.528 141.734 409.3C162.84 379.108 173.541 350.137 173.541 323.193C173.541 279.796 144.063 244.489 107.831 244.489Z" fill="#E7343F"/>
<path d="M258.465 148C255.952 148 253.481 148.221 251.064 148.641C275.917 152.952 295.074 178.635 295.074 209.579C295.074 230.551 286.778 253.052 270.417 276.458C263.038 287.014 255.725 295.249 251.064 300.141C253.986 303.208 255.868 304.965 256.06 305.142C256.768 305.798 257.617 306.126 258.465 306.126C259.314 306.126 260.162 305.798 260.871 305.142C261.369 304.68 273.215 293.631 285.22 276.458C301.582 253.052 309.877 230.551 309.877 209.579C309.877 175.625 286.814 148 258.465 148Z" fill="#E7343F"/>
<path d="M168.79 448.25C166.628 448.25 164.871 446.157 164.861 443.564C164.851 440.964 166.602 438.847 168.773 438.835L173.963 438.807C173.97 438.807 173.975 438.807 173.982 438.807C176.143 438.807 177.902 440.9 177.911 443.493C177.921 446.093 176.17 448.21 173.999 448.222L168.809 448.25C168.802 448.25 168.796 448.25 168.79 448.25ZM189.552 448.137C187.391 448.137 185.633 446.044 185.623 443.451C185.613 440.851 187.364 438.734 189.535 438.723L194.725 438.694C194.732 438.694 194.738 438.694 194.744 438.694C196.906 438.694 198.663 440.787 198.673 443.38C198.683 445.98 196.932 448.097 194.761 448.109L189.571 448.137C189.564 448.137 189.558 448.137 189.552 448.137ZM210.315 448.023C208.153 448.023 206.396 445.931 206.386 443.338C206.376 440.738 208.127 438.62 210.298 438.609L215.488 438.581C215.494 438.581 215.5 438.581 215.506 438.581C217.668 438.581 219.425 440.674 219.435 443.267C219.445 445.867 217.694 447.984 215.523 447.995L210.333 448.023C210.327 448.023 210.321 448.023 210.315 448.023ZM231.078 447.911C228.916 447.911 227.158 445.818 227.148 443.225C227.138 440.625 228.89 438.508 231.06 438.496L236.251 438.468C236.257 438.468 236.263 438.468 236.269 438.468C238.431 438.468 240.189 440.561 240.199 443.154C240.208 445.753 238.457 447.871 236.286 447.882L231.096 447.911C231.09 447.911 231.083 447.911 231.078 447.911ZM251.84 447.798C249.678 447.798 247.92 445.706 247.91 443.113C247.9 440.513 249.652 438.395 251.823 438.384L257.013 438.356C257.019 438.356 257.025 438.356 257.031 438.356C259.193 438.356 260.951 440.449 260.961 443.042C260.971 445.642 259.219 447.759 257.049 447.77L251.858 447.798C251.852 447.798 251.846 447.798 251.84 447.798ZM272.602 447.685C270.441 447.685 268.684 445.593 268.673 443.001C268.662 440.402 270.413 438.284 272.584 438.271L273.32 438.267C274.634 438.26 275.952 438.148 277.239 437.935C279.385 437.576 281.372 439.378 281.67 441.954C281.967 444.529 280.465 446.905 278.315 447.261C276.684 447.531 275.016 447.672 273.356 447.681L272.622 447.685C272.616 447.685 272.609 447.685 272.602 447.685ZM292.153 440.594C290.908 440.594 289.683 439.887 288.92 438.568C287.684 436.432 288.127 433.499 289.911 432.017C291.163 430.978 292.356 429.813 293.459 428.555C295.029 426.761 297.517 426.833 299.015 428.715C300.512 430.597 300.453 433.577 298.881 435.37C297.485 436.964 295.974 438.439 294.39 439.754C293.706 440.322 292.926 440.594 292.153 440.594ZM304.582 421.184C304.144 421.184 303.698 421.095 303.262 420.909C301.217 420.036 300.152 417.343 300.88 414.895C301.391 413.18 301.791 411.402 302.073 409.611C302.475 407.056 304.532 405.376 306.662 405.856C308.795 406.337 310.198 408.799 309.796 411.353C309.439 413.626 308.93 415.881 308.282 418.056C307.71 419.982 306.196 421.184 304.582 421.184ZM305.218 396.732C303.51 396.732 301.937 395.388 301.443 393.322C301.024 391.573 300.484 389.848 299.841 388.196C298.923 385.84 299.774 383.038 301.74 381.939C303.709 380.841 306.046 381.859 306.964 384.215C307.781 386.312 308.465 388.502 308.998 390.725C309.596 393.223 308.391 395.831 306.305 396.548C305.942 396.673 305.577 396.732 305.218 396.732ZM293.82 376.426C292.967 376.426 292.109 376.096 291.387 375.413C290.192 374.282 288.913 373.257 287.589 372.363C285.698 371.087 285.028 368.216 286.094 365.951C287.159 363.686 289.557 362.884 291.446 364.16C293.124 365.293 294.743 366.592 296.258 368.024C297.961 369.634 298.252 372.595 296.907 374.635C296.132 375.812 294.982 376.426 293.82 376.426ZM274.689 367.894C274.631 367.894 274.572 367.893 274.513 367.889C274.073 367.866 273.631 367.854 273.187 367.854H269.496C267.326 367.854 265.566 365.748 265.566 363.147C265.566 360.548 267.325 358.44 269.496 358.44H273.187C273.742 358.44 274.304 358.454 274.86 358.484C277.028 358.599 278.708 360.798 278.612 363.395C278.519 365.922 276.78 367.894 274.689 367.894ZM253.925 367.855H248.734C246.564 367.855 244.804 365.748 244.804 363.148C244.804 360.548 246.564 358.441 248.734 358.441H253.925C256.095 358.441 257.855 360.548 257.855 363.148C257.855 365.748 256.095 367.855 253.925 367.855ZM233.162 367.855H227.972C225.801 367.855 224.042 365.748 224.042 363.148C224.042 360.548 225.801 358.441 227.972 358.441H233.162C235.333 358.441 237.092 360.548 237.092 363.148C237.092 365.748 235.333 367.855 233.162 367.855ZM212.399 367.855H207.208C205.038 367.855 203.278 365.748 203.278 363.148C203.278 360.548 205.038 358.441 207.208 358.441H212.399C214.57 358.441 216.329 360.548 216.329 363.148C216.329 365.748 214.57 367.855 212.399 367.855ZM192.378 363.173C191.661 363.173 190.936 362.938 190.285 362.447C188.6 361.174 187.017 359.688 185.579 358.032C184.015 356.23 183.966 353.25 185.471 351.377C186.974 349.505 189.463 349.445 191.027 351.248C192.082 352.462 193.243 353.552 194.478 354.485C196.315 355.871 196.864 358.779 195.706 360.977C194.958 362.395 193.682 363.173 192.378 363.173ZM180.956 343.232C179.112 343.232 177.468 341.672 177.102 339.425C176.742 337.211 176.56 334.936 176.56 332.663L176.561 332.292C176.586 329.711 178.341 327.639 180.49 327.639C180.506 327.639 180.521 327.639 180.537 327.64C182.707 327.67 184.446 329.801 184.421 332.401L184.42 332.662C184.42 334.332 184.554 336.002 184.817 337.624C185.232 340.176 183.842 342.647 181.712 343.144C181.458 343.204 181.205 343.232 180.956 343.232ZM185.251 319.608C184.456 319.608 183.655 319.321 182.961 318.724C181.198 317.207 180.796 314.266 182.061 312.155C183.225 310.215 184.557 308.411 186.022 306.793C187.619 305.03 190.104 305.151 191.575 307.061C193.047 308.972 192.947 311.95 191.351 313.712C190.277 314.9 189.299 316.223 188.446 317.647C187.678 318.926 186.473 319.608 185.251 319.608ZM202.551 307.151C200.612 307.151 198.924 305.431 198.661 303.064C198.374 300.488 199.887 298.12 202.038 297.777C203.322 297.573 204.635 297.469 205.942 297.469H207.736C209.907 297.469 211.666 299.576 211.666 302.176C211.666 304.776 209.907 306.883 207.736 306.883H205.942C204.981 306.883 204.016 306.959 203.074 307.109C202.898 307.138 202.724 307.151 202.551 307.151Z" fill="#1EA4E9"/>
<g clip-path="url(#clip0)">
<path d="M1480.86 50.791C1497.93 55.365 1508.06 72.912 1503.49 89.983L1408.24 445.444C1403.67 462.515 1386.12 472.646 1369.05 468.071L1183.59 418.377C1166.52 413.803 1156.39 396.256 1160.96 379.185L1256.21 23.725C1260.78 6.65401 1278.33 -3.477 1295.4 1.098L1480.86 50.791Z" fill="#F5F9EC"/>
<path d="M1337.33 97.948H1236.32L1160.96 379.186C1156.39 396.256 1166.52 413.803 1183.59 418.377L1369.05 468.068C1386.12 472.642 1403.67 462.514 1408.24 445.443L1466.69 227.31L1337.33 97.948Z" fill="#E4E8DB"/>
<path d="M1480.86 50.791C1497.93 55.365 1508.06 72.912 1503.49 89.983L1462.07 244.531L1214.8 178.274L1256.21 23.726C1260.78 6.65501 1278.33 -3.47599 1295.4 1.09901L1480.86 50.791Z" fill="#DCC69F"/>
<path d="M1269.15 408.145L1298.13 299.967L1282.68 295.826L1253.69 404.004L1269.15 408.145Z" fill="#C8BEB2"/>
<path d="M1306.42 269.077L1314.7 238.169L1299.24 234.028L1290.96 264.936L1306.42 269.077Z" fill="#C8BEB2"/>
<path d="M1352.81 281.455L1361.09 250.547L1345.64 246.406L1337.36 277.314L1352.81 281.455Z" fill="#C8BEB2"/>
<path d="M1399.14 293.897L1407.42 262.989L1391.96 258.848L1383.68 289.756L1399.14 293.897Z" fill="#C8BEB2"/>
<path d="M1315.48 420.579L1344.46 312.401L1329.01 308.26L1300.02 416.438L1315.48 420.579Z" fill="#C8BEB2"/>
<path d="M1361.9 433.022L1390.88 324.844L1375.43 320.703L1346.44 428.881L1361.9 433.022Z" fill="#C8BEB2"/>
<path d="M1426.21 69.277L1412.96 65.727L1365.65 109.841C1353.25 106.519 1339.34 102.791 1336.95 102.151C1328.12 99.785 1318.1 101.834 1316.92 106.249C1315.74 110.665 1323.38 117.447 1332.21 119.813C1334.6 120.453 1348.51 124.18 1360.91 127.503L1379.83 189.365L1393.08 192.915L1391.82 135.786C1400.53 138.118 1409.41 140.497 1415.23 142.057L1425.51 160.194L1434.35 162.56L1432.83 137.306L1446.77 116.195L1437.94 113.829L1419.96 124.394C1414.14 122.834 1405.26 120.454 1396.56 118.123L1426.21 69.277Z" fill="#F5F9EC"/>
<path d="M1214.8 178.273L1462.08 244.53L1466.69 227.312L1337.33 97.948H1236.32L1214.8 178.273Z" fill="#CDB994"/>
<path d="M1336.95 102.151C1328.12 99.784 1318.1 101.834 1316.92 106.249C1315.74 110.665 1323.38 117.448 1332.22 119.814C1334.6 120.455 1348.52 124.183 1360.91 127.504L1379.83 189.367L1393.08 192.916L1392.2 152.822L1343.21 103.828C1340.1 102.995 1337.79 102.376 1336.95 102.151Z" fill="#E4E8DB"/>
<path d="M1310.86 5.239L1199.05 422.519L1183.59 418.378C1166.52 413.804 1156.39 396.257 1160.97 379.186L1256.21 23.725C1260.79 6.65401 1278.33 -3.477 1295.4 1.098L1310.86 5.239Z" fill="#EA672C"/>
<path d="M1344.58 406.151C1344.58 423.824 1330.26 438.151 1312.58 438.151H1072.58C1063.75 438.151 1056.58 430.988 1056.58 422.151V102.151C1056.58 93.314 1063.75 86.151 1072.58 86.151H1312.58C1330.26 86.151 1344.58 100.478 1344.58 118.151V406.151Z" fill="#125D9D"/>
<path d="M1200.58 134.151C1147.57 134.151 1104.58 177.132 1104.58 230.151C1104.58 283.17 1147.57 326.151 1200.58 326.151C1253.6 326.151 1296.58 283.17 1296.58 230.151C1296.58 177.132 1253.6 134.151 1200.58 134.151ZM1271.63 194.151H1237.03C1233.72 177.571 1228.56 164.17 1223.28 153.831C1244.42 160.14 1261.78 174.8 1271.63 194.151ZM1224.58 230.151C1224.58 237.293 1224.05 243.854 1223.31 250.151H1177.86C1177.12 243.854 1176.58 237.292 1176.58 230.151C1176.58 223.006 1177.11 216.446 1177.84 210.151H1223.33C1224.06 216.446 1224.58 223.007 1224.58 230.151ZM1180.51 194.151C1184.95 174.102 1192.28 159.537 1198.26 150.385C1199.05 150.362 1199.79 150.151 1200.58 150.151C1201.39 150.151 1202.13 150.366 1202.94 150.389C1208.94 159.6 1216.24 174.171 1220.66 194.151H1180.51ZM1177.89 153.831C1172.63 164.148 1167.46 177.564 1164.15 194.151H1129.54C1139.39 174.8 1156.75 160.144 1177.89 153.831ZM1123.42 210.151H1161.72C1161.05 216.487 1160.58 223.077 1160.58 230.151C1160.58 237.229 1161.06 243.811 1161.74 250.151H1123.42C1121.75 243.721 1120.58 237.097 1120.58 230.151C1120.58 223.206 1121.75 216.581 1123.42 210.151ZM1129.54 266.151H1164.19C1167.53 282.768 1172.71 296.284 1177.87 306.464C1156.74 300.151 1139.39 285.495 1129.54 266.151ZM1198.26 309.917C1192.52 301.097 1185.05 286.493 1180.53 266.151H1220.64C1216.12 286.479 1208.66 301.077 1202.91 309.917C1202.12 309.94 1201.38 310.151 1200.59 310.151C1199.79 310.151 1199.05 309.941 1198.26 309.917ZM1223.31 306.464C1228.48 296.274 1233.65 282.769 1236.99 266.151H1271.63C1261.78 285.494 1244.44 300.147 1223.31 306.464ZM1277.75 250.151H1239.43C1240.11 243.811 1240.58 237.229 1240.58 230.151C1240.58 223.077 1240.12 216.487 1239.46 210.151H1277.74C1279.42 216.581 1280.58 223.205 1280.58 230.151C1280.58 237.097 1279.42 243.722 1277.75 250.151Z" fill="#E7BE29"/>
<path d="M1115.09 390.168V367.262H1123.73C1125.25 367.262 1126.41 367.335 1127.21 367.481C1128.34 367.669 1129.28 368.026 1130.04 368.551C1130.8 369.077 1131.41 369.815 1131.88 370.762C1132.34 371.71 1132.57 372.752 1132.57 373.887C1132.57 375.835 1131.95 377.484 1130.71 378.832C1129.47 380.182 1127.23 380.855 1123.99 380.855H1118.12V390.168H1115.09ZM1118.12 378.152H1124.04C1126 378.152 1127.39 377.788 1128.21 377.058C1129.03 376.329 1129.44 375.303 1129.44 373.98C1129.44 373.022 1129.2 372.202 1128.72 371.519C1128.23 370.837 1127.6 370.386 1126.8 370.167C1126.29 370.032 1125.35 369.964 1123.98 369.964H1118.12V378.152V378.152Z" fill="white"/>
<path d="M1131.54 390.168L1140.34 367.262H1143.6L1152.98 390.168H1149.52L1146.85 383.23H1137.27L1134.76 390.168H1131.54ZM1138.15 380.761H1145.91L1143.52 374.417C1142.79 372.49 1142.25 370.907 1141.9 369.667C1141.61 371.136 1141.2 372.595 1140.66 374.042L1138.15 380.761Z" fill="white"/>
<path d="M1154.37 382.808L1157.23 382.558C1157.36 383.704 1157.68 384.644 1158.17 385.378C1158.67 386.112 1159.43 386.706 1160.48 387.159C1161.52 387.612 1162.69 387.839 1163.99 387.839C1165.15 387.839 1166.17 387.667 1167.06 387.323C1167.94 386.979 1168.6 386.509 1169.03 385.909C1169.46 385.31 1169.68 384.657 1169.68 383.948C1169.68 383.229 1169.47 382.602 1169.06 382.065C1168.64 381.529 1167.95 381.079 1166.99 380.713C1166.38 380.474 1165.02 380.102 1162.91 379.596C1160.81 379.091 1159.34 378.615 1158.49 378.166C1157.4 377.594 1156.58 376.883 1156.05 376.033C1155.51 375.184 1155.24 374.234 1155.24 373.181C1155.24 372.025 1155.57 370.945 1156.23 369.939C1156.88 368.934 1157.84 368.171 1159.1 367.65C1160.36 367.129 1161.76 366.869 1163.3 366.869C1165 366.869 1166.5 367.142 1167.8 367.689C1169.09 368.236 1170.09 369.041 1170.79 370.103C1171.49 371.166 1171.86 372.369 1171.91 373.712L1169.01 373.931C1168.85 372.484 1168.32 371.39 1167.42 370.65C1166.52 369.911 1165.19 369.541 1163.43 369.541C1161.6 369.541 1160.26 369.877 1159.42 370.549C1158.58 371.221 1158.16 372.031 1158.16 372.979C1158.16 373.802 1158.46 374.479 1159.05 375.01C1159.64 375.541 1161.16 376.086 1163.62 376.643C1166.09 377.201 1167.78 377.688 1168.69 378.104C1170.03 378.719 1171.01 379.498 1171.65 380.44C1172.28 381.383 1172.6 382.469 1172.6 383.698C1172.6 384.917 1172.25 386.065 1171.55 387.143C1170.86 388.221 1169.85 389.06 1168.55 389.659C1167.24 390.258 1165.77 390.557 1164.13 390.557C1162.06 390.557 1160.32 390.254 1158.92 389.651C1157.52 389.047 1156.42 388.138 1155.62 386.924C1154.83 385.712 1154.41 384.339 1154.37 382.808Z" fill="white"/>
<path d="M1175.71 382.808L1178.57 382.558C1178.71 383.704 1179.02 384.644 1179.51 385.378C1180.01 386.112 1180.78 386.706 1181.82 387.159C1182.86 387.612 1184.03 387.839 1185.34 387.839C1186.49 387.839 1187.51 387.667 1188.4 387.323C1189.28 386.979 1189.94 386.509 1190.38 385.909C1190.81 385.31 1191.02 384.657 1191.02 383.948C1191.02 383.229 1190.82 382.602 1190.4 382.065C1189.98 381.529 1189.29 381.079 1188.34 380.713C1187.72 380.474 1186.36 380.102 1184.26 379.596C1182.15 379.091 1180.68 378.615 1179.84 378.166C1178.74 377.594 1177.93 376.883 1177.39 376.033C1176.85 375.184 1176.59 374.234 1176.59 373.181C1176.59 372.025 1176.91 370.945 1177.57 369.939C1178.23 368.934 1179.18 368.171 1180.45 367.65C1181.71 367.129 1183.11 366.869 1184.65 366.869C1186.35 366.869 1187.84 367.142 1189.14 367.689C1190.44 368.236 1191.43 369.041 1192.13 370.103C1192.83 371.166 1193.21 372.369 1193.26 373.712L1190.35 373.931C1190.19 372.484 1189.67 371.39 1188.76 370.65C1187.86 369.911 1186.53 369.541 1184.77 369.541C1182.94 369.541 1181.6 369.877 1180.76 370.549C1179.93 371.221 1179.51 372.031 1179.51 372.979C1179.51 373.802 1179.8 374.479 1180.4 375.01C1180.98 375.541 1182.5 376.086 1184.97 376.643C1187.43 377.201 1189.12 377.688 1190.04 378.104C1191.37 378.719 1192.35 379.498 1192.99 380.44C1193.63 381.383 1193.94 382.469 1193.94 383.698C1193.94 384.917 1193.6 386.065 1192.9 387.143C1192.2 388.221 1191.2 389.06 1189.89 389.659C1188.58 390.258 1187.11 390.557 1185.48 390.557C1183.4 390.557 1181.67 390.254 1180.26 389.651C1178.86 389.047 1177.76 388.138 1176.97 386.924C1176.17 385.712 1175.75 384.339 1175.71 382.808Z" fill="white"/>
<path d="M1198.09 390.168V367.262H1206.73C1208.25 367.262 1209.41 367.335 1210.21 367.481C1211.34 367.669 1212.28 368.026 1213.04 368.551C1213.8 369.077 1214.41 369.815 1214.88 370.762C1215.34 371.71 1215.57 372.752 1215.57 373.887C1215.57 375.835 1214.95 377.484 1213.71 378.832C1212.47 380.182 1210.23 380.855 1206.99 380.855H1201.12V390.168H1198.09ZM1201.12 378.152H1207.04C1209 378.152 1210.39 377.788 1211.21 377.058C1212.03 376.329 1212.45 375.303 1212.45 373.98C1212.45 373.022 1212.2 372.202 1211.72 371.519C1211.23 370.837 1210.6 370.386 1209.8 370.167C1209.29 370.032 1208.35 369.964 1206.98 369.964H1201.12V378.152Z" fill="white"/>
<path d="M1218.51 379.011C1218.51 375.209 1219.53 372.233 1221.57 370.081C1223.61 367.931 1226.25 366.854 1229.48 366.854C1231.59 366.854 1233.5 367.36 1235.2 368.37C1236.89 369.381 1238.19 370.79 1239.08 372.597C1239.97 374.405 1240.41 376.454 1240.41 378.745C1240.41 381.068 1239.95 383.146 1239.01 384.979C1238.07 386.813 1236.74 388.201 1235.02 389.143C1233.31 390.086 1231.45 390.557 1229.46 390.557C1227.31 390.557 1225.38 390.036 1223.68 388.994C1221.98 387.953 1220.7 386.531 1219.82 384.728C1218.95 382.928 1218.51 381.022 1218.51 379.011ZM1221.63 379.058C1221.63 381.819 1222.38 383.994 1223.86 385.581C1225.34 387.17 1227.21 387.964 1229.45 387.964C1231.73 387.964 1233.6 387.162 1235.08 385.558C1236.55 383.954 1237.29 381.678 1237.29 378.73C1237.29 376.866 1236.98 375.238 1236.35 373.847C1235.72 372.456 1234.79 371.378 1233.58 370.613C1232.36 369.847 1231 369.465 1229.49 369.465C1227.35 369.465 1225.5 370.202 1223.95 371.676C1222.41 373.15 1221.63 375.611 1221.63 379.058Z" fill="white"/>
<path d="M1244.37 390.168V367.262H1254.52C1256.56 367.262 1258.12 367.468 1259.18 367.879C1260.24 368.291 1261.09 369.018 1261.73 370.059C1262.36 371.101 1262.68 372.252 1262.68 373.512C1262.68 375.137 1262.15 376.507 1261.1 377.621C1260.05 378.736 1258.42 379.444 1256.23 379.746C1257.03 380.132 1257.64 380.512 1258.05 380.887C1258.94 381.7 1259.78 382.715 1260.57 383.934L1264.55 390.168H1260.74L1257.71 385.402C1256.82 384.027 1256.1 382.975 1255.52 382.246C1254.95 381.517 1254.44 381.007 1253.98 380.715C1253.53 380.424 1253.07 380.221 1252.6 380.106C1252.26 380.034 1251.69 379.997 1250.91 379.997H1247.4V390.169H1244.37V390.168ZM1247.4 377.371H1253.91C1255.3 377.371 1256.38 377.228 1257.16 376.941C1257.95 376.655 1258.54 376.197 1258.95 375.566C1259.35 374.936 1259.55 374.252 1259.55 373.511C1259.55 372.428 1259.16 371.537 1258.37 370.839C1257.59 370.142 1256.35 369.792 1254.65 369.792H1247.4V377.371H1247.4Z" fill="white"/>
<path d="M1272.68 390.168V369.965H1265.13V367.262H1283.29V369.965H1275.71V390.168H1272.68Z" fill="white"/>
</g>
<g clip-path="url(#clip1)">
<path fill-rule="evenodd" clip-rule="evenodd" d="M1418.86 962.169V837.787V769.162V710.883C1418.86 701.756 1411.38 694.272 1402.25 694.272H1362.68H1224.69H1185.12C1176 694.272 1168.51 701.755 1168.51 710.883V962.17H1418.86V962.169ZM1346.32 779.99H1241.05C1230.05 779.99 1221.07 771.004 1221.07 760.006C1221.07 749.008 1230.05 739.994 1241.05 739.994H1346.32C1357.32 739.994 1366.31 749.008 1366.31 760.006C1366.31 771.004 1357.32 779.99 1346.32 779.99Z" fill="#A0C8FF"/>
<path fill-rule="evenodd" clip-rule="evenodd" d="M1366.31 760.006C1366.31 749.008 1357.32 739.994 1346.32 739.994H1241.05C1230.05 739.994 1221.07 749.008 1221.07 760.006C1221.07 771.004 1230.05 779.99 1241.05 779.99H1346.32C1357.32 779.99 1366.31 771.004 1366.31 760.006Z" fill="white"/>
<path fill-rule="evenodd" clip-rule="evenodd" d="M1609.76 1066V837.787H1580.79H1418.86V962.169V997.29C1418.86 1006.45 1411.38 1013.93 1402.25 1013.93H1389.89V1043.12C1389.89 1055.71 1379.6 1066 1367.02 1066H1370.22H1609.76ZM1502.82 878.208L1552.36 900.686L1535.44 937.961L1485.92 915.483L1502.82 878.208ZM1495.45 977.759C1508.37 977.759 1518.83 988.247 1518.83 1001.17C1518.83 1014.07 1508.37 1024.56 1495.45 1024.56C1482.52 1024.56 1472.03 1014.07 1472.03 1001.17C1472.03 988.247 1482.52 977.759 1495.45 977.759Z" fill="#FFCD69"/>
<path fill-rule="evenodd" clip-rule="evenodd" d="M1418.86 997.289V962.168H1168.51V997.289C1168.51 1006.44 1176 1013.93 1185.12 1013.93H1197.48H1243.2H1344.17H1389.89H1402.25C1411.38 1013.93 1418.86 1006.44 1418.86 997.289Z" fill="#DFEDFF"/>
<path fill-rule="evenodd" clip-rule="evenodd" d="M1389.89 1043.12V1013.93H1344.17V1043.12C1344.17 1055.71 1354.46 1066 1367.02 1066C1379.6 1066 1389.89 1055.71 1389.89 1043.12Z" fill="#89A7BC"/>
<path fill-rule="evenodd" clip-rule="evenodd" d="M1243.21 1043.12V1013.93H1197.48V1043.12C1197.48 1055.71 1207.77 1066 1220.36 1066C1232.92 1066 1243.21 1055.71 1243.21 1043.12V1043.12Z" fill="#89A7BC"/>
<path fill-rule="evenodd" clip-rule="evenodd" d="M1655.49 1039.92V863.865C1655.49 849.522 1643.75 837.787 1629.44 837.787H1609.76V1066H1629.44C1643.75 1066 1655.49 1054.26 1655.49 1039.92Z" fill="#FFE6B4"/>
<path fill-rule="evenodd" clip-rule="evenodd" d="M1552.36 900.687L1502.82 878.208L1485.92 915.483L1535.44 937.962L1552.36 900.687Z" fill="#DFEDFF"/>
<path fill-rule="evenodd" clip-rule="evenodd" d="M1518.83 1001.17C1518.83 988.247 1508.37 977.759 1495.45 977.759C1482.52 977.759 1472.04 988.247 1472.04 1001.17C1472.04 1014.07 1482.52 1024.56 1495.45 1024.56C1508.37 1024.56 1518.83 1014.07 1518.83 1001.17Z" fill="#D5EA7A"/>
<path d="M1629.44 827.787H1590.8V800.767C1590.8 785.594 1578.45 773.249 1563.28 773.249H1428.86V710.882C1428.86 696.209 1416.92 684.271 1402.25 684.271H1372.68V600.985C1372.68 580.592 1356.09 564 1335.69 564H1251.68C1231.29 564 1214.69 580.592 1214.69 600.985V684.271H1185.12C1170.45 684.271 1158.52 696.209 1158.52 710.882V810.773C1158.52 816.296 1162.99 820.773 1168.52 820.773C1174.04 820.773 1178.52 816.296 1178.52 810.773V710.882C1178.52 707.299 1181.54 704.271 1185.12 704.271H1402.25C1405.83 704.271 1408.86 707.298 1408.86 710.882V952.169H1178.52V900.602C1178.52 895.079 1174.04 890.602 1168.52 890.602C1162.99 890.602 1158.52 895.079 1158.52 900.602V997.29C1158.52 1011.98 1170.45 1023.93 1185.12 1023.93H1187.48V1043.12C1187.48 1061.25 1202.23 1076 1220.36 1076C1238.47 1076 1253.2 1061.25 1253.2 1043.12V1023.93H1334.17V1043.12C1334.17 1061.25 1348.9 1076 1367.02 1076H1629.44C1649.31 1076 1665.48 1059.81 1665.48 1039.92V863.865C1665.48 843.972 1649.31 827.787 1629.44 827.787V827.787ZM1352.68 684.271H1234.69V600.985C1234.69 591.62 1242.31 584 1251.68 584H1335.7C1345.06 584 1352.68 591.62 1352.68 600.985V684.271ZM1428.86 793.25H1563.28C1567.42 793.25 1570.8 796.623 1570.8 800.768V827.788H1428.86V793.25ZM1233.2 1043.12C1233.2 1050.22 1227.44 1056 1220.36 1056C1213.26 1056 1207.48 1050.22 1207.48 1043.12V1023.93H1233.2V1043.12ZM1185.12 1003.93C1181.54 1003.93 1178.52 1000.89 1178.52 997.29V972.169H1408.86V997.29C1408.86 1000.89 1405.83 1003.93 1402.25 1003.93H1185.12ZM1379.89 1043.12C1379.89 1050.22 1374.12 1056 1367.02 1056C1359.93 1056 1354.17 1050.22 1354.17 1043.12V1023.93H1379.89V1043.12ZM1599.76 1056H1397.26C1398.95 1052.04 1399.89 1047.69 1399.89 1043.12V1023.93H1402.25C1416.92 1023.93 1428.86 1011.98 1428.86 997.29V847.787H1599.76V1056H1599.76ZM1645.48 1039.92C1645.48 1048.79 1638.28 1056 1629.43 1056H1619.76V847.787H1629.43C1638.28 847.787 1645.48 854.999 1645.48 863.865V1039.92Z" fill="black"/>
<path d="M1231.07 809.986C1225.55 809.986 1221.07 814.463 1221.07 819.986C1221.07 825.509 1225.55 829.986 1231.07 829.986H1356.33C1361.85 829.986 1366.33 825.509 1366.33 819.986C1366.33 814.463 1361.85 809.986 1356.33 809.986H1231.07Z" fill="black"/>
<path d="M1376.31 760.006C1376.31 743.457 1362.86 729.994 1346.32 729.994H1241.05C1224.52 729.994 1211.07 743.457 1211.07 760.006C1211.07 776.539 1224.52 789.99 1241.05 789.99H1346.32C1362.86 789.99 1376.31 776.539 1376.31 760.006ZM1346.32 769.99H1241.05C1235.55 769.99 1231.07 765.511 1231.07 760.006C1231.07 754.485 1235.55 749.994 1241.05 749.994H1346.32C1351.83 749.994 1356.31 754.486 1356.31 760.006C1356.31 765.511 1351.83 769.99 1346.32 769.99Z" fill="black"/>
<path d="M1481.79 924.589L1531.31 947.067C1532.65 947.675 1534.06 947.963 1535.44 947.963C1539.24 947.963 1542.88 945.782 1544.55 942.094L1561.47 904.819C1562.57 902.403 1562.66 899.652 1561.73 897.168C1560.79 894.685 1558.91 892.674 1556.5 891.578L1506.95 869.1C1504.53 868.005 1501.78 867.913 1499.3 868.847C1496.82 869.781 1494.81 871.662 1493.71 874.079L1476.82 911.354C1474.54 916.384 1476.76 922.307 1481.79 924.589V924.589ZM1507.8 891.448L1539.13 905.66L1530.47 924.722L1499.16 910.508L1507.8 891.448Z" fill="black"/>
<path d="M1495.45 1034.56C1513.86 1034.56 1528.83 1019.58 1528.83 1001.17C1528.83 982.749 1513.86 967.759 1495.45 967.759C1477.02 967.759 1462.04 982.748 1462.04 1001.17C1462.04 1019.58 1477.02 1034.56 1495.45 1034.56ZM1495.45 987.759C1502.83 987.759 1508.83 993.776 1508.83 1001.17C1508.83 1008.55 1502.83 1014.56 1495.45 1014.56C1488.05 1014.56 1482.04 1008.55 1482.04 1001.17C1482.04 993.776 1488.05 987.759 1495.45 987.759Z" fill="black"/>
<path d="M1168.52 865.702C1174.04 865.702 1178.52 861.197 1178.52 855.674C1178.52 850.151 1174.04 845.674 1168.52 845.674C1162.99 845.674 1158.52 850.151 1158.52 855.674V855.731C1158.52 861.253 1162.99 865.702 1168.52 865.702V865.702Z" fill="black"/>
</g>
<path d="M129.5 933.147C198.926 933.147 255.206 875.998 255.206 805.5C255.206 735.002 198.926 677.853 129.5 677.853C60.0745 677.853 3.79395 735.002 3.79395 805.5C3.79395 875.998 60.0745 933.147 129.5 933.147Z" fill="#9DC6FB"/>
<path d="M208.143 705.924C225.435 727.79 235.788 755.556 235.788 785.782C235.788 856.28 179.507 913.429 110.082 913.429C80.3153 913.429 52.9716 902.917 31.4382 885.358C54.4775 914.492 89.8406 933.147 129.5 933.147C198.926 933.147 255.206 875.998 255.206 805.5C255.206 765.228 236.834 729.319 208.143 705.924V705.924Z" fill="#80B4FB"/>
<path d="M178.733 778.837L151.256 788.992L116.276 769.28L95.9929 776.591L120.631 800.311L92.0871 810.861L80.0644 803.278L52.4272 813.493L86.595 840.377L187.434 803.108C194.034 800.669 197.437 793.258 195.035 786.555C192.632 779.853 185.334 776.397 178.733 778.837V778.837Z" fill="#F9F6F9"/>
<path d="M116.299 697.893L108.919 679.565C49.2859 689.54 3.79395 742.121 3.79395 805.5C3.79395 816.801 5.24728 827.756 7.96172 838.19H14.8515C18.7224 838.19 22.2614 835.969 23.9924 832.453L34.3969 811.323C35.1066 809.883 35.4759 808.293 35.4759 806.682V776.144C35.4759 770.962 39.2405 766.573 44.2961 765.864L78.7213 761.029C81.7529 760.603 84.437 758.82 86.0361 756.17L115.554 707.242C117.254 704.424 117.53 700.952 116.299 697.893V697.893Z" fill="#B3E59F"/>
<path d="M174.468 686.272V729.379C174.468 736.684 178.25 743.452 184.425 747.198L206.167 760.387C211.044 763.346 214.488 768.232 215.674 773.875L219.899 793.982C221.218 800.265 219.599 806.815 215.512 811.72L193.102 838.613C189.979 842.361 188.265 847.111 188.265 852.02V861.957C188.265 869.121 191.904 875.779 197.89 879.569L220.308 893.764C241.924 870.838 255.206 839.745 255.206 805.5C255.206 751.093 221.682 704.645 174.468 686.272V686.272Z" fill="#B3E59F"/>
<path d="M208.154 705.937C225.439 727.801 235.788 755.562 235.788 785.782C235.788 822.322 220.664 855.273 196.431 878.542C196.902 878.902 197.384 879.249 197.89 879.569L220.307 893.764C241.924 870.838 255.206 839.745 255.206 805.5C255.206 765.233 236.839 729.33 208.154 705.937Z" fill="#95D6A4"/>
<path d="M129.5 933.147C146.955 933.147 163.578 929.532 178.685 923.003L165.025 913.382C162.203 911.395 160.112 908.51 159.082 905.183L157.127 898.867C155.806 894.596 152.753 891.101 148.735 889.259L144.692 887.405C141.166 885.787 138.364 882.887 136.839 879.275L134.03 872.619C131.592 866.843 125.998 863.097 119.809 863.097C114.131 863.097 108.909 866.256 106.205 871.326L100.22 882.545C98.3492 886.052 95.2346 888.706 91.5079 889.967L80.594 893.661C77.5078 894.706 74.8237 896.712 72.9247 899.395L62.7938 913.702C82.1273 926.018 104.992 933.147 129.5 933.147Z" fill="#B3E59F"/>
<path d="M159.082 905.183L158.585 903.576C143.66 909.92 127.275 913.43 110.082 913.43C95.3752 913.43 81.2618 910.856 68.1448 906.143L62.7928 913.701C82.1273 926.018 104.992 933.147 129.5 933.147C146.955 933.147 163.578 929.532 178.685 923.003L165.025 913.382C162.203 911.395 160.112 908.51 159.082 905.183V905.183Z" fill="#95D6A4"/>
<path d="M198.049 798.059C199.913 794 200.108 789.447 198.6 785.238C197.091 781.03 194.059 777.669 190.062 775.777C186.065 773.885 181.581 773.685 177.436 775.217L151.584 784.772L118.117 765.912C117.165 765.376 116.032 765.281 115.007 765.65L94.7237 772.961C93.4798 773.409 92.5551 774.481 92.2814 775.793C92.0077 777.104 92.4246 778.465 93.3827 779.388L113.569 798.822L92.5227 806.601L82.0661 800.007C81.0766 799.383 79.8605 799.256 78.7669 799.66L51.1297 809.874C49.8317 810.354 48.8923 811.513 48.6789 812.899C48.4654 814.285 49.0112 815.68 50.1034 816.539L84.2711 843.424C84.9459 843.955 85.7659 844.231 86.5955 844.231C87.0316 844.231 87.4707 844.154 87.8926 843.999L143.211 823.553C145.18 822.825 146.195 820.614 145.479 818.615C144.762 816.616 142.585 815.585 140.616 816.313L87.2638 836.032L60.1867 814.726L79.6288 807.54L90.0855 814.134C91.0754 814.758 92.292 814.886 93.3847 814.482L121.929 803.932C123.164 803.476 124.078 802.403 124.345 801.096C124.613 799.789 124.195 798.435 123.241 797.517L103.094 778.12L115.931 773.493L149.415 792.362C150.375 792.903 151.52 792.995 152.554 792.614L180.03 782.458C184.654 780.748 189.785 783.179 191.468 787.874C193.151 792.57 190.759 797.781 186.135 799.49L157.326 810.137C155.358 810.865 154.342 813.076 155.059 815.075C155.775 817.075 157.952 818.106 159.922 817.378L188.73 806.73C192.875 805.197 196.184 802.118 198.049 798.059V798.059Z" fill="black"/>
<path d="M221.071 712.515C196.611 687.679 164.091 674 129.5 674C109.611 674 90.5271 678.459 72.7805 687.252C70.8972 688.185 70.1156 690.491 71.0348 692.403C71.9539 694.315 74.2247 695.109 76.1081 694.176C85.861 689.344 96.0465 685.913 106.56 683.886L112.787 699.351C113.558 701.266 113.383 703.464 112.318 705.229L82.8006 754.156C81.7909 755.829 80.114 756.943 78.2008 757.212L43.7756 762.046C36.8807 763.015 31.6815 769.075 31.6815 776.143V806.681C31.6815 807.689 31.4467 808.698 31.0031 809.6L20.5991 830.73C19.5034 832.955 17.3009 834.337 14.8515 834.337H10.9352C8.75187 825.081 7.58789 815.427 7.58789 805.5C7.58789 764.393 27.6204 726.06 61.1741 702.959C62.9087 701.766 63.3609 699.37 62.1853 697.609C61.0097 695.847 58.6498 695.388 56.9158 696.582C21.2769 721.118 0 761.835 0 805.5C0 840.625 13.4705 873.647 37.9293 898.484C62.3892 923.322 94.9093 937 129.5 937C152.076 937 174.304 931.011 193.782 919.681C195.6 918.623 196.229 916.269 195.188 914.423C194.146 912.576 191.828 911.937 190.01 912.995C186.466 915.056 182.825 916.927 179.104 918.608L167.188 910.217C165.068 908.724 163.475 906.526 162.702 904.028L160.747 897.712C159.103 892.4 155.294 888.039 150.297 885.748L146.254 883.894C143.586 882.67 141.48 880.49 140.326 877.758L137.517 871.102C134.477 863.898 127.526 859.244 119.809 859.244C112.731 859.244 106.24 863.17 102.868 869.49L96.8832 880.71C95.4658 883.367 93.1302 885.356 90.307 886.312L79.3931 890.006C75.5253 891.315 72.2236 893.783 69.8435 897.145L61.8494 908.434C38.8546 892.8 21.3635 869.442 13.0107 842.043H14.8515C20.1939 842.043 24.9965 839.028 27.3857 834.176L37.7897 813.046C38.7579 811.08 39.2694 808.879 39.2694 806.682V776.144C39.2694 772.902 41.6535 770.124 44.8151 769.68L79.2403 764.845C83.4132 764.259 87.069 761.831 89.2705 758.183L118.789 709.255C121.111 705.406 121.493 700.614 119.811 696.436L114.266 682.663C119.28 682.033 124.36 681.705 129.5 681.705C143.944 681.705 157.806 684.275 170.674 688.978V729.379C170.674 737.993 175.198 746.087 182.48 750.505L204.221 763.694C208.179 766.095 211.001 770.098 211.964 774.678L216.188 794.785C217.255 799.865 215.92 805.265 212.615 809.23L190.205 836.124C186.507 840.562 184.471 846.207 184.471 852.02V861.957C184.471 870.508 188.738 878.314 195.883 882.838L214.267 894.478C211.141 897.539 207.843 900.459 204.365 903.211C202.712 904.519 202.416 906.939 203.704 908.618C204.452 909.593 205.57 910.103 206.699 910.103C207.514 910.103 208.336 909.838 209.028 909.289C224.24 897.254 236.823 881.66 245.416 864.193C254.43 845.872 259 826.124 259 805.5C259 770.375 245.529 737.353 221.071 712.515V712.515ZM76.0033 901.643C77.4466 899.606 79.4483 898.109 81.7924 897.316L92.7063 893.622C97.3638 892.045 101.216 888.764 103.554 884.38L109.539 873.16C111.583 869.329 115.518 866.95 119.808 866.95C124.486 866.95 128.699 869.771 130.543 874.137L133.352 880.793C135.255 885.302 138.727 888.897 143.13 890.916L147.173 892.77C150.202 894.159 152.512 896.803 153.508 900.022L155.462 906.338C156.737 910.459 159.366 914.086 162.862 916.548L170.664 922.042C157.527 926.816 143.587 929.295 129.5 929.295C107.207 929.295 86.2951 923.182 68.2966 912.528L76.0033 901.643ZM219.691 888.832L199.898 876.3C194.99 873.192 192.06 867.83 192.06 861.957V852.02C192.06 848.027 193.459 844.149 195.998 841.102L218.408 814.208C223.219 808.435 225.163 800.574 223.609 793.178L219.385 773.07C217.983 766.403 213.875 760.575 208.113 757.079L186.371 743.89C181.369 740.856 178.262 735.295 178.262 729.379V692.051C221.281 711.191 251.412 754.836 251.412 805.5C251.412 836.793 240.046 866.211 219.691 888.832V888.832Z" fill="black"/>
<path d="M175.707 853.238C175.707 851.11 174.009 849.386 171.913 849.386H164.248C162.153 849.386 160.455 851.11 160.455 853.238C160.455 855.366 162.153 857.091 164.248 857.091H171.913C174.009 857.091 175.707 855.366 175.707 853.238Z" fill="black"/>
<path d="M154.028 865.99C151.932 865.99 150.234 867.715 150.234 869.843C150.234 871.97 151.932 873.695 154.028 873.695H161.693C163.789 873.695 165.487 871.97 165.487 869.843C165.487 867.715 163.789 865.99 161.693 865.99H154.028Z" fill="black"/>
<defs>
<clipPath id="clip0">
<rect width="469.17" height="469.17" fill="white" transform="translate(1046)"/>
</clipPath>
<clipPath id="clip1">
<rect width="512" height="512" fill="white" transform="translate(1156 564)"/>
</clipPath>
</defs>
</svg>
