<svg width="512" height="512" viewBox="0 0 512 512" fill="none" xmlns="http://www.w3.org/2000/svg">
<path d="M256 0L128 256L256 512C397.385 512 512 397.385 512 256C512 114.615 397.385 0 256 0Z" fill="#DDAD58"/>
<path d="M0 256C0 397.385 114.615 512 256 512V0C114.615 0 0 114.615 0 256Z" fill="#EAB14D"/>
<path d="M256 60L158 256L256 452C364.248 452 452 364.248 452 256C452 147.752 364.248 60 256 60Z" fill="white"/>
<path d="M60 256C60 364.248 147.752 452 256 452V60C147.752 60 60 147.752 60 256Z" fill="white"/>
<path d="M298.426 277.213L256 234.787H236L256 277.213L277.213 298.426L298.426 277.213Z" fill="#030303"/>
<path d="M170.794 149.581L149.581 170.794L256 277.213V234.787L170.794 149.581Z" fill="#EAB14D"/>
<path d="M341.561 149.227L256 234.787L236 277.213H256L362.773 170.439L341.561 149.227Z" fill="#EAB14D"/>
<path d="M213.574 277.213L234.787 298.426L256 277.213V234.787L213.574 277.213Z" fill="#030303"/>
<path d="M271 90H256L246 105L256 120H271V90Z" fill="#030303"/>
<path d="M241 90H256V120H241V90Z" fill="#EAB14D"/>
<path d="M271 392H256L246 407L256 422H271V392Z" fill="#030303"/>
<path d="M241 392H256V422H241V392Z" fill="#EAB14D"/>
<path d="M90 271V241H120V271H90Z" fill="#EAB14D"/>
<path d="M392 271V241H422V271H392Z" fill="#030303"/>
</svg>
